<svg xmlns="http://www.w3.org/2000/svg" width="24" height="24" viewBox="0 0 24 24"><path fill="#263238" d="M12 7c-2.762 0-5 2.238-5 5s2.238 5 5 5 5-2.238 5-5-2.238-5-5-5zm0 8c-1.657 0-3-1.343-3-3s1.343-3 3-3 3 1.343 3 3-1.343 3-3 3zm11-6h-2.523c-.105-.299-.227-.589-.361-.872l1.653-1.654c.391-.391.391-1.023 0-1.414l-2.829-2.829c-.391-.391-1.023-.391-1.414 0l-1.654 1.653c-.283-.134-.573-.255-.872-.361v-2.523c0-.553-.447-1-1-1h-4c-.553 0-1 .447-1 1v2.523c-.299.106-.589.227-.872.362l-1.654-1.654c-.391-.391-1.023-.391-1.414 0l-2.829 2.829c-.391.391-.391 1.023 0 1.414l1.653 1.654c-.134.283-.255.573-.361.872h-2.523c-.553 0-1 .447-1 1v4c0 .553.447 1 1 1h2.523c.105.299.227.589.361.872l-1.653 1.654c-.391.391-.391 1.023 0 1.414l2.828 2.828c.391.391 1.023.391 1.414 0l1.654-1.653c.284.135.574.256.873.362v2.523c0 .553.447 1 1 1h4c.553 0 1-.447 1-1v-2.523c.299-.105.589-.227.872-.361l1.654 1.653c.391.391 1.023.391 1.414 0l2.828-2.828c.391-.391.391-1.023 0-1.414l-1.653-1.654c.135-.283.256-.573.361-.872h2.524c.553 0 1-.447 1-1v-4c0-.554-.447-1.001-1-1.001zm-1 4h-3.101c-.171 1.182-.627 2.261-1.311 3.175l2.059 2.059-1.414 1.414-2.059-2.059c-.913.684-1.993 1.14-3.175 1.311v3.1h-2v-3.101c-1.182-.171-2.262-.627-3.175-1.311l-2.059 2.059-1.414-1.414 2.059-2.059c-.683-.913-1.139-1.992-1.309-3.174h-3.101v-2h3.101c.171-1.182.626-2.262 1.311-3.175l-2.059-2.058 1.414-1.414 2.059 2.059c.912-.684 1.992-1.141 3.174-1.311v-3.101h2v3.101c1.182.171 2.262.627 3.175 1.311l2.059-2.059 1.414 1.414-2.059 2.059c.684.913 1.14 1.993 1.311 3.175h3.1v1.999z"/></svg>