<svg xmlns="http://www.w3.org/2000/svg" width="24" height="24" viewBox="0 0 24 24"><path fill="#5B5B5B" d="M8.5 10c.827 0 1.5-.673 1.5-1.5s-.673-1.5-1.5-1.5-1.5.673-1.5 1.5.673 1.5 1.5 1.5zm0-2c.275 0 .5.224.5.5s-.225.5-.5.5-.5-.224-.5-.5.225-.5.5-.5zM15.5 10c.827 0 1.5-.673 1.5-1.5s-.673-1.5-1.5-1.5-1.5.673-1.5 1.5.673 1.5 1.5 1.5zm0-2c.275 0 .5.224.5.5s-.225.5-.5.5-.5-.224-.5-.5.225-.5.5-.5zM4.617 24h14.766c.426 0 .833-.182 1.117-.5s.421-.742.374-1.166l-1.778-16c-.084-.76-.725-1.334-1.491-1.334h-1.962l-.299-2.099c-.114-.812-.514-1.551-1.127-2.079-.613-.53-1.401-.822-2.217-.822-1.702 0-3.109 1.22-3.345 2.9l-.299 2.1h-1.961c-.766 0-1.406.574-1.49 1.334l-1.778 16c-.048.424.089.849.373 1.166s.691.5 1.117.5zm15.138-1.167c-.096.108-.229.167-.372.167h-14.766c-.144 0-.276-.059-.372-.167-.097-.107-.141-.246-.125-.389l.161-1.444h15.439l.161 1.444c.015.144-.029.282-.126.389zm-10.109-19.793c.166-1.182 1.156-2.04 2.354-2.04.576 0 1.131.206 1.563.579.43.37.711.889.791 1.461l.28 1.96h-5.268l.28-1.96zm-3.748 3.404c.028-.253.242-.444.497-.444h11.211c.255 0 .469.191.496.445l1.506 13.555h-15.216l1.506-13.556z"/></svg>