<svg xmlns="http://www.w3.org/2000/svg" width="24" height="24" viewBox="0 0 24 24"><path fill="#5B5B5B" d="M4.735 23.941l1.645-.875 1.645.875c.073.039.154.059.234.059l.235-.059 1.642-.875 1.637.874c.146.079.323.079.471 0l1.64-.875 1.638.874c.146.079.324.079.471 0l1.634-.874 1.638.874c.155.083.342.078.493-.012.15-.089.242-.251.242-.427v-23c0-.176-.092-.338-.243-.429-.151-.09-.337-.096-.492-.013l-1.645.876-1.645-.875c-.146-.078-.323-.078-.47 0l-1.642.875-1.637-.874c-.146-.079-.323-.079-.471 0l-1.64.875-1.636-.876c-.146-.079-.324-.079-.471 0l-1.634.874-1.639-.874c-.154-.083-.341-.078-.492.012-.151.091-.243.253-.243.429v23c0 .176.092.338.243.429.15.09.335.094.492.012zm.265-22.608l1.138.607c.147.079.324.079.471 0l1.634-.874 1.638.874c.146.079.323.079.471 0l1.64-.875 1.637.874c.146.08.324.079.47 0l1.642-.875 1.645.875c.146.078.323.078.47 0l1.144-.606v21.334l-1.138-.607c-.147-.079-.324-.079-.471 0l-1.634.874-1.638-.874c-.146-.079-.323-.079-.471 0l-1.64.875-1.637-.874c-.146-.079-.323-.078-.47 0l-1.642.875-1.645-.875c-.072-.041-.154-.061-.234-.061l-.235.059-1.145.608v-21.334zM7.5 6h5c.276 0 .5-.224.5-.5s-.224-.5-.5-.5h-5c-.276 0-.5.224-.5.5s.224.5.5.5zM7.5 10h9c.276 0 .5-.224.5-.5s-.224-.5-.5-.5h-9c-.276 0-.5.224-.5.5s.224.5.5.5zM7.5 13h9c.276 0 .5-.224.5-.5s-.224-.5-.5-.5h-9c-.276 0-.5.224-.5.5s.224.5.5.5zM7.5 16h9c.276 0 .5-.224.5-.5s-.224-.5-.5-.5h-9c-.276 0-.5.224-.5.5s.224.5.5.5zM7.5 19h6c.276 0 .5-.224.5-.5s-.224-.5-.5-.5h-6c-.276 0-.5.224-.5.5s.224.5.5.5zM16.5 18h-1c-.276 0-.5.224-.5.5s.224.5.5.5h1c.276 0 .5-.224.5-.5s-.224-.5-.5-.5z"/></svg>