<?xml version="1.0" encoding="utf-8"?>
<!-- Generator: Adobe Illustrator 18.0.0, SVG Export Plug-In . SVG Version: 6.00 Build 0)  -->
<!DOCTYPE svg PUBLIC "-//W3C//DTD SVG 1.1//EN" "http://www.w3.org/Graphics/SVG/1.1/DTD/svg11.dtd" [
	<!ENTITY ns_extend "http://ns.adobe.com/Extensibility/1.0/">
	<!ENTITY ns_ai "http://ns.adobe.com/AdobeIllustrator/10.0/">
	<!ENTITY ns_graphs "http://ns.adobe.com/Graphs/1.0/">
	<!ENTITY ns_vars "http://ns.adobe.com/Variables/1.0/">
	<!ENTITY ns_imrep "http://ns.adobe.com/ImageReplacement/1.0/">
	<!ENTITY ns_sfw "http://ns.adobe.com/SaveForWeb/1.0/">
	<!ENTITY ns_custom "http://ns.adobe.com/GenericCustomNamespace/1.0/">
	<!ENTITY ns_adobe_xpath "http://ns.adobe.com/XPath/1.0/">
]>
<svg version="1.1" id="icons" xmlns:x="&ns_extend;" xmlns:i="&ns_ai;" xmlns:graph="&ns_graphs;"
	 xmlns="http://www.w3.org/2000/svg" xmlns:xlink="http://www.w3.org/1999/xlink" x="0px" y="0px" viewBox="0 0 24 24"
	 enable-background="new 0 0 24 24" xml:space="preserve">
<metadata>
	<sfw  xmlns="&ns_sfw;">
		<slices></slices>
		<sliceSourceBounds  height="288.001" width="332" x="21" y="-331" bottomLeftOrigin="true"></sliceSourceBounds>
		<optimizationSettings>
			<targetSettings  fileFormat="PNG24Format" targetSettingsID="0">
				<PNG24Format  transparency="true" interlaced="false" filtered="false" noMatteColor="false" matteColor="#FFFFFF">
					</PNG24Format>
			</targetSettings>
		</optimizationSettings>
	</sfw>
</metadata>
<path fill="#5B5B5B" d="M23.5,8c0.007,0,0.013,0,0.02,0c0.276,0,0.5-0.224,0.5-0.5c0-0.227-0.151-0.418-0.358-0.479l-11.43-5.964
	c-0.146-0.075-0.317-0.075-0.463,0l-11.5,6C0.064,7.163-0.041,7.396,0.014,7.619C0.069,7.843,0.27,8,0.5,8H3v12H2.591
	c-0.129,0-0.252,0.05-0.346,0.139l-2.091,2c-0.147,0.142-0.194,0.358-0.118,0.548C0.112,22.876,0.296,23,0.5,23h23
	c0.204,0,0.388-0.124,0.464-0.313c0.076-0.189,0.029-0.406-0.118-0.548l-2.091-2C21.662,20.05,21.538,20,21.409,20H21V8H23.5z
	 M12,2.064L21.461,7H20.5h-3h-4h-3h-4h-3H2.539L12,2.064z M14,20V8h3v12H14z M7,20V8h3v12H7z M11,8h2v12h-2V8z M4,8h2v12H4V8z
	 M22.254,22H1.746l1.045-1H3.5h3h4h3h4h3h0.708L22.254,22z M20,20h-2V8h2V20z"/>
</svg>
