<svg xmlns="http://www.w3.org/2000/svg" viewBox="0 0 512 512" enable-background="new 0 0 512 512"><path   d="M425.7 345.2l-52.8-104.3c-1.8-3.6-5.5-5.8-9.3-5.8-4 0-7.6 2.2-9.3 5.8l-53.6 106.7c-2.6 5.1-.5 11.4 4.6 14.1 1.5.7 3.1 1.2 4.7 1.2 3.9 0 7.6-2.1 9.3-5.8l18.5-36.7h51.8l17.4 34.4c2.6 5.1 8.9 7.2 14.1 4.6 5.1-2.7 7.2-9 4.6-14.2zm-77.4-45.9l15.3-30.4 15.4 30.4h-30.7zM510.2 286c-5-32.8-21.1-63.3-45.2-85.9-45.6-42.6-112.2-52-167.2-25-8.3-74.5-71.4-132.8-148-132.8-40 0-77.5 15.4-105.8 43.6-28.4 28.2-44 65.8-44 105.9 0 40 15.6 77.6 44 105.8 28.2 28.1 65.9 43.6 105.8 43.6 23.2 0 45.2-5.4 64.8-14.9 6.7 61 50.5 112.6 110.9 128.6h.1c12.1 2.9 24.1 4.4 36.1 4.4 53.8 0 104.9-29.1 131.7-77.8 16-28.9 21.9-62.8 16.8-95.5zm-360.4 34.1c-70.9 0-128.7-57.5-128.7-128.4 0-70.7 57.8-128.4 128.7-128.4 70.6 0 128 57.6 128 128.4s-57.4 128.4-128 128.4zm325.3 51.3c-28.1 51.2-87.4 77.1-144.2 63.1-55.1-14.6-94-63.6-96-120.1 36.9-25.8 61.6-67.9 63.8-115.8 48.8-28.5 110.6-21.9 152.1 17 42.8 39.9 52.7 103.9 24.3 155.8zM202.7 446.8v-.1l-.3-1.2v-.1c-.1-.3-.2-.7-.4-1 0-.1-.1-.2-.2-.3l-.4-.7-.2-.3-.6-.9c-.2-.3-.5-.6-.8-.9l-.2-.2-.7-.6-.3-.2-.7-.5-.3-.2c-.3-.2-.7-.4-1-.5l-53.6-21.6c-5.3-2.2-11.4.4-13.6 5.8-2.2 5.4.4 11.4 5.8 13.6l35.9 14.5c-19.7 10.6-43.5 11.4-64.2 1.6h-.1c-26.1-12.1-42.6-38.7-42-68.1.1-5.8-4.4-10.6-10.3-10.7-5.8-.1-10.6 4.4-10.7 10.3-.9 37.7 20.4 72 54 87.6 12.6 6 26 8.9 39.4 8.9 11.4 0 22.9-2.2 33.7-6.4l-9.5 23.3c-2.2 5.4.4 11.5 5.8 13.6 1.3.5 2.6.7 4 .7 4.1 0 8.1-2.4 9.8-6.5l21.6-53 .1-.3c-.1-.1-.1-.2 0-.3.1-.3.2-.6.2-.8 0-.1 0-.2.1-.3.1-.4.1-.8.2-1.3v-1.5l-.1-.9c-.4-.4-.4-.4-.4-.5zM310 65.3v.1l.3 1.2v.1c.1.3.2.7.4 1 0 .1.1.2.2.3l.4.7.2.3.6.9c.2.3.5.6.8.9l.2.2.7.6.3.2.7.5.3.2c.3.2.7.4 1 .5l53.9 21.9c5.3 2.2 11.4-.4 13.6-5.8s-.4-11.4-5.8-13.6l-35.8-14.5c19.7-10.6 43.5-11.4 64.2-1.6h.1c26.1 12.1 42.6 38.7 42 68.1-.1 5.8 4.4 10.6 10.3 10.7h.2c5.7 0 10.4-4.5 10.5-10.3.8-37.8-20.4-72.2-54.1-87.7-23.4-11.1-49.7-11.7-73-2.5l9.5-23.3c2.2-5.4-.4-11.5-5.8-13.6-5.3-2.2-11.5.4-13.6 5.8l-21.6 53-.1.3s-.1.3-.1.4c-.1.3-.2.6-.2.8 0 .1 0 .2-.1.3-.1.4-.1.8-.2 1.3v1.5l.1.9c-.1.1-.1.1-.1.2zM224.2 218.3c-.9-.6-1.9-1-3-1h-43.2c-4.2-1.6-7.7-5.2-10.7-11-2.9-5.7-4.4-12.4-4.4-20v-2.6c0-10.6 3-18.3 9.1-22.9 6.1-4.7 14.5-7 25.1-7 3.7 0 7 .1 9.9.2 2.9.1 6.1.4 9.7.6 1.1.1 2.2 0 3.2-.5s1.5-1.5 1.5-3.1v-8.6c0-1.4-.4-2.4-1.3-2.9s-2.1-.9-3.7-1.2c-4.7-.7-8.8-1.1-12.2-1.3-3.4-.1-6.5-.2-9.4-.2-7.2 0-13.8.9-19.9 2.7-6.1 1.8-11.4 4.6-15.9 8.3-4.5 3.7-8 8.4-10.5 14.1-2.5 5.7-3.8 12.3-3.8 19.9v2.4c0 7.7.8 14.4 2.5 20 1.6 5.6 3.9 10 6.8 13.1h-73.3c-2 0-3.7.3-5.2.8-1.4.5-2.2 1.2-2.2 2v12.7c0 1 .7 1.8 2.2 2.3 1.4.5 3.2.8 5.2.8h140.6c1.1 0 2.2-.3 3-.9.9-.6 1.3-1.4 1.3-2.6v-11.4c-.1-1.2-.5-2.1-1.4-2.7z"/></svg>