<svg xmlns="http://www.w3.org/2000/svg" width="24" height="24" viewBox="0 0 24 24"> <path fill="#5B5B5B" d="M1.509,22.631c0.912,0.912,2.11,1.368,3.309,1.368s2.396-0.456,3.309-1.368l5.506-5.506
		c0.426-0.417,0.755-0.941,0.992-1.507c0.566-0.236,1.089-0.565,1.502-0.987l5.51-5.51c1.824-1.824,1.824-4.793,0-6.618l-0.14-0.139
		c-1.824-1.824-4.793-1.824-6.617,0L9.373,7.87C8.948,8.286,8.619,8.809,8.382,9.376c-0.568,0.238-1.091,0.567-1.503,0.988
		l-5.51,5.51C0.486,16.757,0,17.932,0,19.183s0.486,2.426,1.369,3.309L1.509,22.631z M15.586,3.071
		c1.434-1.434,3.769-1.435,5.204,0.001l0.14,0.139c1.435,1.435,1.435,3.769,0,5.203l-5.514,5.514
		c-0.363,0.371-0.824,0.665-1.332,0.849c-0.689,0.247-1.444,0.289-2.137,0.114c-0.661-0.154-1.243-0.479-1.73-0.967l-0.14-0.14
		C9.66,13.368,9.37,12.88,9.196,12.336c0.267-0.208,0.578-0.33,0.938-0.333c0.128,0.397,0.352,0.766,0.669,1.092l0.126,0.116
		c0.396,0.396,0.891,0.651,1.423,0.741c0.001,0,0.001,0,0.002,0c0.011,0.002,0.021,0.006,0.032,0.008
		c0.138,0.024,0.289,0.037,0.427,0.037c0.687,0,1.333-0.265,1.859-0.763c0.005-0.003,0.008-0.007,0.013-0.011
		c0.017-0.016,0.035-0.027,0.052-0.043l5.48-5.479C20.722,7.195,21,6.522,21,5.808c0-0.716-0.279-1.389-0.797-1.906l-0.126-0.117
		c-1.02-1.021-2.768-1.012-3.777,0L11,9.082c-0.422-0.076-0.856-0.093-1.291-0.049c0.115-0.158,0.229-0.318,0.366-0.452
		L15.586,3.071z M8.413,13.084c0.227,0.518,0.541,0.991,0.956,1.407l0.14,0.14c0.415,0.416,0.89,0.73,1.407,0.957l-4.916,4.916
		c-0.63,0.633-1.708,0.655-2.376-0.014L3.5,20.378c-0.326-0.333-0.498-0.745-0.498-1.19c0-0.453,0.171-0.863,0.494-1.187
		L8.413,13.084z M14.592,11.91c-0.227-0.518-0.541-0.992-0.957-1.408l-0.14-0.139c-0.416-0.416-0.891-0.731-1.406-0.957l4.916-4.916
		c0.633-0.632,1.708-0.654,2.376,0.013l0.126,0.117C19.826,4.938,20,5.359,20,5.808s-0.175,0.87-0.491,1.187L14.592,11.91z
		 M2.076,16.581l5.514-5.514c0.362-0.371,0.823-0.665,1.331-0.85c0.689-0.247,1.446-0.287,2.138-0.113
		c0.66,0.153,1.242,0.479,1.73,0.968l0.14,0.139c0.416,0.417,0.706,0.905,0.88,1.448c-0.267,0.207-0.578,0.329-0.938,0.332
		c-0.13-0.407-0.354-0.777-0.668-1.09l-0.126-0.117c-0.395-0.395-0.888-0.649-1.418-0.74c-0.002,0-0.003-0.001-0.005-0.001
		c-0.011-0.002-0.022-0.006-0.033-0.008c-0.819-0.144-1.646,0.126-2.28,0.723c-0.009,0.006-0.016,0.013-0.025,0.02
		C8.3,11.792,8.283,11.8,8.269,11.814l-5.48,5.479c-0.507,0.507-0.787,1.18-0.787,1.894c0,0.702,0.278,1.373,0.8,1.907l0.126,0.116
		c0.507,0.507,1.176,0.786,1.884,0.786c0.714,0,1.387-0.279,1.894-0.786l5.295-5.294c0.267,0.048,0.537,0.081,0.812,0.081
		c0.163,0,0.325-0.025,0.488-0.042c-0.116,0.161-0.232,0.322-0.371,0.459l-5.51,5.51c-1.434,1.433-3.768,1.435-5.203,0l-0.14-0.14
		C1.382,21.09,1,20.166,1,19.183S1.382,17.275,2.076,16.581z"/></svg>