<?xml version="1.0" encoding="utf-8"?>
<!-- Generator: Adobe Illustrator 18.0.0, SVG Export Plug-In . SVG Version: 6.00 Build 0)  -->
<!DOCTYPE svg PUBLIC "-//W3C//DTD SVG 1.1//EN" "http://www.w3.org/Graphics/SVG/1.1/DTD/svg11.dtd" [
	<!ENTITY ns_extend "http://ns.adobe.com/Extensibility/1.0/">
	<!ENTITY ns_ai "http://ns.adobe.com/AdobeIllustrator/10.0/">
	<!ENTITY ns_graphs "http://ns.adobe.com/Graphs/1.0/">
	<!ENTITY ns_vars "http://ns.adobe.com/Variables/1.0/">
	<!ENTITY ns_imrep "http://ns.adobe.com/ImageReplacement/1.0/">
	<!ENTITY ns_sfw "http://ns.adobe.com/SaveForWeb/1.0/">
	<!ENTITY ns_custom "http://ns.adobe.com/GenericCustomNamespace/1.0/">
	<!ENTITY ns_adobe_xpath "http://ns.adobe.com/XPath/1.0/">
]>
<svg version="1.1" xmlns:x="&ns_extend;" xmlns:i="&ns_ai;" xmlns:graph="&ns_graphs;"
	 xmlns="http://www.w3.org/2000/svg" xmlns:xlink="http://www.w3.org/1999/xlink" x="0px" y="0px" viewBox="0 0 24 24"
	 enable-background="new 0 0 24 24" xml:space="preserve">
<metadata>
	<sfw  xmlns="&ns_sfw;">
		<slices></slices>
		<sliceSourceBounds  height="319.044" width="489.604" x="0" y="-309" bottomLeftOrigin="true"></sliceSourceBounds>
		<optimizationSettings>
			<targetSettings  fileFormat="PNG24Format" targetSettingsID="0">
				<PNG24Format  transparency="true" filtered="false" noMatteColor="false" matteColor="#FFFFFF" interlaced="false">
					</PNG24Format>
			</targetSettings>
		</optimizationSettings>
	</sfw>
</metadata>
<g id="icons">
	<path fill="#5B5B5B" d="M1.509,22.631c0.912,0.912,2.11,1.368,3.309,1.368s2.396-0.456,3.309-1.368l5.506-5.506
		c0.426-0.417,0.755-0.941,0.992-1.507c0.566-0.236,1.089-0.565,1.502-0.987l5.51-5.51c1.824-1.824,1.824-4.793,0-6.618l-0.14-0.139
		c-1.824-1.824-4.793-1.824-6.617,0L9.373,7.87C8.948,8.286,8.619,8.809,8.382,9.376c-0.568,0.238-1.091,0.567-1.503,0.988
		l-5.51,5.51C0.486,16.757,0,17.932,0,19.183s0.486,2.426,1.369,3.309L1.509,22.631z M15.586,3.071
		c1.434-1.434,3.769-1.435,5.204,0.001l0.14,0.139c1.435,1.435,1.435,3.769,0,5.203l-5.514,5.514
		c-0.363,0.371-0.824,0.665-1.332,0.849c-0.689,0.247-1.444,0.289-2.137,0.114c-0.661-0.154-1.243-0.479-1.73-0.967l-0.14-0.14
		C9.66,13.368,9.37,12.88,9.196,12.336c0.267-0.208,0.578-0.33,0.938-0.333c0.128,0.397,0.352,0.766,0.669,1.092l0.126,0.116
		c0.396,0.396,0.891,0.651,1.423,0.741c0.001,0,0.001,0,0.002,0c0.011,0.002,0.021,0.006,0.032,0.008
		c0.138,0.024,0.289,0.037,0.427,0.037c0.687,0,1.333-0.265,1.859-0.763c0.005-0.003,0.008-0.007,0.013-0.011
		c0.017-0.016,0.035-0.027,0.052-0.043l5.48-5.479C20.722,7.195,21,6.522,21,5.808c0-0.716-0.279-1.389-0.797-1.906l-0.126-0.117
		c-1.02-1.021-2.768-1.012-3.777,0L11,9.082c-0.422-0.076-0.856-0.093-1.291-0.049c0.115-0.158,0.229-0.318,0.366-0.452
		L15.586,3.071z M8.413,13.084c0.227,0.518,0.541,0.991,0.956,1.407l0.14,0.14c0.415,0.416,0.89,0.73,1.407,0.957l-4.916,4.916
		c-0.63,0.633-1.708,0.655-2.376-0.014L3.5,20.378c-0.326-0.333-0.498-0.745-0.498-1.19c0-0.453,0.171-0.863,0.494-1.187
		L8.413,13.084z M14.592,11.91c-0.227-0.518-0.541-0.992-0.957-1.408l-0.14-0.139c-0.416-0.416-0.891-0.731-1.406-0.957l4.916-4.916
		c0.633-0.632,1.708-0.654,2.376,0.013l0.126,0.117C19.826,4.938,20,5.359,20,5.808s-0.175,0.87-0.491,1.187L14.592,11.91z
		 M2.076,16.581l5.514-5.514c0.362-0.371,0.823-0.665,1.331-0.85c0.689-0.247,1.446-0.287,2.138-0.113
		c0.66,0.153,1.242,0.479,1.73,0.968l0.14,0.139c0.416,0.417,0.706,0.905,0.88,1.448c-0.267,0.207-0.578,0.329-0.938,0.332
		c-0.13-0.407-0.354-0.777-0.668-1.09l-0.126-0.117c-0.395-0.395-0.888-0.649-1.418-0.74c-0.002,0-0.003-0.001-0.005-0.001
		c-0.011-0.002-0.022-0.006-0.033-0.008c-0.819-0.144-1.646,0.126-2.28,0.723c-0.009,0.006-0.016,0.013-0.025,0.02
		C8.3,11.792,8.283,11.8,8.269,11.814l-5.48,5.479c-0.507,0.507-0.787,1.18-0.787,1.894c0,0.702,0.278,1.373,0.8,1.907l0.126,0.116
		c0.507,0.507,1.176,0.786,1.884,0.786c0.714,0,1.387-0.279,1.894-0.786l5.295-5.294c0.267,0.048,0.537,0.081,0.812,0.081
		c0.163,0,0.325-0.025,0.488-0.042c-0.116,0.161-0.232,0.322-0.371,0.459l-5.51,5.51c-1.434,1.433-3.768,1.435-5.203,0l-0.14-0.14
		C1.382,21.09,1,20.166,1,19.183S1.382,17.275,2.076,16.581z"/>
</g>
<g id="nyt_x5F_exporter_x5F_info" display="none">
	<text transform="matrix(1 0 0 1 -109 -197)" display="inline"><tspan x="0" y="0" font-family="'MyriadPro-Regular'" font-size="12">&lt;</tspan><tspan x="7.152" y="0" font-family="'MyriadPro-Regular'" font-size="12">n</tspan><tspan x="13.656" y="0" font-family="'MyriadPro-Regular'" font-size="12">yt_p</tspan><tspan x="36.107" y="0" font-family="'MyriadPro-Regular'" font-size="12">r</tspan><tspan x="39.912" y="0" font-family="'MyriadPro-Regular'" font-size="12">e</tspan><tspan x="45.924" y="0" font-family="'MyriadPro-Regular'" font-size="12">f</tspan><tspan x="49.32" y="0" font-family="'MyriadPro-Regular'" font-size="12">s&gt;</tspan><tspan x="0" y="14.4" font-family="'MyriadPro-Regular'" font-size="12">  &lt;</tspan><tspan x="12.24" y="14.4" font-family="'MyriadPro-Regular'" font-size="12">n</tspan><tspan x="18.744" y="14.4" font-family="'MyriadPro-Regular'" font-size="12">yt_p</tspan><tspan x="41.195" y="14.4" font-family="'MyriadPro-Regular'" font-size="12">r</tspan><tspan x="45" y="14.4" font-family="'MyriadPro-Regular'" font-size="12">efix&gt;&lt;/</tspan><tspan x="81.263" y="14.4" font-family="'MyriadPro-Regular'" font-size="12">n</tspan><tspan x="87.767" y="14.4" font-family="'MyriadPro-Regular'" font-size="12">yt_p</tspan><tspan x="110.219" y="14.4" font-family="'MyriadPro-Regular'" font-size="12">r</tspan><tspan x="114.022" y="14.4" font-family="'MyriadPro-Regular'" font-size="12">efix&gt;</tspan><tspan x="0" y="28.8" font-family="'MyriadPro-Regular'" font-size="12">  &lt;</tspan><tspan x="12.24" y="28.8" font-family="'MyriadPro-Regular'" font-size="12">n</tspan><tspan x="18.744" y="28.8" font-family="'MyriadPro-Regular'" font-size="12">yt_suffix&gt;&lt;/</tspan><tspan x="79.487" y="28.8" font-family="'MyriadPro-Regular'" font-size="12">n</tspan><tspan x="85.991" y="28.8" font-family="'MyriadPro-Regular'" font-size="12">yt_suffix&gt;</tspan><tspan x="0" y="43.2" font-family="'MyriadPro-Regular'" font-size="12">  &lt;</tspan><tspan x="12.24" y="43.2" font-family="'MyriadPro-Regular'" font-size="12">n</tspan><tspan x="18.744" y="43.2" font-family="'MyriadPro-Regular'" font-size="12">yt_base_p</tspan><tspan x="70.571" y="43.2" font-family="'MyriadPro-Regular'" font-size="12">a</tspan><tspan x="76.307" y="43.2" font-family="'MyriadPro-Regular'" font-size="12">th&gt;~/</tspan><tspan x="105.358" y="43.2" font-family="'MyriadPro-Regular'" font-size="12">D</tspan><tspan x="113.398" y="43.2" font-family="'MyriadPro-Regular'" font-size="12">esk</tspan><tspan x="129.79" y="43.2" font-family="'MyriadPro-Regular'" font-size="12">t</tspan><tspan x="133.69" y="43.2" font-family="'MyriadPro-Regular'" font-size="12">op/01%20Slimi</tspan><tspan x="209.721" y="43.2" font-family="'MyriadPro-Regular'" font-size="12">c</tspan><tspan x="215.024" y="43.2" font-family="'MyriadPro-Regular'" font-size="12">ons/</tspan><tspan x="237.141" y="43.2" font-family="'MyriadPro-Regular'" font-size="12">P</tspan><tspan x="243.332" y="43.2" font-family="'MyriadPro-Regular'" font-size="12">ng/G</tspan><tspan x="268.568" y="43.2" font-family="'MyriadPro-Regular'" font-size="12">r</tspan><tspan x="272.372" y="43.2" font-family="'MyriadPro-Regular'" font-size="12">ey/384</tspan><tspan x="306.619" y="43.2" font-family="'MyriadPro-Regular'" font-size="12">p</tspan><tspan x="313.279" y="43.2" font-family="'MyriadPro-Regular'" font-size="12">x/</tspan><tspan x="322.951" y="43.2" font-family="'MyriadPro-Regular'" font-size="12">M</tspan><tspan x="332.671" y="43.2" font-family="'MyriadPro-Regular'" font-size="12">a</tspan><tspan x="338.454" y="43.2" font-family="'MyriadPro-Regular'" font-size="12">r</tspan><tspan x="342.427" y="43.2" font-family="'MyriadPro-Regular'" font-size="12">keting-</tspan><tspan x="377.897" y="43.2" font-family="'MyriadPro-Regular'" font-size="12">S</tspan><tspan x="383.886" y="43.2" font-family="'MyriadPro-Regular'" font-size="12">eo&lt;/</tspan><tspan x="407.753" y="43.2" font-family="'MyriadPro-Regular'" font-size="12">n</tspan><tspan x="414.258" y="43.2" font-family="'MyriadPro-Regular'" font-size="12">yt_base_p</tspan><tspan x="466.085" y="43.2" font-family="'MyriadPro-Regular'" font-size="12">a</tspan><tspan x="471.82" y="43.2" font-family="'MyriadPro-Regular'" font-size="12">th&gt;</tspan><tspan x="0" y="57.6" font-family="'MyriadPro-Regular'" font-size="12">  &lt;</tspan><tspan x="12.24" y="57.6" font-family="'MyriadPro-Regular'" font-size="12">n</tspan><tspan x="18.744" y="57.6" font-family="'MyriadPro-Regular'" font-size="12">yt_scaling&gt;1600&lt;/</tspan><tspan x="112.33" y="57.6" font-family="'MyriadPro-Regular'" font-size="12">n</tspan><tspan x="118.834" y="57.6" font-family="'MyriadPro-Regular'" font-size="12">yt_scaling&gt;</tspan><tspan x="0" y="72" font-family="'MyriadPro-Regular'" font-size="12">  &lt;</tspan><tspan x="12.24" y="72" font-family="'MyriadPro-Regular'" font-size="12">n</tspan><tspan x="18.744" y="72" font-family="'MyriadPro-Regular'" font-size="12">yt_t</tspan><tspan x="38.339" y="72" font-family="'MyriadPro-Regular'" font-size="12">r</tspan><tspan x="42.204" y="72" font-family="'MyriadPro-Regular'" font-size="12">anspa</tspan><tspan x="72.011" y="72" font-family="'MyriadPro-Regular'" font-size="12">r</tspan><tspan x="75.815" y="72" font-family="'MyriadPro-Regular'" font-size="12">en</tspan><tspan x="88.487" y="72" font-family="'MyriadPro-Regular'" font-size="12">c</tspan><tspan x="94.079" y="72" font-family="'MyriadPro-Regular'" font-size="12">y&gt;true&lt;/</tspan><tspan x="138.67" y="72" font-family="'MyriadPro-Regular'" font-size="12">n</tspan><tspan x="145.174" y="72" font-family="'MyriadPro-Regular'" font-size="12">yt_t</tspan><tspan x="164.77" y="72" font-family="'MyriadPro-Regular'" font-size="12">r</tspan><tspan x="168.634" y="72" font-family="'MyriadPro-Regular'" font-size="12">anspa</tspan><tspan x="198.441" y="72" font-family="'MyriadPro-Regular'" font-size="12">r</tspan><tspan x="202.246" y="72" font-family="'MyriadPro-Regular'" font-size="12">en</tspan><tspan x="214.918" y="72" font-family="'MyriadPro-Regular'" font-size="12">c</tspan><tspan x="220.51" y="72" font-family="'MyriadPro-Regular'" font-size="12">y&gt;</tspan><tspan x="0" y="86.4" font-family="'MyriadPro-Regular'" font-size="12">  &lt;</tspan><tspan x="12.24" y="86.4" font-family="'MyriadPro-Regular'" font-size="12">n</tspan><tspan x="18.744" y="86.4" font-family="'MyriadPro-Regular'" font-size="12">yt_embed</tspan><tspan x="69.995" y="86.4" font-family="'MyriadPro-Regular'" font-size="12">I</tspan><tspan x="72.983" y="86.4" font-family="'MyriadPro-Regular'" font-size="12">mage&gt;true&lt;/</tspan><tspan x="140.434" y="86.4" font-family="'MyriadPro-Regular'" font-size="12">n</tspan><tspan x="146.938" y="86.4" font-family="'MyriadPro-Regular'" font-size="12">yt_embed</tspan><tspan x="198.189" y="86.4" font-family="'MyriadPro-Regular'" font-size="12">I</tspan><tspan x="201.178" y="86.4" font-family="'MyriadPro-Regular'" font-size="12">mage&gt;</tspan><tspan x="0" y="100.8" font-family="'MyriadPro-Regular'" font-size="12">  &lt;</tspan><tspan x="12.24" y="100.8" font-family="'MyriadPro-Regular'" font-size="12">n</tspan><tspan x="18.744" y="100.8" font-family="'MyriadPro-Regular'" font-size="12">yt_embed</tspan><tspan x="69.995" y="100.8" font-family="'MyriadPro-Regular'" font-size="12">F</tspan><tspan x="75.467" y="100.8" font-family="'MyriadPro-Regular'" font-size="12">o</tspan><tspan x="82.055" y="100.8" font-family="'MyriadPro-Regular'" font-size="12">n</tspan><tspan x="88.667" y="100.8" font-family="'MyriadPro-Regular'" font-size="12">t&gt;true&lt;/</tspan><tspan x="131.579" y="100.8" font-family="'MyriadPro-Regular'" font-size="12">n</tspan><tspan x="138.083" y="100.8" font-family="'MyriadPro-Regular'" font-size="12">yt_embed</tspan><tspan x="189.334" y="100.8" font-family="'MyriadPro-Regular'" font-size="12">F</tspan><tspan x="194.806" y="100.8" font-family="'MyriadPro-Regular'" font-size="12">o</tspan><tspan x="201.395" y="100.8" font-family="'MyriadPro-Regular'" font-size="12">n</tspan><tspan x="208.006" y="100.8" font-family="'MyriadPro-Regular'" font-size="12">t&gt;</tspan><tspan x="0" y="115.2" font-family="'MyriadPro-Regular'" font-size="12">  &lt;</tspan><tspan x="12.24" y="115.2" font-family="'MyriadPro-Regular'" font-size="12">n</tspan><tspan x="18.744" y="115.2" font-family="'MyriadPro-Regular'" font-size="12">yt_t</tspan><tspan x="38.339" y="115.2" font-family="'MyriadPro-Regular'" font-size="12">r</tspan><tspan x="42.312" y="115.2" font-family="'MyriadPro-Regular'" font-size="12">im</tspan><tspan x="55.127" y="115.2" font-family="'MyriadPro-Regular'" font-size="12">E</tspan><tspan x="60.983" y="115.2" font-family="'MyriadPro-Regular'" font-size="12">dges&gt;false&lt;/</tspan><tspan x="126.526" y="115.2" font-family="'MyriadPro-Regular'" font-size="12">n</tspan><tspan x="133.03" y="115.2" font-family="'MyriadPro-Regular'" font-size="12">yt_t</tspan><tspan x="152.626" y="115.2" font-family="'MyriadPro-Regular'" font-size="12">r</tspan><tspan x="156.598" y="115.2" font-family="'MyriadPro-Regular'" font-size="12">im</tspan><tspan x="169.414" y="115.2" font-family="'MyriadPro-Regular'" font-size="12">E</tspan><tspan x="175.27" y="115.2" font-family="'MyriadPro-Regular'" font-size="12">dges&gt;</tspan><tspan x="0" y="129.6" font-family="'MyriadPro-Regular'" font-size="12">  &lt;</tspan><tspan x="12.24" y="129.6" font-family="'MyriadPro-Regular'" font-size="12">n</tspan><tspan x="18.744" y="129.6" font-family="'MyriadPro-Regular'" font-size="12">yt_inner</tspan><tspan x="60.431" y="129.6" font-family="'MyriadPro-Regular'" font-size="12">P</tspan><tspan x="66.503" y="129.6" font-family="'MyriadPro-Regular'" font-size="12">adding&gt;false&lt;/</tspan><tspan x="143.302" y="129.6" font-family="'MyriadPro-Regular'" font-size="12">n</tspan><tspan x="149.806" y="129.6" font-family="'MyriadPro-Regular'" font-size="12">yt_inner</tspan><tspan x="191.494" y="129.6" font-family="'MyriadPro-Regular'" font-size="12">P</tspan><tspan x="197.565" y="129.6" font-family="'MyriadPro-Regular'" font-size="12">adding&gt;</tspan><tspan x="0" y="144" font-family="'MyriadPro-Regular'" font-size="12">  &lt;</tspan><tspan x="12.24" y="144" font-family="'MyriadPro-Regular'" font-size="12">n</tspan><tspan x="18.744" y="144" font-family="'MyriadPro-Regular'" font-size="12">yt_</tspan><tspan x="34.368" y="144" font-family="'MyriadPro-Regular'" font-size="12">f</tspan><tspan x="37.716" y="144" font-family="'MyriadPro-Regular'" font-size="12">o</tspan><tspan x="44.304" y="144" font-family="'MyriadPro-Regular'" font-size="12">r</tspan><tspan x="48.275" y="144" font-family="'MyriadPro-Regular'" font-size="12">m</tspan><tspan x="58.284" y="144" font-family="'MyriadPro-Regular'" font-size="12">a</tspan><tspan x="64.02" y="144" font-family="'MyriadPro-Regular'" font-size="12">t&gt;PNG 24&lt;/</tspan><tspan x="123.298" y="144" font-family="'MyriadPro-Regular'" font-size="12">n</tspan><tspan x="129.803" y="144" font-family="'MyriadPro-Regular'" font-size="12">yt_</tspan><tspan x="145.426" y="144" font-family="'MyriadPro-Regular'" font-size="12">f</tspan><tspan x="148.774" y="144" font-family="'MyriadPro-Regular'" font-size="12">o</tspan><tspan x="155.362" y="144" font-family="'MyriadPro-Regular'" font-size="12">r</tspan><tspan x="159.334" y="144" font-family="'MyriadPro-Regular'" font-size="12">m</tspan><tspan x="169.342" y="144" font-family="'MyriadPro-Regular'" font-size="12">a</tspan><tspan x="175.078" y="144" font-family="'MyriadPro-Regular'" font-size="12">t&gt;</tspan><tspan x="0" y="158.4" font-family="'MyriadPro-Regular'" font-size="12">  &lt;</tspan><tspan x="12.24" y="158.4" font-family="'MyriadPro-Regular'" font-size="12">n</tspan><tspan x="18.744" y="158.4" font-family="'MyriadPro-Regular'" font-size="12">yt_a</tspan><tspan x="40.151" y="158.4" font-family="'MyriadPro-Regular'" font-size="12">r</tspan><tspan x="44.363" y="158.4" font-family="'MyriadPro-Regular'" font-size="12">tboa</tspan><tspan x="67.535" y="158.4" font-family="'MyriadPro-Regular'" font-size="12">r</tspan><tspan x="71.339" y="158.4" font-family="'MyriadPro-Regular'" font-size="12">ds&gt;all&lt;/</tspan><tspan x="112.727" y="158.4" font-family="'MyriadPro-Regular'" font-size="12">n</tspan><tspan x="119.23" y="158.4" font-family="'MyriadPro-Regular'" font-size="12">yt_a</tspan><tspan x="140.638" y="158.4" font-family="'MyriadPro-Regular'" font-size="12">r</tspan><tspan x="144.85" y="158.4" font-family="'MyriadPro-Regular'" font-size="12">tboa</tspan><tspan x="168.021" y="158.4" font-family="'MyriadPro-Regular'" font-size="12">r</tspan><tspan x="171.826" y="158.4" font-family="'MyriadPro-Regular'" font-size="12">ds&gt;</tspan><tspan x="0" y="172.8" font-family="'MyriadPro-Regular'" font-size="12">  &lt;</tspan><tspan x="12.24" y="172.8" font-family="'MyriadPro-Regular'" font-size="12">n</tspan><tspan x="18.744" y="172.8" font-family="'MyriadPro-Regular'" font-size="12">yt_l</tspan><tspan x="37.2" y="172.8" font-family="'MyriadPro-Regular'" font-size="12">a</tspan><tspan x="42.888" y="172.8" font-family="'MyriadPro-Regular'" font-size="12">y</tspan><tspan x="48.419" y="172.8" font-family="'MyriadPro-Regular'" font-size="12">ers&gt;none&lt;/</tspan><tspan x="107.447" y="172.8" font-family="'MyriadPro-Regular'" font-size="12">n</tspan><tspan x="113.951" y="172.8" font-family="'MyriadPro-Regular'" font-size="12">yt_l</tspan><tspan x="132.406" y="172.8" font-family="'MyriadPro-Regular'" font-size="12">a</tspan><tspan x="138.095" y="172.8" font-family="'MyriadPro-Regular'" font-size="12">y</tspan><tspan x="143.626" y="172.8" font-family="'MyriadPro-Regular'" font-size="12">ers&gt;</tspan><tspan x="0" y="187.2" font-family="'MyriadPro-Regular'" font-size="12">  &lt;</tspan><tspan x="12.24" y="187.2" font-family="'MyriadPro-Regular'" font-size="12">n</tspan><tspan x="18.744" y="187.2" font-family="'MyriadPro-Regular'" font-size="12">yt_</tspan><tspan x="34.368" y="187.2" font-family="'MyriadPro-Regular'" font-size="12">e</tspan><tspan x="40.344" y="187.2" font-family="'MyriadPro-Regular'" font-size="12">xpo</tspan><tspan x="59.315" y="187.2" font-family="'MyriadPro-Regular'" font-size="12">r</tspan><tspan x="63.527" y="187.2" font-family="'MyriadPro-Regular'" font-size="12">t</tspan><tspan x="67.499" y="187.2" font-family="'MyriadPro-Regular'" font-size="12">A</tspan><tspan x="74.807" y="187.2" font-family="'MyriadPro-Regular'" font-size="12">r</tspan><tspan x="79.019" y="187.2" font-family="'MyriadPro-Regular'" font-size="12">tboa</tspan><tspan x="102.19" y="187.2" font-family="'MyriadPro-Regular'" font-size="12">r</tspan><tspan x="105.995" y="187.2" font-family="'MyriadPro-Regular'" font-size="12">ds&gt;true&lt;/</tspan><tspan x="156.454" y="187.2" font-family="'MyriadPro-Regular'" font-size="12">n</tspan><tspan x="162.958" y="187.2" font-family="'MyriadPro-Regular'" font-size="12">yt_</tspan><tspan x="178.582" y="187.2" font-family="'MyriadPro-Regular'" font-size="12">e</tspan><tspan x="184.558" y="187.2" font-family="'MyriadPro-Regular'" font-size="12">xpo</tspan><tspan x="203.529" y="187.2" font-family="'MyriadPro-Regular'" font-size="12">r</tspan><tspan x="207.741" y="187.2" font-family="'MyriadPro-Regular'" font-size="12">t</tspan><tspan x="211.713" y="187.2" font-family="'MyriadPro-Regular'" font-size="12">A</tspan><tspan x="219.021" y="187.2" font-family="'MyriadPro-Regular'" font-size="12">r</tspan><tspan x="223.233" y="187.2" font-family="'MyriadPro-Regular'" font-size="12">tboa</tspan><tspan x="246.405" y="187.2" font-family="'MyriadPro-Regular'" font-size="12">r</tspan><tspan x="250.209" y="187.2" font-family="'MyriadPro-Regular'" font-size="12">ds&gt;</tspan><tspan x="0" y="201.6" font-family="'MyriadPro-Regular'" font-size="12">  &lt;</tspan><tspan x="12.24" y="201.6" font-family="'MyriadPro-Regular'" font-size="12">n</tspan><tspan x="18.744" y="201.6" font-family="'MyriadPro-Regular'" font-size="12">yt_i</tspan><tspan x="37.176" y="201.6" font-family="'MyriadPro-Regular'" font-size="12">g</tspan><tspan x="43.812" y="201.6" font-family="'MyriadPro-Regular'" font-size="12">no</tspan><tspan x="57.06" y="201.6" font-family="'MyriadPro-Regular'" font-size="12">r</tspan><tspan x="60.863" y="201.6" font-family="'MyriadPro-Regular'" font-size="12">e</tspan><tspan x="66.875" y="201.6" font-family="'MyriadPro-Regular'" font-size="12">W</tspan><tspan x="76.631" y="201.6" font-family="'MyriadPro-Regular'" font-size="12">a</tspan><tspan x="82.415" y="201.6" font-family="'MyriadPro-Regular'" font-size="12">r</tspan><tspan x="86.387" y="201.6" font-family="'MyriadPro-Regular'" font-size="12">nings&gt;true&lt;/</tspan><tspan x="152.914" y="201.6" font-family="'MyriadPro-Regular'" font-size="12">n</tspan><tspan x="159.418" y="201.6" font-family="'MyriadPro-Regular'" font-size="12">yt_i</tspan><tspan x="177.85" y="201.6" font-family="'MyriadPro-Regular'" font-size="12">g</tspan><tspan x="184.486" y="201.6" font-family="'MyriadPro-Regular'" font-size="12">no</tspan><tspan x="197.733" y="201.6" font-family="'MyriadPro-Regular'" font-size="12">r</tspan><tspan x="201.538" y="201.6" font-family="'MyriadPro-Regular'" font-size="12">e</tspan><tspan x="207.55" y="201.6" font-family="'MyriadPro-Regular'" font-size="12">W</tspan><tspan x="217.306" y="201.6" font-family="'MyriadPro-Regular'" font-size="12">a</tspan><tspan x="223.09" y="201.6" font-family="'MyriadPro-Regular'" font-size="12">r</tspan><tspan x="227.062" y="201.6" font-family="'MyriadPro-Regular'" font-size="12">nings&gt;</tspan><tspan x="0" y="216" font-family="'MyriadPro-Regular'" font-size="12">&lt;/</tspan><tspan x="11.268" y="216" font-family="'MyriadPro-Regular'" font-size="12">n</tspan><tspan x="17.772" y="216" font-family="'MyriadPro-Regular'" font-size="12">yt_p</tspan><tspan x="40.224" y="216" font-family="'MyriadPro-Regular'" font-size="12">r</tspan><tspan x="44.027" y="216" font-family="'MyriadPro-Regular'" font-size="12">e</tspan><tspan x="50.04" y="216" font-family="'MyriadPro-Regular'" font-size="12">f</tspan><tspan x="53.436" y="216" font-family="'MyriadPro-Regular'" font-size="12">s&gt;</tspan></text>
</g>
</svg>
