<svg xmlns="http://www.w3.org/2000/svg" width="24" height="24" viewBox="0 0 24 24"><path fill="#263238" d="M16 12c.553 0 1-.672 1-1.5s-.447-1.5-1-1.5-1 .672-1 1.5.447 1.5 1 1.5zm-8 0c.553 0 1-.672 1-1.5s-.447-1.5-1-1.5-1 .672-1 1.5.447 1.5 1 1.5zm4-12c-6.628 0-12 5.373-12 12s5.372 12 12 12c6.627 0 12-5.373 12-12s-5.373-12-12-12zm0 22c-5.522 0-10-4.478-10-10s4.478-10 10-10 10 4.478 10 10-4.478 10-10 10zm6.482-7.875c-.479-.276-1.09-.112-1.366.366-1.104 1.913-2.907 2.509-5.116 2.509s-4.012-.596-5.116-2.509c-.276-.479-.888-.643-1.366-.366-.478.276-.642.888-.365 1.366 1.656 2.87 3.534 3.509 6.847 3.509s5.191-.639 6.848-3.509c.276-.478.112-1.09-.366-1.366z"/></svg>