<svg xmlns="http://www.w3.org/2000/svg" viewBox="0 0 24 24"><path d="M22.521 9h-2.034c-.105-.296-.228-.589-.366-.877l1.44-1.44c.279-.28.434-.651.434-1.046 0-.396-.154-.767-.434-1.046l-2.15-2.151c-.56-.558-1.534-.558-2.092 0l-1.44 1.44c-.289-.138-.583-.261-.879-.366v-2.035c0-.815-.664-1.479-1.479-1.479h-3.041c-.816 0-1.48.664-1.48 1.479v2.035c-.296.105-.59.228-.878.366l-1.44-1.44c-.558-.558-1.532-.559-2.092 0l-2.15 2.15c-.28.28-.434.651-.434 1.046s.154.766.434 1.046l1.44 1.44c-.139.289-.261.582-.366.878h-2.035c-.815 0-1.479.664-1.479 1.479v3.042c0 .815.664 1.479 1.479 1.479h2.034c.105.295.228.589.366.878l-1.44 1.439c-.279.279-.434.65-.434 1.046s.153.767.434 1.047l2.15 2.15c.56.56 1.536.558 2.092 0l1.44-1.44c.29.139.584.261.879.366v2.034c0 .816.664 1.48 1.479 1.48h3.041c.816 0 1.48-.664 1.48-1.479v-2.034c.295-.105.589-.228.878-.366l1.439 1.44c.558.558 1.533.56 2.093 0l2.15-2.15c.28-.28.434-.651.434-1.047s-.154-.767-.434-1.045l-1.44-1.44c.139-.289.261-.583.366-.878h2.034c.816-.001 1.48-.665 1.48-1.48v-3.042c0-.815-.664-1.479-1.479-1.479zm.479 4.521c0 .264-.215.479-.479.479h-2.396c-.22 0-.413.144-.478.354-.145.468-.339.936-.579 1.389-.103.193-.066.432.089.587l1.696 1.697c.091.09.141.21.141.337 0 .129-.05.249-.141.34l-2.15 2.15c-.182.182-.496.182-.678 0l-1.696-1.696c-.154-.155-.395-.191-.587-.089-.453.24-.921.435-1.389.579-.209.064-.353.257-.353.477v2.396c0 .264-.215.479-.479.479h-3.041c-.265 0-.48-.215-.48-.479v-2.396c0-.22-.144-.413-.354-.478-.468-.145-.936-.339-1.389-.579-.073-.039-.153-.058-.233-.058-.13 0-.258.051-.354.146l-1.696 1.696c-.182.182-.496.182-.678 0l-2.15-2.15c-.091-.091-.141-.211-.141-.34 0-.127.05-.247.141-.338l1.696-1.696c.155-.155.191-.394.089-.587-.24-.453-.435-.921-.579-1.389-.064-.208-.257-.352-.477-.352h-2.396c-.264 0-.479-.215-.479-.479v-3.042c0-.264.215-.479.479-.479h2.396c.22 0 .413-.143.478-.353.145-.47.339-.937.578-1.388.104-.194.067-.433-.088-.588l-1.697-1.696c-.09-.091-.14-.211-.14-.339s.05-.248.141-.339l2.15-2.15c.182-.182.496-.181.678 0l1.696 1.696c.154.155.394.19.588.088.45-.239.918-.434 1.388-.578.209-.064.353-.258.353-.478v-2.396c0-.264.215-.479.479-.479h3.041c.265 0 .48.215.48.479v2.396c0 .22.144.414.354.478.47.145.938.339 1.388.578.194.102.434.067.588-.088l1.696-1.696c.182-.181.496-.181.678 0l2.15 2.151c.091.09.141.21.141.338s-.05.248-.141.339l-1.696 1.696c-.155.155-.191.394-.088.588.239.451.434.918.578 1.388.064.21.257.353.477.353h2.396c.264 0 .479.215.479.479v3.042zM12 5c-3.859 0-7 3.14-7 7 0 3.859 3.141 7 7 7s7-3.141 7-7c0-3.86-3.141-7-7-7zm0 13c-3.309 0-6-2.691-6-6s2.691-6 6-6 6 2.691 6 6-2.691 6-6 6z"/></svg>