<?xml version="1.0" encoding="utf-8"?>
<!-- Generator: Adobe Illustrator 16.0.0, SVG Export Plug-In . SVG Version: 6.00 Build 0)  -->
<!DOCTYPE svg PUBLIC "-//W3C//DTD SVG 1.1//EN" "http://www.w3.org/Graphics/SVG/1.1/DTD/svg11.dtd">
<svg version="1.1" xmlns="http://www.w3.org/2000/svg" xmlns:xlink="http://www.w3.org/1999/xlink" x="0px" y="0px" width="24px"
	 height="24px" viewBox="0 0 24 24" enable-background="new 0 0 24 24" xml:space="preserve">
<g id="Background_xA0_Image_1_">
</g>
<g id="Row_5_1_">
</g>
<g id="Row_4_1_">
	<g id="Cog">
		<g>
			<path fill="#263238" d="M12,7c-2.762,0-5,2.238-5,5s2.238,5,5,5s5-2.238,5-5S14.762,7,12,7z M12,15c-1.657,0-3-1.343-3-3
				s1.343-3,3-3s3,1.343,3,3S13.657,15,12,15z M23,9h-2.523c-0.105-0.299-0.227-0.589-0.361-0.872l1.653-1.654
				c0.391-0.391,0.391-1.023,0-1.414L18.94,2.231c-0.391-0.391-1.023-0.391-1.414,0l-1.654,1.653C15.589,3.75,15.299,3.629,15,3.523
				V1c0-0.553-0.447-1-1-1h-4C9.447,0,9,0.447,9,1v2.523C8.701,3.629,8.411,3.75,8.128,3.885L6.474,2.231
				c-0.391-0.391-1.023-0.391-1.414,0L2.231,5.06c-0.391,0.391-0.391,1.023,0,1.414l1.653,1.654C3.75,8.411,3.629,8.701,3.523,9H1
				c-0.553,0-1,0.447-1,1v4c0,0.553,0.447,1,1,1h2.523c0.105,0.299,0.227,0.589,0.361,0.872l-1.653,1.654
				c-0.391,0.391-0.391,1.023,0,1.414l2.828,2.828c0.391,0.391,1.023,0.391,1.414,0l1.654-1.653C8.411,20.25,8.701,20.371,9,20.477
				V23c0,0.553,0.447,1,1,1h4c0.553,0,1-0.447,1-1v-2.523c0.299-0.105,0.589-0.227,0.872-0.361l1.654,1.653
				c0.391,0.391,1.023,0.391,1.414,0l2.828-2.828c0.391-0.391,0.391-1.023,0-1.414l-1.653-1.654
				c0.135-0.283,0.256-0.573,0.361-0.872H23c0.553,0,1-0.447,1-1v-4C24,9.447,23.553,9,23,9z M22,13h-3.101
				c-0.171,1.182-0.627,2.261-1.311,3.175l2.059,2.059l-1.414,1.414l-2.059-2.059c-0.913,0.684-1.993,1.14-3.175,1.311V22h-2v-3.101
				c-1.182-0.171-2.262-0.627-3.175-1.311l-2.059,2.059l-1.414-1.414l2.059-2.059C5.727,15.261,5.271,14.182,5.101,13H2v-2h3.101
				c0.171-1.182,0.626-2.262,1.311-3.175L4.353,5.767l1.414-1.414l2.059,2.059C8.738,5.728,9.818,5.271,11,5.101V2h2v3.101
				c1.182,0.171,2.262,0.627,3.175,1.311l2.059-2.059l1.414,1.414l-2.059,2.059c0.684,0.913,1.14,1.993,1.311,3.175H22V13z"/>
		</g>
	</g>
</g>
<g id="Row_3_1_">
</g>
<g id="Row_2_1_">
</g>
<g id="Row_1_1_">
</g>
</svg>
