<?xml version="1.0" encoding="utf-8"?>
<!-- Generator: Adobe Illustrator 16.0.0, SVG Export Plug-In . SVG Version: 6.00 Build 0)  -->
<!DOCTYPE svg PUBLIC "-//W3C//DTD SVG 1.1//EN" "http://www.w3.org/Graphics/SVG/1.1/DTD/svg11.dtd">
<svg version="1.1" xmlns="http://www.w3.org/2000/svg" xmlns:xlink="http://www.w3.org/1999/xlink" x="0px" y="0px" width="24px"
	 height="24px" viewBox="0 0 24 24" enable-background="new 0 0 24 24" xml:space="preserve">
<g id="Background_xA0_Image_1_">
</g>
<g id="Row_5_1_">
</g>
<g id="Row_4_1_">
</g>
<g id="Row_3_1_">
	<g id="Smiley">
		<g>
			<path fill="#263238" d="M16,12c0.553,0,1-0.672,1-1.5S16.553,9,16,9s-1,0.672-1,1.5S15.447,12,16,12z M8,12
				c0.553,0,1-0.672,1-1.5S8.553,9,8,9s-1,0.672-1,1.5S7.447,12,8,12z M12,0C5.372,0,0,5.373,0,12s5.372,12,12,12
				c6.627,0,12-5.373,12-12S18.627,0,12,0z M12,22C6.478,22,2,17.522,2,12S6.478,2,12,2s10,4.478,10,10S17.522,22,12,22z
				 M18.482,14.125c-0.479-0.276-1.09-0.112-1.366,0.366C16.012,16.404,14.209,17,12,17s-4.012-0.596-5.116-2.509
				c-0.276-0.479-0.888-0.643-1.366-0.366c-0.478,0.276-0.642,0.888-0.365,1.366C6.809,18.361,8.687,19,12,19
				s5.191-0.639,6.848-3.509C19.124,15.013,18.96,14.401,18.482,14.125z"/>
		</g>
	</g>
</g>
<g id="Row_2_1_">
</g>
<g id="Row_1_1_">
</g>
</svg>
