<?xml version="1.0" encoding="utf-8"?>
<!-- Generator: Adobe Illustrator 18.0.0, SVG Export Plug-In . SVG Version: 6.00 Build 0)  -->
<!DOCTYPE svg PUBLIC "-//W3C//DTD SVG 1.1//EN" "http://www.w3.org/Graphics/SVG/1.1/DTD/svg11.dtd" [
	<!ENTITY ns_extend "http://ns.adobe.com/Extensibility/1.0/">
	<!ENTITY ns_ai "http://ns.adobe.com/AdobeIllustrator/10.0/">
	<!ENTITY ns_graphs "http://ns.adobe.com/Graphs/1.0/">
	<!ENTITY ns_vars "http://ns.adobe.com/Variables/1.0/">
	<!ENTITY ns_imrep "http://ns.adobe.com/ImageReplacement/1.0/">
	<!ENTITY ns_sfw "http://ns.adobe.com/SaveForWeb/1.0/">
	<!ENTITY ns_custom "http://ns.adobe.com/GenericCustomNamespace/1.0/">
	<!ENTITY ns_adobe_xpath "http://ns.adobe.com/XPath/1.0/">
]>
<svg version="1.1" id="icons" xmlns:x="&ns_extend;" xmlns:i="&ns_ai;" xmlns:graph="&ns_graphs;"
	 xmlns="http://www.w3.org/2000/svg" xmlns:xlink="http://www.w3.org/1999/xlink" x="0px" y="0px" viewBox="0 0 24 24"
	 enable-background="new 0 0 24 24" xml:space="preserve">
<metadata>
	<sfw  xmlns="&ns_sfw;">
		<slices></slices>
		<sliceSourceBounds  height="464" width="332.001" x="20.999" y="-419" bottomLeftOrigin="true"></sliceSourceBounds>
		<optimizationSettings>
			<targetSettings  fileFormat="PNG24Format" targetSettingsID="0">
				<PNG24Format  transparency="true" filtered="false" noMatteColor="false" matteColor="#FFFFFF" interlaced="false">
					</PNG24Format>
			</targetSettings>
		</optimizationSettings>
	</sfw>
</metadata>
<path fill="#5B5B5B" d="M22.521,9h-2.034c-0.105-0.296-0.228-0.589-0.366-0.877l1.44-1.44c0.279-0.28,0.434-0.651,0.434-1.046
	c0-0.396-0.154-0.767-0.434-1.046l-2.15-2.151c-0.56-0.558-1.534-0.558-2.092,0l-1.44,1.44C15.59,3.742,15.296,3.619,15,3.514V1.479
	C15,0.664,14.336,0,13.521,0h-3.041C9.664,0,9,0.664,9,1.479v2.035C8.704,3.619,8.41,3.742,8.122,3.88l-1.44-1.44
	c-0.558-0.558-1.532-0.559-2.092,0l-2.15,2.15C2.16,4.87,2.006,5.241,2.006,5.636c0,0.395,0.154,0.766,0.434,1.046l1.44,1.44
	C3.741,8.411,3.619,8.704,3.514,9H1.479C0.664,9,0,9.664,0,10.479v3.042C0,14.336,0.664,15,1.479,15h2.034
	c0.105,0.295,0.228,0.589,0.366,0.878l-1.44,1.439c-0.279,0.279-0.434,0.65-0.434,1.046s0.153,0.767,0.434,1.047l2.15,2.15
	c0.56,0.56,1.536,0.558,2.092,0l1.44-1.44C8.411,20.259,8.705,20.381,9,20.486v2.034C9,23.336,9.664,24,10.479,24h3.041
	C14.336,24,15,23.336,15,22.521v-2.034c0.295-0.105,0.589-0.228,0.878-0.366l1.439,1.44c0.558,0.558,1.533,0.56,2.093,0l2.15-2.15
	c0.28-0.28,0.434-0.651,0.434-1.047s-0.154-0.767-0.434-1.045l-1.44-1.44c0.139-0.289,0.261-0.583,0.366-0.878h2.034
	C23.336,15,24,14.336,24,13.521v-3.042C24,9.664,23.336,9,22.521,9z M23,13.521C23,13.785,22.785,14,22.521,14h-2.396
	c-0.22,0-0.413,0.144-0.478,0.354c-0.145,0.468-0.339,0.936-0.579,1.389c-0.103,0.193-0.066,0.432,0.089,0.587l1.696,1.697
	c0.091,0.09,0.141,0.21,0.141,0.337c0,0.129-0.05,0.249-0.141,0.34l-2.15,2.15c-0.182,0.182-0.496,0.182-0.678,0l-1.696-1.696
	c-0.154-0.155-0.395-0.191-0.587-0.089c-0.453,0.24-0.921,0.435-1.389,0.579C14.144,19.712,14,19.905,14,20.125v2.396
	C14,22.785,13.785,23,13.521,23h-3.041C10.215,23,10,22.785,10,22.521v-2.396c0-0.22-0.144-0.413-0.354-0.478
	c-0.468-0.145-0.936-0.339-1.389-0.579c-0.073-0.039-0.153-0.058-0.233-0.058c-0.13,0-0.258,0.051-0.354,0.146l-1.696,1.696
	c-0.182,0.182-0.496,0.182-0.678,0l-2.15-2.15c-0.091-0.091-0.141-0.211-0.141-0.34c0-0.127,0.05-0.247,0.141-0.338l1.696-1.696
	c0.155-0.155,0.191-0.394,0.089-0.587c-0.24-0.453-0.435-0.921-0.579-1.389C4.288,14.144,4.095,14,3.875,14H1.479
	C1.215,14,1,13.785,1,13.521v-3.042C1,10.215,1.215,10,1.479,10h2.396c0.22,0,0.413-0.143,0.478-0.353
	c0.145-0.47,0.339-0.937,0.578-1.388c0.104-0.194,0.067-0.433-0.088-0.588L3.146,5.975C3.056,5.884,3.006,5.764,3.006,5.636
	s0.05-0.248,0.141-0.339l2.15-2.15c0.182-0.182,0.496-0.181,0.678,0l1.696,1.696c0.154,0.155,0.394,0.19,0.588,0.088
	c0.45-0.239,0.918-0.434,1.388-0.578C9.856,4.289,10,4.095,10,3.875V1.479C10,1.215,10.215,1,10.479,1h3.041
	C13.785,1,14,1.215,14,1.479v2.396c0,0.22,0.144,0.414,0.354,0.478c0.47,0.145,0.938,0.339,1.388,0.578
	c0.194,0.102,0.434,0.067,0.588-0.088l1.696-1.696c0.182-0.181,0.496-0.181,0.678,0l2.15,2.151c0.091,0.09,0.141,0.21,0.141,0.338
	s-0.05,0.248-0.141,0.339l-1.696,1.696c-0.155,0.155-0.191,0.394-0.088,0.588c0.239,0.451,0.434,0.918,0.578,1.388
	C19.712,9.857,19.905,10,20.125,10h2.396C22.785,10,23,10.215,23,10.479V13.521z"/>
<path fill="#5B5B5B" d="M12,5c-3.859,0-7,3.14-7,7c0,3.859,3.141,7,7,7s7-3.141,7-7C19,8.14,15.859,5,12,5z M12,18
	c-3.309,0-6-2.691-6-6s2.691-6,6-6s6,2.691,6,6S15.309,18,12,18z"/>
</svg>
