<?xml version="1.0" encoding="utf-8"?>
<!-- Generator: Adobe Illustrator 21.0.0, SVG Export Plug-In . SVG Version: 6.00 Build 0)  -->
<svg version="1.1" id="Layer_1" xmlns="http://www.w3.org/2000/svg" xmlns:xlink="http://www.w3.org/1999/xlink" x="0px" y="0px"
	 viewBox="0 0 594.8 181.1" style="enable-background:new 0 0 594.8 181.1;" xml:space="preserve">
<style type="text/css">
	.st0{fill:#BBBABA;}
</style>
<g>
	<g>
		<path class="st0" d="M51.5,123.3c-3.1-2-6.4-3.5-9.7-4.6c-3.4-1.1-6.9-1.6-10.6-1.6c-2.4,0-4.6,0.3-6.6,0.8
			c-2,0.5-3.7,1.2-5.2,2.2c-1.4,1-2.5,2.1-3.3,3.4c-0.8,1.3-1.2,2.8-1.2,4.5c0,1.5,0.3,2.8,1,3.9s1.7,2,3,2.7
			c1.3,0.7,2.9,1.4,4.7,1.8c1.9,0.5,4,0.9,6.3,1.2l5,0.7c2.9,0.4,5.8,1.1,8.6,1.9c2.8,0.9,5.3,2.1,7.5,3.6c2.2,1.6,4,3.5,5.3,5.9
			c1.3,2.3,2,5.2,2,8.6c0,3.7-0.8,7-2.3,9.8c-1.6,2.8-3.7,5.2-6.3,7.1c-2.7,1.9-5.7,3.4-9.3,4.4c-3.5,1-7.2,1.5-11.2,1.5
			c-2.5,0-5-0.2-7.6-0.6c-2.6-0.4-5.3-1-7.8-1.8c-2.6-0.8-5-1.8-7.4-3C4,174.4,1.9,173,0,171.3l6.4-9.3c1.2,1.1,2.7,2.2,4.5,3.2
			c1.7,1,3.6,1.8,5.6,2.5c2,0.7,4.1,1.3,6.2,1.7c2.2,0.4,4.3,0.6,6.4,0.6c2.4,0,4.6-0.2,6.7-0.7c2.1-0.5,3.8-1.2,5.4-2.1
			c1.5-0.9,2.7-2.1,3.6-3.4c0.9-1.3,1.3-2.8,1.3-4.5c0-2.8-1.4-5-4.2-6.5c-2.8-1.5-6.8-2.6-12.2-3.3l-5.6-0.8
			c-2.7-0.4-5.3-1-7.9-1.9c-2.6-0.9-4.9-2.1-6.9-3.7c-2-1.6-3.6-3.5-4.9-5.9c-1.2-2.4-1.8-5.2-1.8-8.6c0-3.6,0.8-6.8,2.3-9.7
			c1.5-2.8,3.5-5.2,6.1-7.1c2.6-1.9,5.6-3.4,9.1-4.4c3.5-1,7.2-1.5,11.1-1.5c5.3,0,10.1,0.7,14.3,2.1c4.3,1.4,8.2,3.3,11.9,5.7
			L51.5,123.3z M91,128.8c3.5,0,6.6,0.6,9.5,1.9c2.9,1.3,5.4,3,7.4,5.3c2.1,2.3,3.7,5,4.8,8.2c1.2,3.2,1.7,6.7,1.7,10.6
			c0,0.7,0,1.4-0.1,2.1c0,0.7-0.1,1.3-0.2,2H77.6c0.3,2.2,1,4.2,1.9,5.8c0.9,1.6,2.1,2.9,3.4,3.9c1.3,1,2.8,1.8,4.4,2.3
			c1.6,0.5,3.3,0.7,5.1,0.7c2.5,0,5-0.5,7.5-1.4c2.5-0.9,4.8-2.2,6.9-3.9l5.4,7.7c-3,2.6-6.3,4.4-9.7,5.4c-3.4,1-7,1.6-10.8,1.6
			c-3.7,0-7.2-0.6-10.3-1.9c-3.1-1.2-5.8-3-8-5.3c-2.2-2.3-4-5-5.2-8.2c-1.2-3.2-1.9-6.8-1.9-10.7c0-3.9,0.6-7.4,1.8-10.6
			c1.2-3.2,2.9-6,5.1-8.3c2.2-2.3,4.8-4.1,7.8-5.3C84,129.5,87.3,128.8,91,128.8z M90.8,138.5c-1.9,0-3.7,0.3-5.2,0.9
			c-1.5,0.6-2.8,1.4-3.9,2.5c-1.1,1.1-2,2.4-2.7,3.9c-0.7,1.5-1.2,3.2-1.5,4.9h25.8c-0.6-3.9-2-6.9-4.1-9
			C97.1,139.6,94.3,138.5,90.8,138.5z M148.4,128.8c3.7,0,7.2,0.7,10.4,2c3.2,1.3,5.9,3.3,8.1,5.9l-6.9,7.4
			c-1.8-1.7-3.6-2.9-5.5-3.8c-1.9-0.9-4-1.3-6.4-1.3c-2.1,0-4,0.4-5.8,1.2c-1.8,0.8-3.4,1.9-4.7,3.3c-1.3,1.4-2.3,3.1-3.1,5
			c-0.7,2-1.1,4.1-1.1,6.5s0.4,4.5,1.1,6.5c0.7,2,1.8,3.6,3.1,5c1.3,1.4,2.9,2.5,4.7,3.3c1.8,0.8,3.7,1.2,5.8,1.2
			c2.4,0,4.6-0.5,6.7-1.5c2.1-1,3.9-2.2,5.5-3.7l6.7,7.5c-2.3,2.6-5,4.6-8.2,5.9s-6.6,2-10.4,2c-3.9,0-7.5-0.7-10.7-2
			c-3.2-1.3-6-3.2-8.2-5.5c-2.3-2.3-4-5.1-5.3-8.3c-1.2-3.2-1.9-6.6-1.9-10.4c0-3.7,0.6-7.2,1.9-10.4c1.2-3.2,3-5.9,5.3-8.3
			c2.3-2.3,5-4.2,8.2-5.5C140.9,129.5,144.4,128.8,148.4,128.8z M222.5,158.7c0,3.9-0.7,7.3-2,10.2c-1.3,2.8-3,5.2-5.2,6.9
			c-2.1,1.8-4.6,3.1-7.4,4c-2.8,0.8-5.6,1.3-8.5,1.3c-2.9,0-5.7-0.4-8.5-1.3c-2.8-0.8-5.2-2.2-7.4-4c-2.2-1.8-3.9-4.1-5.2-6.9
			c-1.3-2.8-1.9-6.2-1.9-10.2v-28.6h10.9v27.6c0,2.4,0.3,4.4,0.9,6.1c0.6,1.7,1.5,3,2.6,4.1c1.1,1,2.4,1.8,3.9,2.3
			c1.5,0.5,3.1,0.7,4.8,0.7c1.7,0,3.3-0.2,4.8-0.7c1.5-0.5,2.8-1.2,3.9-2.3c1.1-1,1.9-2.4,2.6-4.1c0.6-1.7,0.9-3.7,0.9-6.1v-27.6
			h10.9L222.5,158.7L222.5,158.7z M262,128.8c1.7,0,3.2,0.1,4.5,0.3c1.3,0.2,2.6,0.6,3.9,1.1l-2.6,10.7c-1.1-0.6-2.5-1-4-1.4
			c-1.5-0.3-2.9-0.5-4.3-0.5c-1.7,0-3.3,0.3-4.8,0.9c-1.5,0.6-2.7,1.5-3.7,2.6c-1,1.1-1.8,2.5-2.4,4.2c-0.6,1.7-0.9,3.5-0.9,5.7
			v27.3h-10.8v-49.6h10.7v5.6c1.7-2.4,3.7-4.1,6.2-5.2C256.3,129.4,259,128.8,262,128.8z M298.4,128.8c3.5,0,6.6,0.6,9.5,1.9
			c2.9,1.3,5.4,3,7.4,5.3c2.1,2.3,3.7,5,4.8,8.2c1.2,3.2,1.7,6.7,1.7,10.6c0,0.7,0,1.4,0,2.1c0,0.7-0.1,1.3-0.2,2H285
			c0.3,2.2,1,4.2,1.9,5.8c0.9,1.6,2.1,2.9,3.4,3.9c1.3,1,2.8,1.8,4.4,2.3c1.6,0.5,3.3,0.7,5.1,0.7c2.5,0,5-0.5,7.5-1.4
			c2.5-0.9,4.8-2.2,6.9-3.9l5.4,7.7c-3,2.6-6.3,4.4-9.7,5.4c-3.4,1-7,1.6-10.8,1.6c-3.7,0-7.2-0.6-10.3-1.9c-3.1-1.2-5.8-3-8-5.3
			c-2.2-2.3-4-5-5.2-8.2c-1.2-3.2-1.9-6.8-1.9-10.7c0-3.9,0.6-7.4,1.8-10.6c1.2-3.2,2.9-6,5.1-8.3c2.2-2.3,4.8-4.1,7.8-5.3
			C291.4,129.5,294.8,128.8,298.4,128.8z M298.2,138.5c-1.9,0-3.7,0.3-5.2,0.9c-1.5,0.6-2.8,1.4-3.9,2.5c-1.1,1.1-2,2.4-2.7,3.9
			c-0.7,1.5-1.2,3.2-1.5,4.9h25.8c-0.6-3.9-2-6.9-4.1-9C304.5,139.6,301.7,138.5,298.2,138.5z M368.6,105.9c3.2,0,6.3,0.3,9.3,1
			c3,0.7,5.8,1.7,8.4,3c2.6,1.3,4.9,2.9,7,4.8c2.1,1.9,3.9,4,5.3,6.3l-9.8,6.5c-2.2-3.2-5.1-5.8-8.5-7.7c-3.5-1.9-7.4-2.8-11.7-2.8
			c-3.7,0-7.1,0.6-10.3,1.9c-3.1,1.3-5.9,3.1-8.1,5.4c-2.3,2.3-4.1,5.1-5.4,8.3c-1.3,3.2-1.9,6.8-1.9,10.7s0.6,7.5,1.9,10.7
			c1.3,3.2,3.1,6,5.4,8.3c2.3,2.3,5,4.1,8.1,5.4c3.1,1.3,6.6,1.9,10.3,1.9c4.3,0,8.2-0.9,11.6-2.7c3.4-1.8,6.3-4.4,8.6-7.7l9.5,7
			c-1.6,2.3-3.4,4.3-5.5,6.1c-2.1,1.8-4.4,3.3-6.9,4.6c-2.5,1.3-5.3,2.3-8.2,2.9c-2.9,0.7-6,1-9.1,1c-5.6,0-10.7-0.9-15.3-2.8
			c-4.7-1.9-8.7-4.5-12-7.8c-3.4-3.4-6-7.3-7.8-11.9c-1.9-4.6-2.8-9.6-2.8-15s0.9-10.4,2.8-15c1.9-4.6,4.5-8.6,7.8-11.9
			c3.4-3.3,7.4-6,12-7.8C358,106.8,363.1,105.9,368.6,105.9z M432.7,128.8c3.8,0,7.4,0.7,10.6,2c3.3,1.3,6.1,3.2,8.5,5.5
			c2.4,2.3,4.3,5.1,5.6,8.3c1.3,3.2,2,6.6,2,10.4c0,3.7-0.7,7.2-2,10.4c-1.4,3.2-3.2,5.9-5.6,8.3c-2.4,2.3-5.2,4.2-8.5,5.5
			c-3.3,1.3-6.8,2-10.6,2c-3.8,0-7.4-0.7-10.7-2c-3.3-1.3-6.1-3.2-8.4-5.5c-2.4-2.3-4.2-5.1-5.6-8.3c-1.3-3.2-2-6.6-2-10.4
			c0-3.7,0.7-7.2,2-10.4c1.4-3.2,3.2-5.9,5.6-8.3c2.4-2.3,5.2-4.2,8.4-5.5C425.3,129.5,428.8,128.8,432.7,128.8z M432.7,139.1
			c-2.2,0-4.3,0.4-6.2,1.2c-1.9,0.8-3.5,1.9-4.9,3.3c-1.4,1.4-2.5,3.1-3.3,5c-0.8,2-1.2,4.1-1.2,6.5s0.4,4.5,1.2,6.5
			c0.8,2,1.9,3.6,3.3,5c1.4,1.4,3,2.5,4.9,3.3c1.9,0.8,4,1.2,6.2,1.2c2.2,0,4.3-0.4,6.2-1.2c1.9-0.8,3.6-1.9,4.9-3.3
			c1.4-1.4,2.5-3.1,3.3-5c0.8-2,1.2-4.1,1.2-6.5s-0.4-4.5-1.2-6.5c-0.8-1.9-1.9-3.6-3.3-5c-1.4-1.4-3.1-2.5-4.9-3.3
			C436.9,139.4,434.9,139.1,432.7,139.1z M492,128.8c3.6,0,6.6,0.7,9.2,2c2.6,1.3,4.7,3.1,6.4,5.3v-31h10.8v74.6h-10.8v-6
			c-1.7,2.2-3.9,4-6.4,5.3c-2.6,1.3-5.6,2-9.2,2c-3.5,0-6.7-0.6-9.7-1.9c-3-1.3-5.6-3.1-7.9-5.4c-2.2-2.3-4-5.1-5.3-8.3
			c-1.3-3.2-1.9-6.7-1.9-10.5s0.6-7.3,1.9-10.5c1.3-3.2,3-6,5.3-8.3c2.2-2.3,4.9-4.1,7.9-5.4C485.3,129.5,488.5,128.8,492,128.8z
			 M493.3,139.1c-2.4,0-4.4,0.4-6.3,1.3c-1.8,0.9-3.4,2-4.7,3.4c-1.3,1.4-2.3,3.1-3,5.1c-0.7,1.9-1,4-1,6.2c0,2.2,0.3,4.2,1,6.2
			c0.7,1.9,1.7,3.6,3,5.1c1.3,1.4,2.8,2.6,4.7,3.4c1.9,0.8,3.9,1.3,6.3,1.3c2.2,0,4.3-0.4,6.1-1.2c1.8-0.8,3.4-1.9,4.7-3.3
			c1.3-1.4,2.3-3.1,3.1-5c0.7-1.9,1.1-4,1.1-6.3c0-2.3-0.4-4.4-1.1-6.3c-0.7-1.9-1.7-3.6-3.1-5c-1.3-1.4-2.9-2.5-4.7-3.3
			C497.6,139.5,495.5,139.1,493.3,139.1z M554.5,128.8c3.5,0,6.6,0.6,9.5,1.9c2.9,1.3,5.4,3,7.4,5.3c2.1,2.3,3.7,5,4.8,8.2
			c1.2,3.2,1.7,6.7,1.7,10.6c0,0.7,0,1.4-0.1,2.1c0,0.7-0.1,1.3-0.2,2h-36.7c0.3,2.2,1,4.2,1.9,5.8c0.9,1.6,2.1,2.9,3.4,3.9
			c1.3,1,2.8,1.8,4.4,2.3c1.6,0.5,3.3,0.7,5.1,0.7c2.5,0,5-0.5,7.5-1.4c2.5-0.9,4.8-2.2,6.9-3.9l5.4,7.7c-3,2.6-6.3,4.4-9.7,5.4
			c-3.4,1-7,1.6-10.8,1.6c-3.7,0-7.2-0.6-10.3-1.9c-3.1-1.2-5.8-3-8-5.3c-2.2-2.3-4-5-5.2-8.2c-1.2-3.2-1.9-6.8-1.9-10.7
			c0-3.9,0.6-7.4,1.8-10.6c1.2-3.2,2.9-6,5.1-8.3c2.2-2.3,4.8-4.1,7.8-5.3C547.5,129.5,550.8,128.8,554.5,128.8z M583.2,179.8v-2.5
			h1v-0.5h-2.6v0.5h1v2.5H583.2z M588.1,179.8v-3h-0.8l-0.9,2.1l-0.9-2.1h-0.8v3h0.6v-2.3l0.8,2h0.6l0.8-2v2.3L588.1,179.8
			L588.1,179.8z M554.3,138.5c-1.9,0-3.7,0.3-5.2,0.9c-1.5,0.6-2.8,1.4-3.9,2.5c-1.1,1.1-2,2.4-2.7,3.9c-0.7,1.5-1.2,3.2-1.5,4.9
			h25.8c-0.6-3.9-2-6.9-4.1-9C560.6,139.6,557.8,138.5,554.3,138.5z"/>
		<path class="st0" d="M87.1,77.4H75V15.5L53,70H40.2l-22-54v61.3H6.1V2.2h18.7l21.9,53.8L68.5,2.2h18.7V77.4z M151.1,77.4h-11.2
			v-6.2c-1.8,2.3-4,4.1-6.7,5.5c-2.7,1.4-5.8,2-9.5,2c-3.6,0-7-0.7-10.1-2c-3.1-1.3-5.8-3.2-8.2-5.6c-2.3-2.4-4.2-5.3-5.5-8.6
			c-1.3-3.3-2-6.9-2-10.9c0-3.9,0.7-7.6,2-10.9c1.3-3.3,3.2-6.2,5.5-8.6c2.3-2.4,5.1-4.3,8.2-5.6c3.1-1.3,6.5-2,10.1-2
			c3.7,0,6.9,0.7,9.5,2.1c2.7,1.4,4.9,3.2,6.7,5.5v-6.2h11.2V77.4z M125,35.2c-2.4,0-4.6,0.4-6.5,1.3c-1.9,0.9-3.5,2.1-4.9,3.5
			c-1.3,1.5-2.3,3.2-3.1,5.2c-0.7,2-1.1,4.1-1.1,6.4c0,2.3,0.4,4.4,1.1,6.4c0.7,2,1.7,3.8,3.1,5.2c1.3,1.5,2.9,2.7,4.9,3.5
			c1.9,0.9,4.1,1.3,6.5,1.3c2.3,0,4.4-0.4,6.3-1.3s3.5-2,4.9-3.5c1.4-1.5,2.4-3.2,3.2-5.2c0.8-2,1.1-4.2,1.1-6.6
			c0-2.4-0.4-4.6-1.1-6.6c-0.8-2-1.8-3.7-3.2-5.2c-1.4-1.5-3-2.6-4.9-3.5C129.5,35.6,127.4,35.2,125,35.2z M202.7,38.8
			c-0.8-0.5-1.8-1-2.9-1.5c-1.1-0.5-2.4-1-3.8-1.4c-1.4-0.4-2.9-0.8-4.4-1.1c-1.6-0.3-3.1-0.4-4.8-0.4c-3.1,0-5.5,0.6-7.2,1.7
			c-1.7,1.1-2.6,2.6-2.6,4.4c0,0.9,0.2,1.6,0.7,2.3c0.5,0.6,1.1,1.1,1.8,1.5c0.8,0.4,1.6,0.7,2.7,0.9c1,0.2,2.2,0.4,3.3,0.6l5.3,0.8
			c5.6,0.8,10,2.5,13.2,4.9c3.2,2.5,4.7,5.9,4.7,10.3c0,2.5-0.5,4.7-1.6,6.8c-1.1,2.1-2.6,3.8-4.6,5.3c-2,1.5-4.4,2.6-7.4,3.5
			c-2.9,0.8-6.2,1.2-9.9,1.2c-1.3,0-2.9-0.1-4.6-0.2c-1.8-0.2-3.6-0.5-5.6-1c-2-0.5-4-1.2-6-2c-2-0.9-4-2-5.9-3.4l5.2-8.4
			c0.9,0.7,1.9,1.4,3,2c1.1,0.6,2.3,1.2,3.7,1.7c1.4,0.5,2.9,0.9,4.6,1.2c1.7,0.3,3.6,0.4,5.7,0.4c3.9,0,6.8-0.6,8.8-1.7
			c2-1.1,3-2.7,3-4.6c0-1.5-0.7-2.7-2.2-3.6c-1.4-0.9-3.7-1.6-6.8-2.1l-5.4-0.7c-5.7-0.8-10.1-2.5-13-5c-3-2.6-4.4-5.9-4.4-10.1
			c0-2.5,0.5-4.8,1.5-6.9c1-2,2.4-3.8,4.2-5.2c1.8-1.4,4.1-2.5,6.7-3.3c2.6-0.8,5.6-1.2,8.9-1.2c4.1,0,7.9,0.5,11.5,1.4
			c3.6,0.9,6.7,2.3,9.4,4L202.7,38.8z M256,36.1h-19.7v22.4c0,1.7,0.2,3.2,0.6,4.4c0.4,1.2,1,2.2,1.7,3c0.7,0.8,1.6,1.3,2.6,1.7
			c1,0.4,2.1,0.5,3.2,0.5c1.8,0,3.5-0.3,5.3-1c1.8-0.7,3.5-1.5,5-2.5l4.5,9c-2.1,1.4-4.4,2.6-7,3.6c-2.6,1-5.5,1.5-8.8,1.5
			c-5.8,0-10.4-1.6-13.6-4.9c-3.2-3.2-4.9-8.3-4.9-15.1V36.1h-10.3V25.9H225V10.3h11.3v15.6H256V36.1z M290.6,24.6
			c3.6,0,6.9,0.7,9.9,2c3,1.3,5.6,3.2,7.7,5.5c2.1,2.4,3.8,5.2,5,8.5c1.2,3.3,1.8,7,1.8,11c0,0.7,0,1.4-0.1,2.2c0,0.7-0.1,1.4-0.2,2
			h-38.1c0.4,2.3,1,4.3,2,6c1,1.6,2.1,3,3.5,4.1c1.4,1.1,2.9,1.8,4.6,2.3c1.7,0.5,3.4,0.8,5.3,0.8c2.6,0,5.2-0.5,7.8-1.4
			c2.6-0.9,5-2.3,7.1-4l5.6,8c-3.2,2.7-6.5,4.6-10,5.6c-3.5,1.1-7.3,1.6-11.2,1.6c-3.9,0-7.4-0.6-10.6-1.9c-3.2-1.3-6-3.1-8.3-5.5
			c-2.3-2.4-4.1-5.2-5.4-8.5c-1.3-3.3-1.9-7-1.9-11.1c0-4,0.6-7.7,1.9-11c1.3-3.3,3-6.2,5.3-8.6c2.3-2.4,5-4.2,8.1-5.5
			C283.3,25.2,286.8,24.6,290.6,24.6z M290.4,34.6c-2,0-3.8,0.3-5.4,0.9c-1.6,0.6-2.9,1.5-4,2.6c-1.1,1.1-2.1,2.5-2.8,4
			c-0.7,1.6-1.2,3.3-1.5,5.1h26.7c-0.6-4-2-7.1-4.3-9.4C296.9,35.7,294,34.6,290.4,34.6z M353.9,24.6c1.7,0,3.3,0.1,4.6,0.4
			c1.4,0.2,2.7,0.6,4,1.1l-2.7,11.1c-1.2-0.6-2.6-1.1-4.1-1.4c-1.6-0.3-3-0.5-4.4-0.5c-1.8,0-3.4,0.3-4.9,0.9
			c-1.5,0.6-2.8,1.5-3.9,2.7c-1.1,1.2-1.9,2.6-2.5,4.4c-0.6,1.7-0.9,3.7-0.9,5.9v28.3h-11.2V25.9h11.1v5.8c1.7-2.5,3.9-4.3,6.4-5.4
			C347.9,25.1,350.7,24.6,353.9,24.6z M392.3,24.6c3.9,0,7.5,0.7,10.8,2.1c3.3,1.4,6.1,3.4,8.4,6.2l-7.2,7.7c-1.8-1.7-3.7-3-5.7-4
			c-2-0.9-4.2-1.4-6.7-1.4c-2.1,0-4.2,0.4-6,1.2c-1.9,0.8-3.5,1.9-4.8,3.4c-1.4,1.5-2.4,3.2-3.2,5.2c-0.8,2-1.2,4.3-1.2,6.7
			c0,2.4,0.4,4.7,1.2,6.7c0.8,2,1.8,3.8,3.2,5.2c1.4,1.5,3,2.6,4.8,3.4c1.9,0.8,3.9,1.2,6,1.2c2.5,0,4.8-0.5,6.9-1.5
			c2.1-1,4.1-2.3,5.7-3.8l6.9,7.7c-2.4,2.7-5.2,4.8-8.5,6.2c-3.3,1.4-6.9,2.1-10.8,2.1c-4.1,0-7.8-0.7-11.1-2.1
			c-3.3-1.4-6.2-3.3-8.5-5.7c-2.4-2.4-4.2-5.3-5.5-8.6c-1.3-3.3-1.9-6.9-1.9-10.8c0-3.9,0.6-7.5,1.9-10.8c1.3-3.3,3.1-6.2,5.5-8.6
			c2.4-2.4,5.2-4.3,8.5-5.7C384.5,25.3,388.2,24.6,392.3,24.6z M471.4,77.4h-11.2v-6.2c-1.8,2.3-4,4.1-6.7,5.5c-2.7,1.4-5.8,2-9.5,2
			c-3.6,0-7-0.7-10.1-2c-3.1-1.3-5.8-3.2-8.2-5.6c-2.3-2.4-4.2-5.3-5.5-8.6c-1.3-3.3-2-6.9-2-10.9c0-3.9,0.7-7.6,2-10.9
			c1.3-3.3,3.2-6.2,5.5-8.6c2.3-2.4,5.1-4.3,8.2-5.6c3.1-1.3,6.5-2,10.1-2c3.7,0,6.9,0.7,9.5,2.1c2.6,1.4,4.9,3.2,6.7,5.5v-6.2h11.2
			V77.4z M445.4,35.2c-2.4,0-4.6,0.4-6.5,1.3c-1.9,0.9-3.5,2.1-4.9,3.5c-1.3,1.5-2.4,3.2-3.1,5.2c-0.7,2-1.1,4.1-1.1,6.4
			c0,2.3,0.4,4.4,1.1,6.4c0.7,2,1.7,3.8,3.1,5.2c1.3,1.5,2.9,2.7,4.9,3.5c1.9,0.9,4.1,1.3,6.5,1.3c2.3,0,4.4-0.4,6.3-1.3
			c1.9-0.8,3.5-2,4.9-3.5c1.4-1.5,2.4-3.2,3.2-5.2c0.8-2,1.1-4.2,1.1-6.6c0-2.4-0.4-4.6-1.1-6.6c-0.8-2-1.8-3.7-3.2-5.2
			c-1.4-1.5-3-2.6-4.9-3.5C449.8,35.6,447.7,35.2,445.4,35.2z M514.1,24.6c1.7,0,3.3,0.1,4.7,0.4c1.4,0.2,2.7,0.6,4,1.1L520,37.1
			c-1.2-0.6-2.6-1.1-4.1-1.4c-1.6-0.3-3.1-0.5-4.4-0.5c-1.8,0-3.4,0.3-4.9,0.9c-1.5,0.6-2.8,1.5-3.9,2.7c-1.1,1.2-1.9,2.6-2.5,4.4
			c-0.6,1.7-0.9,3.7-0.9,5.9v28.3H488V25.9h11.1v5.8c1.7-2.5,3.9-4.3,6.4-5.4C508.1,25.1,510.9,24.6,514.1,24.6z M551,24.6
			c3.7,0,6.9,0.7,9.5,2.1c2.7,1.4,4.9,3.2,6.7,5.5V0h11.2v77.4h-11.2v-6.2c-1.8,2.3-4,4.1-6.7,5.5c-2.7,1.4-5.8,2-9.5,2
			c-3.6,0-7-0.7-10.1-2c-3.1-1.3-5.8-3.2-8.2-5.6c-2.3-2.4-4.2-5.3-5.5-8.6c-1.3-3.3-2-6.9-2-10.9c0-3.9,0.7-7.6,2-10.9
			c1.3-3.3,3.2-6.2,5.5-8.6c2.3-2.4,5.1-4.3,8.2-5.6C544,25.2,547.3,24.6,551,24.6z M591.5,72.7c0.5,0,0.9,0.1,1.3,0.3
			c0.4,0.2,0.8,0.4,1.1,0.7c0.3,0.3,0.5,0.6,0.7,1c0.2,0.4,0.3,0.8,0.3,1.3c0,0.4-0.1,0.9-0.3,1.3c-0.2,0.4-0.4,0.7-0.7,1
			s-0.7,0.5-1.1,0.7c-0.4,0.2-0.8,0.3-1.3,0.3c-0.5,0-0.9-0.1-1.3-0.3c-0.4-0.2-0.8-0.4-1.1-0.7s-0.5-0.6-0.7-1
			c-0.2-0.4-0.3-0.8-0.3-1.3c0-0.4,0.1-0.9,0.3-1.3c0.2-0.4,0.4-0.7,0.7-1c0.3-0.3,0.7-0.5,1.1-0.7C590.6,72.7,591,72.7,591.5,72.7z
			 M591.5,78.5c0.4,0,0.7-0.1,1-0.2c0.3-0.1,0.6-0.3,0.8-0.5c0.2-0.2,0.4-0.5,0.5-0.8c0.1-0.3,0.2-0.6,0.2-1c0-0.4-0.1-0.7-0.2-1
			c-0.1-0.3-0.3-0.6-0.5-0.8c-0.2-0.2-0.5-0.4-0.8-0.5c-0.3-0.1-0.6-0.2-1-0.2c-0.4,0-0.7,0.1-1,0.2c-0.3,0.1-0.6,0.3-0.8,0.5
			c-0.2,0.2-0.4,0.5-0.5,0.8c-0.1,0.3-0.2,0.6-0.2,1c0,0.4,0.1,0.7,0.2,1c0.1,0.3,0.3,0.6,0.5,0.8c0.2,0.2,0.5,0.4,0.8,0.5
			C590.8,78.4,591.1,78.5,591.5,78.5z M591.7,74.4c0.4,0,0.7,0.1,0.9,0.3c0.2,0.2,0.3,0.4,0.3,0.7c0,0.3-0.1,0.5-0.3,0.6
			c-0.2,0.2-0.4,0.3-0.7,0.3l1,1.1h-0.8l-0.9-1.1h-0.3v1.1h-0.7v-3C590.3,74.4,591.7,74.4,591.7,74.4z M590.9,75v0.8h0.7
			c0.2,0,0.3,0,0.4-0.1c0.1-0.1,0.2-0.2,0.2-0.3c0-0.1-0.1-0.2-0.2-0.3c-0.1-0.1-0.2-0.1-0.4-0.1H590.9z M552.3,35.2
			c-2.4,0-4.6,0.4-6.5,1.3c-1.9,0.9-3.5,2.1-4.9,3.5c-1.3,1.5-2.3,3.2-3.1,5.2c-0.7,2-1.1,4.1-1.1,6.4c0,2.3,0.4,4.4,1.1,6.4
			c0.7,2,1.7,3.8,3.1,5.2c1.3,1.5,2.9,2.7,4.9,3.5c1.9,0.9,4.1,1.3,6.5,1.3c2.3,0,4.4-0.4,6.3-1.3c1.9-0.8,3.5-2,4.9-3.5
			c1.4-1.5,2.4-3.2,3.2-5.2c0.8-2,1.1-4.2,1.1-6.6c0-2.4-0.4-4.6-1.1-6.6c-0.8-2-1.8-3.7-3.2-5.2c-1.4-1.5-3-2.6-4.9-3.5
			C556.7,35.6,554.6,35.2,552.3,35.2z"/>
	</g>
</g>
</svg>
