<?xml version="1.0" encoding="utf-8"?>
<!-- Generator: Adobe Illustrator 21.0.0, SVG Export Plug-In . SVG Version: 6.00 Build 0)  -->
<svg version="1.1" id="svg3565" xmlns:svg="http://www.w3.org/2000/svg"
	 xmlns="http://www.w3.org/2000/svg" xmlns:xlink="http://www.w3.org/1999/xlink" x="0px" y="0px" viewBox="0 0 1024 283"
	 style="enable-background:new 0 0 1024 283;" xml:space="preserve">
<style type="text/css">
	.st0{fill:#BBBABA;}
</style>
<g>
	<path id="path2595" class="st0" d="M361.2,109.7h26l-3.4,20.3h-26L361.2,109.7z M323.4,83.4h32.3L340.4,174
		c-1.4,8.1-0.6,12.1,1.3,15.3c4.4,8.5,14.1,8.5,16.6,8.5c5.1,0,8.7-0.9,12.7-1.9l2.9,6c-7.9,3.4-17.4,7.7-33.4,7.7
		c-5.8,0-18.6-0.6-26.9-7.9c-7.8-6.8-7.6-15.3-6.2-23.7L323.4,83.4z M382.5,206L405,73h32.3l-8.2,48.6c5.6-4.3,19.3-15.1,42.2-15.1
		c9.7,0,17.9,2.3,23.9,5.5c14.6,8.3,12.4,21.7,10.9,30.1L495.3,206H463l9.7-57.3c1.5-9,2.6-16.9-3.3-22.2c-3.2-2.8-8-4.5-13.6-4.5
		c-10.7,0-20.6,5.3-28.7,11.5L414.8,206H382.5z M567.9,143.3c8.1,0,14.1,0.9,20,2.1l-2.4,14c-3.5-0.7-7.2-1.2-11.7-1.2
		c-14.3,0-28,5.8-30.1,18.1c-1.4,8.3,3.2,17.1,19.5,17.1c11.4,0,19.8-3.8,26.7-7l1.9-11.2h0.6l5.1-29.9h-0.7
		c0.4-4.2,0.5-8.5-1.2-12.5c-4.1-10.2-17.6-12.6-26.8-12.6c-20.7,0-31,9.2-36.7,14.3l-7.7-3.2c6.9-9.2,19.4-25.8,56.4-25.8
		c21.2,0,33.8,5.5,39.9,11.1c10.5,9.6,8.6,22.4,7.1,31.3L618,206h-31.4l1.8-10.9c-6.1,4.3-19.8,13.7-42.9,13.7
		c-25.3,0-39-13.6-36.1-30.9C513.2,155.7,538.9,143.3,567.9,143.3z M825.2,109.6l4.4-26.2h32.3l-4.4,26.2h35.3l-3.5,20.5H854
		l-7.4,43.9c-1.4,8.1-0.6,12.1,1.3,15.3c4.4,8.5,14.1,8.5,16.6,8.5c5.1,0,8.7-0.9,12.7-1.9l2.9,6c-7.9,3.4-17.4,7.7-33.4,7.7
		c-5.8,0-18.6-0.6-26.9-7.9c-7.8-6.8-7.6-15.3-6.2-23.7l8.1-47.9h-17.9l-50,76.7h-11.7l-23.3-56.1l-42.3,56.1h-11.9l-29.7-97.2h33.8
		l12.5,46.7c1,4.3,1.3,5.5,2.2,10.2l42-56.9h10.7l16.9,46.5c1.7,4.5,1.7,5.5,3.6,10.5l5.2-9l29.5-48h14.3h11.7H825.2z M957.3,121.1
		c-23.2,0-30.2,13.2-35.4,24.3c-0.3,0.5-1.7,3.1-2.8,9.9c-1.1,6.7-0.5,8.7-0.4,9.1c0.6,10.1,5,29.6,38,29.6
		c22.6,0,33.1-8.9,43.1-17.3l7.5,3c-7.1,10.5-20.5,30.3-63.2,30.3c-44.7,0-64.3-23.9-59.3-53.5c4.8-28.2,32-51.2,76-51.2
		c10.7,0,29.9,1.3,43,13c15,13.6,12.2,31.5,10.6,42h-86.3c0.1-1.4,0.3-3.3,0.8-5.7c1.1-6.3,2-8.3,2.4-9h50.3
		C981.6,136.9,981.6,121.1,957.3,121.1z"/>
	<path class="st0" d="M141.8,11.7C70.2,11.7,12,69.8,12,141.5c0,71.7,58.1,129.8,129.8,129.8s129.8-58.1,129.8-129.8
		C271.7,69.8,213.5,11.7,141.8,11.7z M141.8,245.5c-57.4,0-104-46.6-104-104c0-57.4,46.6-104,104-104c57.4,0,104,46.6,104,104
		C245.9,198.9,199.3,245.5,141.8,245.5z"/>
	<path id="path2599" class="st0" d="M154.8,197c-42.2-3.9-56.4-3.5-54.4-38.6c0.9-15.4,9.5-74.5,9.5-74.5h30.8l-7.5,74.7
		c0.1,8.1,6.4,7.1,22.2,9.5c10.1,1.4,19.7,2.8,19.7,2.8L154.8,197z"/>
	<path id="path2601" class="st0" d="M148.7,106.7h26.8l-1.8,22.1h-26.8L148.7,106.7z"/>
</g>
</svg>
