<?xml version="1.0" encoding="utf-8"?>
<!-- Generator: Adobe Illustrator 21.0.0, SVG Export Plug-In . SVG Version: 6.00 Build 0)  -->
<svg version="1.1"
	 id="svg2" inkscape:version="0.91 r13725" sodipodi:docname="Verified by Visa logo.svg" xmlns:cc="http://creativecommons.org/ns#" xmlns:dc="http://purl.org/dc/elements/1.1/" xmlns:inkscape="http://www.inkscape.org/namespaces/inkscape" xmlns:rdf="http://www.w3.org/1999/02/22-rdf-syntax-ns#" xmlns:sodipodi="http://sodipodi.sourceforge.net/DTD/sodipodi-0.dtd" xmlns:svg="http://www.w3.org/2000/svg"
	 xmlns="http://www.w3.org/2000/svg" xmlns:xlink="http://www.w3.org/1999/xlink" x="0px" y="0px" viewBox="0 0 190 81.9"
	 style="enable-background:new 0 0 190 81.9;" xml:space="preserve">
<style type="text/css">
	.st0{fill:#BBBABA;}
</style>
<sodipodi:namedview  bordercolor="#666666" borderopacity="1" fit-margin-bottom="0" fit-margin-left="0" fit-margin-right="0" fit-margin-top="0" gridtolerance="10" guidetolerance="10" id="namedview40" inkscape:current-layer="svg2" inkscape:cx="371.22803" inkscape:cy="525.44657" inkscape:pageopacity="0" inkscape:pageshadow="2" inkscape:window-height="705" inkscape:window-maximized="1" inkscape:window-width="1366" inkscape:window-x="-8" inkscape:window-y="-8" inkscape:zoom="0.22425739" objecttolerance="10" pagecolor="#ffffff" showgrid="false">
	</sodipodi:namedview>
<g id="Layer_x0020_1" transform="translate(-0.2312,-267.8841)">
	<path id="path10" inkscape:connector-curvature="0" class="st0" d="M77.1,311.6l-9.5,25.7l-1-5.2c-2.4-6.4-7.5-13.1-13.5-15.8
		l8.7,33l10.3,0l15.3-37.6L77.1,311.6L77.1,311.6z"/>
	<polygon id="polygon12" class="st0" points="95,349.3 85.3,349.3 91.3,311.6 101.1,311.6 	"/>
	<path id="path14" inkscape:connector-curvature="0" class="st0" d="M130.3,312.5c-1.9-0.8-5-1.6-8.7-1.6c-9.6,0-16.4,5.1-16.4,12.4
		c-0.1,5.4,4.8,8.4,8.5,10.2c3.8,1.8,5.1,3,5.1,4.7c0,2.5-3,3.7-5.8,3.7c-3.9,0-6-0.6-9.2-2l-1.3-0.6l-1.4,8.4c2.3,1,6.5,2,10.8,2
		c10.2,0,16.9-5.1,16.9-12.9c0-4.3-2.6-7.6-8.2-10.2c-3.4-1.7-5.5-2.9-5.5-4.7c0-1.6,1.8-3.2,5.6-3.2c3.2-0.1,5.5,0.7,7.3,1.4
		l0.9,0.4L130.3,312.5L130.3,312.5z"/>
	<path id="path16" inkscape:connector-curvature="0" class="st0" d="M155.2,311.6h-7.5c-2.3,0-4.1,0.7-5.1,3.1l-14.4,34.5h10.2
		c0,0,1.7-4.6,2-5.7c1.1,0,11,0,12.5,0c0.3,1.3,1.2,5.6,1.2,5.6h9L155.2,311.6L155.2,311.6z M143.2,335.9c0.8-2.2,3.9-10.5,3.9-10.5
		c-0.1,0.1,0.8-2.2,1.3-3.6l0.6,3.2c0,0,1.9,9,2.3,10.9C149.8,335.9,145.1,335.9,143.2,335.9L143.2,335.9z"/>
	<path id="path18" inkscape:connector-curvature="0" class="st0" d="M58.7,311.6H43l-0.1,0.6c12.2,3.1,20.3,10.8,23.6,19.8
		l-3.4-17.3C62.6,312.4,60.8,311.7,58.7,311.6z"/>
	<polygon id="polygon20" class="st0" points="7.1,269.1 12,294.3 24.5,269.4 31.1,269.4 13.6,302.5 7.4,302.5 0.2,270.2 	"/>
	<path id="path22" inkscape:connector-curvature="0" class="st0" d="M45.9,291.9H31.1c-0.4,4.5,1.7,6.4,5.2,6.4c3,0,5.6-1.1,8.4-2.9
		l0,4.5c-2.7,1.7-5.9,2.8-9.6,2.8c-6.4,0-10.7-3.7-9.4-12c1.2-7.5,6.3-12,12.4-12c6.9,0,9.2,5.2,8.2,11.7
		C46.1,291,45.9,291.6,45.9,291.9z M37.2,282.8c-2.3,0-4.4,1.8-5.4,5.6h9.2C41.1,284.8,39.9,282.8,37.2,282.8z"/>
	<path id="path24" inkscape:connector-curvature="0" class="st0" d="M55.5,289.1l-2,13.2h-5.7l3.5-23.1h4.9l0,4.6
		c1.9-2.7,4.6-4.9,8.2-5.1l0,5.7C60.8,284.7,57.5,286.6,55.5,289.1L55.5,289.1z"/>
	<path id="path26" inkscape:connector-curvature="0" class="st0" d="M64.3,302.4l3.5-23.1h5.7L70,302.4H64.3z M71.4,275.4
		c-1.9,0-3.2-1.3-2.9-3.2c0.3-2,2-3.3,4-3.3c1.9,0,3.2,1.4,2.9,3.3C75,274.1,73.2,275.4,71.4,275.4z"/>
	<path id="path28" inkscape:connector-curvature="0" class="st0" d="M89.5,273c-2,0-3.1,0.9-3.5,2.9l-0.5,3.4h4.4l0,4.7h-5.1
		l-2.8,18.4h-5.7l2.8-18.4h-3.3l0.7-4.7h3.3l0.6-4c0.8-5.1,4.3-7,9.1-7c1,0,1.8,0.1,2.3,0.2l0,4.7C91.3,273.1,90.4,273,89.5,273z"/>
	<path id="path30" inkscape:connector-curvature="0" class="st0" d="M89.5,302.4l3.5-23.1h5.7l-3.5,23.1
		C95.2,302.4,89.5,302.4,89.5,302.4z M96.6,275.4c-1.9,0-3.2-1.3-2.9-3.2c0.3-2,2-3.3,4-3.3c1.9,0,3.2,1.4,2.9,3.3
		C100.2,274.1,98.4,275.4,96.6,275.4L96.6,275.4z"/>
	<path id="path32" inkscape:connector-curvature="0" class="st0" d="M121,291.9h-14.8c-0.4,4.5,1.7,6.4,5.2,6.4c3,0,5.6-1.1,8.4-2.9
		l0,4.5c-2.7,1.7-5.9,2.8-9.6,2.8c-6.4,0-10.7-3.7-9.4-12c1.2-7.5,6.3-12,12.4-12c6.9,0,9.2,5.2,8.2,11.7
		C121.2,291,121.1,291.6,121,291.9L121,291.9z M112.3,282.8c-2.3,0-4.4,1.8-5.4,5.6h9.2C116.2,284.8,115.1,282.8,112.3,282.8z"/>
	<path id="path34" inkscape:connector-curvature="0" class="st0" d="M138,302.4l0-3.2c-1.9,2-4.4,3.7-7.6,3.7
		c-4.8,0-8.1-3.6-6.9-11.4c1.3-8.6,6.6-12.4,12-12.4c2.2,0,3.9,0.4,5.2,0.9l1.7-11.1l5.9-0.9l-5.3,34.5L138,302.4L138,302.4z
		 M139.9,284.6c-1.3-0.7-2.4-1-4.3-1c-3,0-5.6,2.4-6.4,7.5c-0.7,4.5,0.9,6.6,3.4,6.6c2.1,0,3.9-1.2,5.7-3.2L139.9,284.6z"/>
	<path id="path36" inkscape:connector-curvature="0" class="st0" d="M160.4,302.6c-2.7,0-4.9-0.4-7-1.2l3.8-24.5l4.4-0.7l-1.6,10.6
		c1.3-1.2,3.1-2.3,5.3-2.3c3.7,0,6.2,2.7,5.3,8.6C169.6,299.6,165.6,302.6,160.4,302.6L160.4,302.6z M163.6,288.4
		c-1.4,0-2.9,1-4.2,2.3l-1.2,7.9c0.9,0.3,1.4,0.5,2.7,0.5c2.7,0,4.7-1.7,5.3-5.6C166.7,290,165.6,288.4,163.6,288.4L163.6,288.4z"/>
	<path id="path38" inkscape:connector-curvature="0" class="st0" d="M180.8,303.3c-2.2,4.3-4.4,5.6-7.8,5.6c-0.8,0-1.2-0.1-1.6-0.2
		l0-3.6c0.6,0.1,1.2,0.3,2,0.3c1.3,0,2.4-0.6,3.1-1.8l0.6-1.2l-3.7-17.2l4.6-0.6l2.1,12.4l5.8-12.2h4.3L180.8,303.3L180.8,303.3z"/>
</g>
</svg>
