<?xml version="1.0" encoding="utf-8"?>
<!-- Generator: Adobe Illustrator 21.0.0, SVG Export Plug-In . SVG Version: 6.00 Build 0)  -->
<svg version="1.1" id="Layer_1" xmlns="http://www.w3.org/2000/svg" xmlns:xlink="http://www.w3.org/1999/xlink" x="0px" y="0px"
	 viewBox="0 0 788.1 225.2" style="enable-background:new 0 0 788.1 225.2;" xml:space="preserve">
<style type="text/css">
	.st0{fill:#FFFFFF;}
</style>
<path d="M788.1,202.6c0,12.5-10.1,22.6-22.7,22.6H22.7c-12.5,0-22.7-10.1-22.7-22.6v-180C-0.1,10.1,10.1,0,22.7,0h742.8
	c12.6,0,22.7,10.1,22.7,22.6L788.1,202.6"/>
<g>
	<path class="st0" d="M174.5,106.6c-0.2-19,15.5-28.2,16.2-28.6c-8.9-13-22.7-14.7-27.5-14.9c-11.6-1.2-22.8,6.9-28.7,6.9
		c-6,0-15.1-6.8-24.9-6.6c-12.6,0.2-24.4,7.5-30.8,18.8c-13.3,23.1-3.4,57,9.4,75.6c6.4,9.1,13.8,19.3,23.6,19
		c9.6-0.4,13.1-6.1,24.7-6.1c11.4,0,14.8,6.1,24.7,5.9c10.2-0.2,16.7-9.2,22.9-18.4c7.4-10.4,10.3-20.8,10.5-21.3
		C194.3,136.8,174.7,129.3,174.5,106.6"/>
	<path class="st0" d="M155.7,50.9c5.1-6.4,8.7-15.2,7.7-24c-7.4,0.3-16.7,5.1-22.1,11.4c-4.7,5.5-9,14.6-7.9,23.2
		C141.7,62,150.3,57.2,155.7,50.9"/>
	<path class="st0" d="M312.9,175.5h-13.3l-7.3-23h-25.4l-7,23h-13L272,97.2h15.6L312.9,175.5z M290,142.9l-6.6-20.4
		c-0.7-2.1-2-7-3.9-14.7h-0.2c-0.8,3.3-2,8.2-3.7,14.7l-6.5,20.4H290z"/>
	<path class="st0" d="M377.5,146.6c0,9.6-2.6,17.2-7.8,22.7c-4.7,5-10.5,7.4-17.4,7.4c-7.5,0-12.8-2.7-16.1-8v29.6h-12.5v-60.7
		c0-6-0.2-12.2-0.5-18.6h11l0.7,8.9h0.2c4.2-6.7,10.5-10.1,19-10.1c6.7,0,12.2,2.6,16.7,7.9C375.3,131.1,377.5,138,377.5,146.6
		 M364.8,147.1c0-5.5-1.2-10-3.7-13.6c-2.7-3.7-6.4-5.6-10.9-5.6c-3.1,0-5.9,1-8.4,3.1c-2.5,2.1-4.2,4.7-4.9,8.1
		c-0.4,1.5-0.6,2.8-0.6,3.8v9.4c0,4.1,1.3,7.6,3.8,10.4c2.5,2.8,5.8,4.2,9.8,4.2c4.7,0,8.4-1.8,11-5.5
		C363.4,157.8,364.8,153,364.8,147.1"/>
	<path class="st0" d="M442.4,146.6c0,9.6-2.6,17.2-7.8,22.7c-4.7,5-10.5,7.4-17.4,7.4c-7.5,0-12.8-2.7-16.1-8v29.6h-12.5v-60.7
		c0-6-0.2-12.2-0.5-18.6h11l0.7,8.9h0.2c4.2-6.7,10.5-10.1,19-10.1c6.7,0,12.2,2.6,16.7,7.9C440.2,131.1,442.4,138,442.4,146.6
		 M429.6,147.1c0-5.5-1.2-10-3.7-13.6c-2.7-3.7-6.3-5.6-10.9-5.6c-3.1,0-5.9,1-8.4,3.1c-2.5,2.1-4.2,4.7-4.9,8.1
		c-0.4,1.5-0.6,2.8-0.6,3.8v9.4c0,4.1,1.3,7.6,3.8,10.4c2.5,2.8,5.8,4.2,9.8,4.2c4.7,0,8.4-1.8,11-5.5
		C428.3,157.8,429.6,153,429.6,147.1"/>
	<path class="st0" d="M515,153.5c0,6.7-2.3,12.1-7,16.3c-5.1,4.6-12.2,6.8-21.3,6.8c-8.4,0-15.2-1.6-20.3-4.9l2.9-10.4
		c5.5,3.3,11.5,4.9,18.1,4.9c4.7,0,8.4-1.1,11-3.2c2.6-2.1,4-5,4-8.5c0-3.2-1.1-5.8-3.2-8c-2.2-2.2-5.8-4.2-10.8-6
		c-13.7-5.1-20.6-12.6-20.6-22.4c0-6.4,2.4-11.7,7.3-15.8c4.8-4.1,11.2-6.2,19.2-6.2c7.1,0,13,1.2,17.8,3.7l-3.1,10.2
		c-4.4-2.4-9.4-3.6-15-3.6c-4.4,0-7.9,1.1-10.4,3.3c-2.1,1.9-3.1,4.3-3.1,7.1c0,3.1,1.2,5.7,3.6,7.7c2.1,1.9,5.9,3.9,11.4,6
		c6.7,2.7,11.7,5.9,14.9,9.5C513.4,143.6,515,148.1,515,153.5"/>
	<path class="st0" d="M556.5,128.5h-13.8v27.4c0,7,2.4,10.4,7.3,10.4c2.2,0,4.1-0.2,5.6-0.6l0.3,9.5c-2.5,0.9-5.7,1.4-9.7,1.4
		c-4.9,0-8.8-1.5-11.6-4.5c-2.8-3-4.2-8.1-4.2-15.2v-28.4h-8.2v-9.4h8.2v-10.3l12.3-3.7v14.1h13.8V128.5z"/>
	<path class="st0" d="M618.7,146.8c0,8.7-2.5,15.8-7.4,21.4c-5.2,5.7-12.1,8.6-20.7,8.6c-8.3,0-14.9-2.7-19.8-8.2
		c-4.9-5.5-7.4-12.4-7.4-20.8c0-8.7,2.5-15.9,7.6-21.5c5.1-5.6,11.9-8.3,20.5-8.3c8.3,0,14.9,2.7,20,8.2
		C616.3,131.5,618.7,138.4,618.7,146.8 M605.7,147.1c0-5.2-1.1-9.6-3.4-13.3c-2.6-4.5-6.4-6.7-11.3-6.7c-5,0-8.9,2.2-11.5,6.7
		c-2.3,3.7-3.4,8.2-3.4,13.5c0,5.2,1.1,9.6,3.4,13.3c2.7,4.5,6.5,6.7,11.4,6.7c4.8,0,8.5-2.3,11.3-6.8
		C604.6,156.8,605.7,152.3,605.7,147.1"/>
	<path class="st0" d="M659.5,130.1c-1.2-0.2-2.6-0.3-4-0.3c-4.4,0-7.8,1.7-10.2,5c-2.1,3-3.1,6.7-3.1,11.2v29.6h-12.5v-38.7
		c0-6.5-0.1-12.4-0.4-17.8h10.9l0.5,10.8h0.3c1.3-3.7,3.4-6.7,6.3-8.9c2.8-2,5.8-3,9.1-3c1.2,0,2.2,0.1,3.1,0.2L659.5,130.1z"/>
	<path class="st0" d="M715.6,144.6c0,2.2-0.1,4.1-0.5,5.7h-37.6c0.1,5.6,2,9.8,5.5,12.8c3.2,2.6,7.3,3.9,12.3,3.9
		c5.6,0,10.6-0.9,15.2-2.7l2,8.7c-5.3,2.3-11.6,3.5-18.9,3.5c-8.7,0-15.6-2.6-20.6-7.7c-5-5.1-7.5-12.1-7.5-20.7
		c0-8.5,2.3-15.6,7-21.3c4.9-6,11.4-9,19.7-9c8.1,0,14.3,3,18.5,9C713.9,131.7,715.6,137.6,715.6,144.6 M703.6,141.4
		c0.1-3.7-0.7-6.9-2.4-9.6c-2.2-3.5-5.5-5.2-10-5.2c-4.1,0-7.4,1.7-10,5.1c-2.1,2.7-3.3,6-3.7,9.8H703.6z"/>
	<path class="st0" d="M284,69.2h-6.5L273.8,58h-12.5l-3.4,11.3h-6.4l12.4-38.4h7.6L284,69.2z M272.7,53.2l-3.2-10
		c-0.4-1-1-3.4-1.9-7.2h-0.1c-0.4,1.6-1,4.1-1.8,7.2l-3.2,10H272.7z"/>
	<path class="st0" d="M314.9,41.5l-10.5,27.7h-6l-10.2-27.7h6.6l4.7,14.7c0.8,2.4,1.5,4.8,2,7h0.2c0.5-2,1.1-4.4,2-7l4.7-14.7H314.9
		z"/>
	<path class="st0" d="M342.8,69.2h-5.5l-0.5-3.2h-0.2c-1.9,2.5-4.6,3.8-8.1,3.8c-2.6,0-4.7-0.8-6.3-2.5c-1.4-1.5-2.2-3.4-2.2-5.6
		c0-3.4,1.4-6,4.2-7.8c2.8-1.8,6.8-2.7,11.9-2.6v-0.5c0-3.6-1.9-5.5-5.8-5.5c-2.7,0-5.1,0.7-7.2,2l-1.2-4c2.6-1.6,5.8-2.4,9.5-2.4
		c7.3,0,10.9,3.8,10.9,11.5v10.2C342.4,65.4,342.6,67.6,342.8,69.2 M336.5,59.7v-4.3c-6.8-0.1-10.2,1.7-10.2,5.6
		c0,1.4,0.4,2.5,1.2,3.3c0.8,0.7,1.8,1.1,3,1.1c1.4,0,2.6-0.4,3.8-1.3c1.2-0.9,1.9-1.9,2.1-3.3L336.5,59.7z"/>
	<path class="st0" d="M360,33.3c0,1.1-0.4,2-1.1,2.7c-0.7,0.7-1.6,1-2.8,1c-1,0-1.9-0.4-2.6-1c-0.7-0.7-1.1-1.6-1.1-2.7
		c0-1.1,0.4-1.9,1.1-2.6c0.7-0.7,1.6-1,2.7-1c1.1,0,1.9,0.3,2.7,1C359.6,31.3,360,32.2,360,33.3 M359.3,69.2h-6.2V41.5h6.2V69.2z"/>
	<rect x="370.3" y="28.8" class="st0" width="6.2" height="40.4"/>
	<path class="st0" d="M408.2,69.2h-5.5l-0.4-3.2H402c-1.9,2.5-4.6,3.8-8.1,3.8c-2.6,0-4.7-0.8-6.3-2.5c-1.4-1.5-2.2-3.4-2.2-5.6
		c0-3.4,1.4-6,4.3-7.8c2.8-1.8,6.8-2.7,11.9-2.6v-0.5c0-3.6-1.9-5.5-5.8-5.5c-2.7,0-5.2,0.7-7.2,2l-1.3-4c2.6-1.6,5.8-2.4,9.5-2.4
		c7.3,0,10.9,3.8,10.9,11.5v10.2C407.8,65.4,407.9,67.6,408.2,69.2 M401.8,59.7v-4.3c-6.8-0.1-10.2,1.7-10.2,5.6
		c0,1.4,0.4,2.5,1.2,3.3c0.8,0.7,1.8,1.1,3,1.1c1.4,0,2.6-0.4,3.8-1.3c1.1-0.9,1.9-1.9,2.1-3.3L401.8,59.7z"/>
	<path class="st0" d="M445,55c0,4.7-1.3,8.4-3.9,11.2c-2.3,2.5-5.1,3.7-8.4,3.7c-4,0-6.9-1.6-8.7-4.9h-0.1l-0.3,4.3h-5.3
		c0.1-2.2,0.2-4.7,0.2-7.5v-33h6.2v16.8c1.8-3.1,4.8-4.6,8.9-4.6c3.4,0,6.1,1.3,8.2,3.9C443.9,47.4,445,50.8,445,55 M438.7,55.2
		c0-2.7-0.6-4.9-1.8-6.6c-1.3-1.9-3.1-2.8-5.4-2.8c-1.5,0-2.9,0.5-4.1,1.5c-1.2,1-2,2.3-2.4,3.9c-0.2,0.6-0.2,1.3-0.2,1.9V58
		c0,1.9,0.6,3.5,1.9,4.9c1.3,1.4,2.9,2,4.8,2c2.3,0,4.1-0.9,5.4-2.6C438.1,60.6,438.7,58.2,438.7,55.2"/>
	<rect x="454.1" y="28.8" class="st0" width="6.2" height="40.4"/>
	<path class="st0" d="M494,54.1c0,1.1-0.1,2-0.2,2.8h-18.5c0.1,2.7,1,4.8,2.7,6.3c1.6,1.3,3.6,1.9,6.1,1.9c2.7,0,5.2-0.4,7.5-1.3
		l1,4.3c-2.6,1.1-5.7,1.7-9.3,1.7c-4.3,0-7.7-1.3-10.1-3.8c-2.5-2.5-3.7-5.9-3.7-10.2c0-4.2,1.1-7.7,3.4-10.4c2.4-3,5.6-4.4,9.7-4.4
		c4,0,7,1.5,9.1,4.4C493.2,47.7,494,50.6,494,54.1 M488.2,52.5c0-1.8-0.4-3.4-1.2-4.7c-1.1-1.7-2.7-2.6-4.9-2.6
		c-2,0-3.6,0.8-4.9,2.5c-1,1.3-1.6,2.9-1.8,4.8H488.2z"/>
	<path class="st0" d="M545,55.2c0,4.3-1.2,7.8-3.7,10.5c-2.6,2.8-5.9,4.2-10.2,4.2c-4.1,0-7.3-1.3-9.7-4.1
		c-2.4-2.7-3.6-6.1-3.6-10.2c0-4.3,1.2-7.8,3.7-10.6c2.5-2.7,5.8-4.1,10.1-4.1c4.1,0,7.3,1.3,9.8,4C543.8,47.6,545,51,545,55.2
		 M538.6,55.3c0-2.5-0.5-4.7-1.7-6.5c-1.3-2.2-3.1-3.3-5.5-3.3c-2.5,0-4.4,1.1-5.7,3.3c-1.1,1.8-1.7,4-1.7,6.7
		c0,2.5,0.6,4.7,1.7,6.5c1.3,2.2,3.2,3.3,5.6,3.3c2.3,0,4.2-1.1,5.5-3.3C538,60,538.6,57.8,538.6,55.3"/>
	<path class="st0" d="M578.2,69.2H572V53.3c0-4.9-1.9-7.4-5.6-7.4c-1.8,0-3.3,0.7-4.4,2c-1.2,1.3-1.7,2.9-1.7,4.8v16.5h-6.2V49.4
		c0-2.4-0.1-5.1-0.2-7.9h5.4l0.3,4.3h0.2c0.7-1.3,1.8-2.4,3.2-3.3c1.7-1,3.5-1.5,5.6-1.5c2.6,0,4.7,0.8,6.5,2.5
		c2.1,2,3.2,5.1,3.2,9.2V69.2z"/>
	<path class="st0" d="M618.5,46.1h-6.8v13.5c0,3.4,1.2,5.1,3.6,5.1c1.1,0,2-0.1,2.7-0.3l0.2,4.7c-1.2,0.5-2.8,0.7-4.8,0.7
		c-2.4,0-4.3-0.7-5.7-2.2c-1.4-1.5-2.1-4-2.1-7.5v-14h-4.1v-4.6h4.1v-5.1l6-1.8v6.9h6.8V46.1z"/>
	<path class="st0" d="M651,69.2h-6.2V53.4c0-5-1.9-7.5-5.6-7.5c-2.8,0-4.8,1.4-5.9,4.3c-0.2,0.6-0.3,1.3-0.3,2.2v16.7H627V28.8h6.2
		v16.7h0.1c1.9-3,4.7-4.5,8.3-4.5c2.6,0,4.7,0.8,6.3,2.5c2.1,2.1,3.1,5.2,3.1,9.3V69.2z"/>
	<path class="st0" d="M682.8,54.1c0,1.1-0.1,2-0.2,2.8h-18.5c0.1,2.7,1,4.8,2.7,6.3c1.6,1.3,3.6,1.9,6,1.9c2.7,0,5.2-0.4,7.5-1.3
		l1,4.3c-2.6,1.1-5.7,1.7-9.3,1.7c-4.3,0-7.7-1.3-10.1-3.8c-2.5-2.5-3.7-5.9-3.7-10.2c0-4.2,1.1-7.7,3.4-10.4c2.4-3,5.6-4.4,9.7-4.4
		c4,0,7,1.5,9.1,4.4C681.9,47.7,682.8,50.6,682.8,54.1 M676.9,52.5c0-1.8-0.4-3.4-1.2-4.7c-1.1-1.7-2.7-2.6-4.9-2.6
		c-2,0-3.7,0.8-4.9,2.5c-1,1.3-1.6,2.9-1.8,4.8H676.9z"/>
</g>
</svg>
