<?xml version="1.0" encoding="utf-8"?>
<!-- Generator: Adobe Illustrator 21.0.0, SVG Export Plug-In . SVG Version: 6.00 Build 0)  -->
<svg version="1.1" id="Layer_1" xmlns="http://www.w3.org/2000/svg" xmlns:xlink="http://www.w3.org/1999/xlink" x="0px" y="0px"
	 viewBox="0 0 511.5 167.3" style="enable-background:new 0 0 511.5 167.3;" xml:space="preserve">
<style type="text/css">
	.st0{fill:#FFFFFF;}
</style>
<g>
	<path d="M511.5,144.7c0,12.5-10.1,22.6-22.6,22.6H22.6C10.1,167.3,0,157.2,0,144.7V22.6C0,10.1,10.1,0,22.6,0h466.3
		c12.5,0,22.6,10.1,22.6,22.6V144.7z"/>
	<path class="st0" d="M88.3,28.6H46.7c-5,0-9,4-9,9V130c0,5,4,9,9,9h41.7c5,0,9-4,9-9V37.7C97.4,32.7,93.3,28.6,88.3,28.6z
		 M67.5,132.4c-3.3,0-6-2.7-6-6c0-3.3,2.7-6,6-6c3.3,0,6,2.7,6,6C73.5,129.7,70.8,132.4,67.5,132.4z M90.3,117.4H44.7V49.3h45.5
		V117.4z"/>
	<g>
		<path class="st0" d="M131.5,45.1l-2.5,7.7h-3.3l8.3-24.4h3.8l8.3,24.4h-3.4l-2.6-7.7H131.5z M139.5,42.6l-2.4-7
			c-0.5-1.6-0.9-3-1.2-4.4h-0.1c-0.3,1.4-0.7,2.9-1.2,4.4l-2.4,7.1H139.5z"/>
		<path class="st0" d="M149.4,35.2l3.4,9.8c0.6,1.6,1.1,3.1,1.4,4.5h0.1c0.4-1.4,0.9-2.9,1.5-4.5l3.4-9.8h3.3l-6.9,17.5h-3L146,35.2
			H149.4z"/>
		<path class="st0" d="M177.2,48.5c0,1.5,0.1,3,0.3,4.2h-2.9l-0.3-2.2h-0.1c-0.9,1.4-2.9,2.6-5.4,2.6c-3.5,0-5.4-2.5-5.4-5
			c0-4.2,3.8-6.5,10.5-6.5v-0.4c0-1.4-0.4-4.1-4-4c-1.7,0-3.4,0.5-4.6,1.3l-0.7-2.1c1.4-0.9,3.6-1.5,5.8-1.5c5.4,0,6.7,3.7,6.7,7.2
			V48.5z M174.1,43.8c-3.5-0.1-7.4,0.5-7.4,3.9c0,2.1,1.4,3,3,3c2.3,0,3.8-1.4,4.3-2.9c0.1-0.3,0.1-0.7,0.1-1V43.8z"/>
		<path class="st0" d="M183.6,32c-1.2,0-2-0.9-2-2.1c0-1.1,0.8-2,2.1-2c1.2,0,2,0.9,2,2C185.7,31.1,184.9,32,183.6,32L183.6,32z
			 M182.1,52.7V35.2h3.2v17.5H182.1z"/>
		<path class="st0" d="M190.4,27h3.2v25.7h-3.2V27z"/>
		<path class="st0" d="M211,48.5c0,1.5,0.1,3,0.3,4.2h-2.9l-0.3-2.2H208c-0.9,1.4-2.9,2.6-5.4,2.6c-3.5,0-5.4-2.5-5.4-5
			c0-4.2,3.8-6.5,10.5-6.5v-0.4c0-1.4-0.4-4.1-4-4c-1.7,0-3.4,0.5-4.6,1.3l-0.7-2.1c1.4-0.9,3.6-1.5,5.8-1.5c5.4,0,6.7,3.7,6.7,7.2
			V48.5z M207.9,43.8c-3.5-0.1-7.4,0.5-7.4,3.9c0,2.1,1.4,3,3,3c2.3,0,3.8-1.4,4.3-2.9c0.1-0.3,0.1-0.7,0.1-1V43.8z"/>
		<path class="st0" d="M215.9,27h3.2v11h0.1c1.1-2,3.1-3.2,6-3.2c4.3,0,7.4,3.6,7.4,8.9c0,6.3-4,9.4-7.9,9.4c-2.5,0-4.5-1-5.9-3.3
			h-0.1l-0.2,2.9h-2.7c0.1-1.2,0.1-3,0.1-4.5V27z M219.1,45.7c0,0.4,0,0.8,0.1,1.2c0.6,2.2,2.5,3.7,4.8,3.7c3.4,0,5.3-2.7,5.3-6.7
			c0-3.5-1.8-6.5-5.2-6.5c-2.2,0-4.2,1.5-4.8,3.9c-0.1,0.4-0.2,0.8-0.2,1.3V45.7z"/>
		<path class="st0" d="M236.3,27h3.2v25.7h-3.2V27z"/>
		<path class="st0" d="M246.4,44.5c0.1,4.3,2.8,6.1,6,6.1c2.3,0,3.7-0.4,4.8-0.9l0.6,2.2c-1.1,0.5-3.1,1.1-5.9,1.1
			c-5.4,0-8.6-3.6-8.6-8.8c0-5.3,3.1-9.5,8.3-9.5c5.7,0,7.2,5,7.2,8.2c0,0.7,0,1.2-0.1,1.5L246.4,44.5z M255.7,42.2
			c0-2-0.8-5.2-4.4-5.2c-3.3,0-4.6,3-4.9,5.2H255.7z"/>
		<path class="st0" d="M277.2,53.1c-4.7,0-8.4-3.5-8.4-9c0-5.9,3.9-9.3,8.7-9.3c5,0,8.4,3.7,8.4,9C285.9,50.3,281.4,53.1,277.2,53.1
			L277.2,53.1z M277.3,50.7c3,0,5.3-2.9,5.3-6.8c0-3-1.5-6.7-5.2-6.7c-3.7,0-5.4,3.5-5.4,6.8C272,47.9,274.2,50.7,277.3,50.7
			L277.3,50.7z"/>
		<path class="st0" d="M289.7,40c0-1.8,0-3.3-0.2-4.7h2.8l0.2,2.9h0.1c0.9-1.6,2.9-3.3,5.8-3.3c2.4,0,6.2,1.4,6.2,7.5v10.5h-3.2
			V42.6c0-2.8-1-5.2-4.1-5.2c-2.1,0-3.7,1.5-4.3,3.3c-0.1,0.4-0.2,1-0.2,1.5v10.6h-3.2V40z"/>
		<path class="st0" d="M321,31v4.2h4.6v2.4H321v9.4c0,2.2,0.6,3.4,2.4,3.4c0.9,0,1.4-0.1,1.8-0.2l0.1,2.4c-0.6,0.2-1.6,0.4-2.8,0.4
			c-1.5,0-2.7-0.5-3.4-1.3c-0.9-1-1.2-2.5-1.2-4.6v-9.6h-2.7v-2.4h2.7V32L321,31z"/>
		<path class="st0" d="M328.9,27h3.2V38h0.1c0.5-0.9,1.3-1.7,2.3-2.2c0.9-0.6,2.1-0.9,3.3-0.9c2.3,0,6.1,1.4,6.1,7.5v10.4h-3.2V42.7
			c0-2.9-1.1-5.2-4.1-5.2c-2.1,0-3.7,1.4-4.3,3.2c-0.2,0.4-0.2,0.9-0.2,1.5v10.6h-3.2V27z"/>
		<path class="st0" d="M350.6,44.5c0.1,4.3,2.8,6.1,6,6.1c2.3,0,3.7-0.4,4.9-0.9L362,52c-1.1,0.5-3.1,1.1-5.9,1.1
			c-5.4,0-8.6-3.6-8.6-8.8c0-5.3,3.1-9.5,8.3-9.5c5.7,0,7.2,5,7.2,8.2c0,0.7,0,1.2-0.1,1.5L350.6,44.5z M359.9,42.2
			c0-2-0.8-5.2-4.4-5.2c-3.3,0-4.6,3-4.9,5.2H359.9z"/>
		<path class="st0" d="M375.8,32c-1.2,0-2-0.9-2-2.1c0-1.1,0.8-2,2.1-2c1.2,0,2,0.9,2,2C377.9,31.1,377.1,32,375.8,32L375.8,32z
			 M374.2,52.7V35.2h3.2v17.5H374.2z"/>
		<path class="st0" d="M382.6,28.7c1.5-0.3,3.5-0.5,6-0.5c3.1,0,5.4,0.7,6.8,2c1.3,1.2,2.2,2.9,2.2,5.1c0,2.2-0.7,3.9-1.9,5.2
			c-1.7,1.8-4.4,2.7-7.5,2.7c-0.9,0-1.8,0-2.5-0.2v9.8h-3.1V28.7z M385.8,40.4c0.7,0.2,1.6,0.3,2.6,0.3c3.8,0,6.1-1.9,6.1-5.2
			c0-3.3-2.3-4.8-5.8-4.8c-1.4,0-2.4,0.1-3,0.3V40.4z"/>
		<path class="st0" d="M401.4,27h3.2V38h0.1c0.5-0.9,1.3-1.7,2.3-2.2c0.9-0.6,2.1-0.9,3.3-0.9c2.4,0,6.1,1.4,6.1,7.5v10.4h-3.2V42.7
			c0-2.9-1.1-5.2-4.1-5.2c-2.1,0-3.7,1.4-4.3,3.2c-0.2,0.4-0.2,0.9-0.2,1.5v10.6h-3.2V27z"/>
		<path class="st0" d="M428.4,53.1c-4.7,0-8.4-3.5-8.4-9c0-5.9,3.9-9.3,8.7-9.3c5,0,8.4,3.7,8.4,9C437.2,50.3,432.6,53.1,428.4,53.1
			L428.4,53.1z M428.5,50.7c3,0,5.3-2.9,5.3-6.8c0-3-1.5-6.7-5.2-6.7c-3.7,0-5.4,3.5-5.4,6.8C423.3,47.9,425.4,50.7,428.5,50.7
			L428.5,50.7z"/>
		<path class="st0" d="M441,40c0-1.8,0-3.3-0.1-4.7h2.8l0.2,2.9h0.1c0.9-1.6,2.9-3.3,5.8-3.3c2.4,0,6.2,1.4,6.2,7.5v10.5h-3.2V42.6
			c0-2.8-1.1-5.2-4.1-5.2c-2.1,0-3.7,1.5-4.3,3.3c-0.1,0.4-0.2,1-0.2,1.5v10.6H441V40z"/>
		<path class="st0" d="M462.7,44.5c0.1,4.3,2.8,6.1,6,6.1c2.3,0,3.7-0.4,4.8-0.9l0.6,2.2c-1.1,0.5-3.1,1.1-5.9,1.1
			c-5.4,0-8.6-3.6-8.6-8.8c0-5.3,3.1-9.5,8.2-9.5c5.7,0,7.2,5,7.2,8.2c0,0.7,0,1.2-0.1,1.5L462.7,44.5z M472,42.2
			c0-2-0.8-5.2-4.4-5.2c-3.3,0-4.6,3-4.9,5.2H472z"/>
	</g>
	<g>
		<path class="st0" d="M146.5,69.3L125,132.4h9.8l6.4-19.4H162l6.6,19.4h10.1l-21.5-63.1H146.5z M151.6,79.6
			c0.7,2.8,1.5,5.7,2.5,8.9l5.8,16.7h-16.5l5.7-16.9C150,85.7,150.8,82.7,151.6,79.6z"/>
		<path class="st0" d="M206.5,85.6c-6.5,0-11.7,2.5-15.2,7.3l-0.4-6.3h-8.7l0.1,0.8c0.3,3.9,0.4,8.2,0.4,14.4v48.7h9.6v-22.7
			c3,3.5,7.7,5.6,13.1,5.6c5.6,0,10.7-2.2,14.5-6.2c4.2-4.4,6.4-10.8,6.4-18.4c0-6.7-1.9-12.5-5.6-16.8
			C217,87.9,212,85.6,206.5,85.6z M204.1,93.5c8.5,0,12.3,7.9,12.3,15.7c0,10.1-4.9,16.3-12.7,16.3c-5.3,0-10-3.6-11.3-8.9
			c-0.2-0.8-0.3-1.9-0.3-3.1v-7.7c0-0.7,0.2-1.5,0.3-2.4c0-0.3,0.1-0.5,0.1-0.8C194,97.3,198.7,93.5,204.1,93.5z"/>
		<path class="st0" d="M255.7,85.6c-6.5,0-11.7,2.5-15.2,7.3l-0.4-6.3h-8.7l0,0.8c0.3,3.9,0.4,8.2,0.4,14.4v48.7h9.6v-22.7
			c3,3.5,7.7,5.6,13.1,5.6c5.6,0,10.7-2.2,14.5-6.2c4.2-4.4,6.4-10.8,6.4-18.4c0-6.7-1.9-12.5-5.6-16.8
			C266.2,87.9,261.2,85.6,255.7,85.6z M253.3,93.5c8.5,0,12.3,7.9,12.3,15.7c0,10.1-4.9,16.3-12.7,16.3c-5.3,0-10-3.6-11.3-8.9
			c-0.2-0.8-0.3-1.9-0.3-3.1v-7.7c0-0.7,0.2-1.5,0.3-2.4c0-0.3,0.1-0.5,0.1-0.8C243.2,97.3,247.9,93.5,253.3,93.5z"/>
		<path class="st0" d="M317.3,96c-8.9-3.5-11.8-6.2-11.8-11.2c0-4.2,3.4-8.5,10.9-8.5c6.2,0,10.2,2.2,11.2,2.8l0.8,0.5l2.7-8
			l-0.5-0.3c-1.6-0.9-6.2-3.1-13.9-3.1c-12.2,0-20.7,7.2-20.7,17.5c0,8.3,5.3,14.1,16.8,18.3c8.1,3,11.1,6.1,11.1,11.5
			c0,6-4.7,9.8-12.1,9.8c-4.9,0-9.9-1.4-13.8-3.9l-0.8-0.5l-2.6,8.2l0.5,0.3c3.6,2.4,10.4,4.2,16.1,4.2c16.4,0,22.2-10,22.2-18.6
			C333.4,106,328.8,100.5,317.3,96z"/>
		<path class="st0" d="M350.6,75.7l-9.4,2.9v7.9h-6.9v7.6h6.9v23.4c0,5.7,1.1,9.6,3.3,12.1c2.1,2.3,5.4,3.6,9.2,3.6
			c3.6,0,6.2-0.7,7.4-1.1l0.5-0.2l-0.5-7.6l-0.9,0.3c-1.2,0.4-2.4,0.5-4.4,0.5c-3.7,0-5.3-2.3-5.3-7.8V94.3h11.5v-7.6h-11.5V75.7z"
			/>
		<path class="st0" d="M385.8,85.6c-13.4,0-22.7,10-22.7,24.3c0,13.9,9,23.5,22,23.5h0.1c10.9,0,22.7-7.6,22.7-24.3
			c0-6.8-2.1-12.6-6.1-16.9C397.8,87.9,392.3,85.6,385.8,85.6z M385.5,93.2c8.6,0,12.5,8.4,12.5,16.2c0,9.6-5.3,16.5-12.7,16.5h-0.1
			c-7.2,0-12.5-6.8-12.5-16.3C372.8,101.4,376.7,93.2,385.5,93.2z"/>
		<path class="st0" d="M437.1,86.1l-0.6-0.1c-0.8-0.2-1.5-0.3-2.4-0.3c-5,0-9.5,2.9-12,7.7l-0.3-6.7h-8.6l0.1,0.8
			c0.3,3.8,0.4,8,0.4,13.8l-0.1,31.2h9.6V108c0-1.3,0.1-2.6,0.3-3.7c1.1-5.8,5-9.6,10.1-9.6c1,0,1.7,0.1,2.6,0.2l1,0.1V86.1z"/>
		<path class="st0" d="M458.6,85.5c-12.7,0-21.6,10.2-21.6,24.7c0,14,8.8,23.1,22.5,23.1c7.2,0,12.2-1.6,15.1-2.9l0.6-0.3l-1.8-7.1
			l-0.8,0.3c-2.6,1.1-6.1,2.1-12,2.1c-4.2,0-13.7-1.4-14.3-13.9l30.8,0.1l0.1-0.6c0.2-1,0.3-2.3,0.3-4
			C477.6,97.2,472.6,85.5,458.6,85.5z M458,92.8c2.9,0,5.3,0.9,7,2.7c2.7,2.8,3.2,6.9,3.3,8.9h-21.8C447.4,98.8,450.8,92.8,458,92.8
			z"/>
	</g>
</g>
</svg>
