<?xml version="1.0" encoding="utf-8"?>
<!-- Generator: Adobe Illustrator 21.0.0, SVG Export Plug-In . SVG Version: 6.00 Build 0)  -->
<svg version="1.1" id="Layer_1" xmlns="http://www.w3.org/2000/svg" xmlns:xlink="http://www.w3.org/1999/xlink" x="0px" y="0px"
	 viewBox="0 0 311 89.3" style="enable-background:new 0 0 311 89.3;" xml:space="preserve">
<style type="text/css">
	.st0{fill:none;stroke:#FFFFFF;stroke-miterlimit:10;}
	.st1{fill:#FFFFFF;}
</style>
<g>
	<path class="st0" d="M311,80.3c0,4.9-4,8.9-9,8.9H9c-5,0-9-4-9-8.9V9C0,4,4,0,9,0h293.1c5,0,9,4,9,9L311,80.3"/>
	<path class="st1" d="M68.3,44.1c-0.1-7.5,6.2-11.2,6.5-11.4c-3.5-5.2-9-5.9-10.9-5.9c-4.6-0.5-9.1,2.7-11.4,2.7
		c-2.4,0-6-2.7-9.9-2.6c-5,0.1-9.7,3-12.2,7.5C25,43.6,29,57.1,34,64.5c2.5,3.6,5.5,7.7,9.4,7.5c3.8-0.2,5.2-2.4,9.8-2.4
		c4.5,0,5.9,2.4,9.8,2.3c4.1-0.1,6.6-3.6,9.1-7.3c2.9-4.2,4.1-8.3,4.2-8.5C76.2,56.1,68.4,53.2,68.3,44.1"/>
	<path class="st1" d="M60.8,22c2-2.6,3.4-6,3-9.6c-3,0.1-6.7,2-8.8,4.5c-1.9,2.2-3.6,5.8-3.1,9.2C55.3,26.4,58.7,24.5,60.8,22"/>
	<path class="st1" d="M123.3,71.5H118l-2.9-9.1H105l-2.8,9.1H97l10-31.1h6.2L123.3,71.5z M114.2,58.6l-2.6-8.1
		c-0.3-0.8-0.8-2.8-1.6-5.9h-0.1c-0.3,1.3-0.8,3.3-1.5,5.9l-2.6,8.1H114.2z"/>
	<path class="st1" d="M149,60c0,3.8-1,6.8-3.1,9c-1.9,2-4.2,3-6.9,3c-3,0-5.1-1.1-6.4-3.2v11.8h-5V56.5c0-2.4-0.1-4.9-0.2-7.4h4.4
		l0.3,3.6h0.1c1.7-2.7,4.2-4,7.6-4c2.6,0,4.9,1,6.6,3.1C148.1,53.9,149,56.6,149,60 M143.9,60.2c0-2.2-0.5-4-1.5-5.4
		c-1.1-1.5-2.5-2.2-4.3-2.2c-1.2,0-2.3,0.4-3.3,1.2c-1,0.8-1.7,1.9-2,3.2c-0.2,0.6-0.2,1.1-0.2,1.5v3.7c0,1.6,0.5,3,1.5,4.1
		c1,1.1,2.3,1.7,3.9,1.7c1.9,0,3.3-0.7,4.4-2.2C143.4,64.5,143.9,62.6,143.9,60.2"/>
	<path class="st1" d="M174.8,60c0,3.8-1,6.8-3.1,9c-1.9,2-4.2,3-6.9,3c-3,0-5.1-1.1-6.4-3.2v11.8h-5V56.5c0-2.4-0.1-4.9-0.2-7.4h4.4
		l0.3,3.6h0.1c1.7-2.7,4.2-4,7.6-4c2.6,0,4.9,1,6.6,3.1C173.9,53.9,174.8,56.6,174.8,60 M169.7,60.2c0-2.2-0.5-4-1.5-5.4
		c-1.1-1.5-2.5-2.2-4.3-2.2c-1.2,0-2.3,0.4-3.3,1.2c-1,0.8-1.7,1.9-2,3.2c-0.2,0.6-0.2,1.1-0.2,1.5v3.7c0,1.6,0.5,3,1.5,4.1
		c1,1.1,2.3,1.7,3.9,1.7c1.9,0,3.3-0.7,4.4-2.2C169.2,64.5,169.7,62.6,169.7,60.2"/>
	<path class="st1" d="M203.6,62.8c0,2.6-0.9,4.8-2.8,6.5c-2,1.8-4.8,2.7-8.5,2.7c-3.3,0-6-0.6-8.1-1.9l1.2-4.2
		c2.2,1.3,4.6,1.9,7.2,1.9c1.9,0,3.3-0.4,4.4-1.3c1-0.8,1.6-2,1.6-3.4c0-1.3-0.4-2.3-1.3-3.2c-0.9-0.9-2.3-1.7-4.3-2.4
		c-5.4-2-8.2-5-8.2-8.9c0-2.6,1-4.6,2.9-6.3c1.9-1.6,4.5-2.4,7.6-2.4c2.8,0,5.2,0.5,7.1,1.5l-1.2,4.1c-1.8-1-3.8-1.4-6-1.4
		c-1.8,0-3.1,0.4-4.1,1.3c-0.8,0.8-1.2,1.7-1.2,2.8c0,1.2,0.5,2.2,1.4,3c0.8,0.7,2.3,1.5,4.5,2.4c2.7,1.1,4.6,2.3,5.9,3.8
		C203,58.9,203.6,60.7,203.6,62.8"/>
	<path class="st1" d="M220.1,52.8h-5.5v10.9c0,2.8,1,4.2,2.9,4.2c0.9,0,1.6-0.1,2.2-0.2l0.1,3.8c-1,0.4-2.3,0.6-3.9,0.6
		c-2,0-3.5-0.6-4.6-1.8c-1.1-1.2-1.7-3.2-1.7-6V52.8h-3.3v-3.7h3.3V45l4.9-1.5v5.6h5.5V52.8z"/>
	<path class="st1" d="M244.8,60.1c0,3.4-1,6.3-3,8.5c-2.1,2.3-4.8,3.4-8.2,3.4c-3.3,0-5.9-1.1-7.9-3.3c-2-2.2-2.9-4.9-2.9-8.3
		c0-3.5,1-6.3,3-8.5c2-2.2,4.7-3.3,8.1-3.3c3.3,0,5.9,1.1,7.9,3.3C243.9,54,244.8,56.8,244.8,60.1 M239.7,60.2
		c0-2.1-0.4-3.8-1.3-5.3c-1-1.8-2.5-2.7-4.5-2.7c-2,0-3.5,0.9-4.6,2.7c-0.9,1.5-1.3,3.3-1.3,5.4c0,2.1,0.4,3.8,1.3,5.3
		c1.1,1.8,2.6,2.7,4.5,2.7c1.9,0,3.4-0.9,4.5-2.7C239.2,64.1,239.7,62.3,239.7,60.2"/>
	<path class="st1" d="M261,53.5c-0.5-0.1-1-0.1-1.6-0.1c-1.8,0-3.1,0.7-4.1,2c-0.8,1.2-1.2,2.6-1.2,4.4v11.8h-5V56.2
		c0-2.6,0-4.9-0.1-7.1h4.3l0.2,4.3h0.1c0.5-1.5,1.4-2.7,2.5-3.6c1.1-0.8,2.3-1.2,3.6-1.2c0.5,0,0.9,0,1.2,0.1L261,53.5z"/>
	<path class="st1" d="M283.3,59.3c0,0.9-0.1,1.6-0.2,2.3h-14.9c0.1,2.2,0.8,3.9,2.2,5.1c1.3,1,2.9,1.6,4.9,1.6c2.2,0,4.2-0.4,6-1.1
		l0.8,3.5c-2.1,0.9-4.6,1.4-7.5,1.4c-3.5,0-6.2-1-8.2-3.1c-2-2-3-4.8-3-8.2c0-3.4,0.9-6.2,2.8-8.4c1.9-2.4,4.5-3.6,7.8-3.6
		c3.2,0,5.7,1.2,7.3,3.6C282.6,54.1,283.3,56.5,283.3,59.3 M278.6,58c0-1.5-0.3-2.8-1-3.8c-0.9-1.4-2.2-2.1-4-2.1c-1.6,0-3,0.7-4,2
		c-0.8,1.1-1.3,2.4-1.5,3.9H278.6z"/>
	<path class="st1" d="M111.8,29.3h-2.6l-1.4-4.5h-5l-1.4,4.5h-2.5l4.9-15.3h3L111.8,29.3z M107.4,22.9l-1.3-4
		c-0.1-0.4-0.4-1.4-0.8-2.9h0c-0.1,0.6-0.4,1.6-0.7,2.9l-1.3,4H107.4z"/>
	<path class="st1" d="M124.1,18.3l-4.2,11h-2.4l-4-11h2.6l1.9,5.8c0.3,1,0.6,1.9,0.8,2.8h0.1c0.2-0.8,0.4-1.7,0.8-2.8l1.9-5.8H124.1
		z"/>
	<path class="st1" d="M135.2,29.3H133l-0.2-1.3h-0.1c-0.8,1-1.8,1.5-3.2,1.5c-1,0-1.9-0.3-2.5-1c-0.6-0.6-0.9-1.4-0.9-2.2
		c0-1.3,0.6-2.4,1.7-3.1c1.1-0.7,2.7-1.1,4.7-1V22c0-1.4-0.8-2.2-2.3-2.2c-1.1,0-2,0.3-2.9,0.8l-0.5-1.6c1-0.6,2.3-1,3.8-1
		c2.9,0,4.3,1.5,4.3,4.6v4.1C135,27.8,135.1,28.7,135.2,29.3 M132.7,25.5v-1.7c-2.7,0-4.1,0.7-4.1,2.2c0,0.6,0.2,1,0.5,1.3
		c0.3,0.3,0.7,0.4,1.2,0.4c0.5,0,1-0.2,1.5-0.5c0.5-0.3,0.7-0.8,0.8-1.3L132.7,25.5z"/>
	<path class="st1" d="M142,15c0,0.4-0.1,0.8-0.4,1.1c-0.3,0.3-0.7,0.4-1.1,0.4c-0.4,0-0.7-0.1-1-0.4c-0.3-0.3-0.4-0.6-0.4-1.1
		c0-0.4,0.1-0.8,0.4-1c0.3-0.3,0.6-0.4,1.1-0.4c0.4,0,0.8,0.1,1.1,0.4C141.9,14.2,142,14.6,142,15 M141.8,29.3h-2.4v-11h2.4V29.3z"
		/>
	<rect x="146.1" y="13.2" class="st1" width="2.4" height="16.1"/>
	<path class="st1" d="M161.2,29.3H159l-0.2-1.3h-0.1c-0.8,1-1.8,1.5-3.2,1.5c-1,0-1.9-0.3-2.5-1c-0.6-0.6-0.9-1.4-0.9-2.2
		c0-1.3,0.6-2.4,1.7-3.1c1.1-0.7,2.7-1.1,4.7-1V22c0-1.4-0.8-2.2-2.3-2.2c-1.1,0-2,0.3-2.9,0.8l-0.5-1.6c1-0.6,2.3-1,3.8-1
		c2.9,0,4.3,1.5,4.3,4.6v4.1C161,27.8,161.1,28.7,161.2,29.3 M158.6,25.5v-1.7c-2.7,0-4.1,0.7-4.1,2.2c0,0.6,0.2,1,0.5,1.3
		c0.3,0.3,0.7,0.4,1.2,0.4c0.5,0,1-0.2,1.5-0.5c0.5-0.3,0.7-0.8,0.8-1.3L158.6,25.5z"/>
	<path class="st1" d="M175.8,23.6c0,1.9-0.5,3.3-1.5,4.4c-0.9,1-2,1.5-3.3,1.5c-1.6,0-2.7-0.6-3.5-1.9h0l-0.1,1.7h-2.1
		c0.1-0.9,0.1-1.9,0.1-3V13.2h2.4v6.7c0.7-1.2,1.9-1.8,3.5-1.8c1.3,0,2.4,0.5,3.3,1.5C175.4,20.6,175.8,22,175.8,23.6 M173.3,23.7
		c0-1.1-0.2-1.9-0.7-2.6c-0.5-0.7-1.2-1.1-2.2-1.1c-0.6,0-1.1,0.2-1.6,0.6c-0.5,0.4-0.8,0.9-1,1.6c-0.1,0.3-0.1,0.5-0.1,0.8v1.9
		c0,0.8,0.2,1.4,0.8,2c0.5,0.5,1.1,0.8,1.9,0.8c0.9,0,1.6-0.3,2.2-1C173,25.9,173.3,24.9,173.3,23.7"/>
	<rect x="179.4" y="13.2" class="st1" width="2.5" height="16.1"/>
	<path class="st1" d="M195.3,23.3c0,0.4,0,0.8-0.1,1.1h-7.3c0,1.1,0.4,1.9,1.1,2.5c0.6,0.5,1.4,0.8,2.4,0.8c1.1,0,2.1-0.2,3-0.5
		l0.4,1.7c-1,0.5-2.3,0.7-3.7,0.7c-1.7,0-3-0.5-4-1.5c-1-1-1.5-2.4-1.5-4c0-1.7,0.5-3,1.4-4.1c1-1.2,2.2-1.8,3.8-1.8
		c1.6,0,2.8,0.6,3.6,1.8C195,20.7,195.3,21.9,195.3,23.3 M192.9,22.6c0-0.7-0.1-1.4-0.5-1.9c-0.4-0.7-1.1-1-2-1c-0.8,0-1.4,0.3-2,1
		c-0.4,0.5-0.6,1.2-0.7,1.9H192.9z"/>
	<path class="st1" d="M215.5,23.7c0,1.7-0.5,3.1-1.5,4.2c-1,1.1-2.4,1.7-4,1.7c-1.6,0-2.9-0.5-3.9-1.6c-1-1.1-1.4-2.4-1.4-4.1
		c0-1.7,0.5-3.1,1.5-4.2c1-1.1,2.3-1.6,4-1.6c1.6,0,2.9,0.5,3.9,1.6C215,20.7,215.5,22.1,215.5,23.7 M213,23.8c0-1-0.2-1.9-0.7-2.6
		c-0.5-0.9-1.2-1.3-2.2-1.3c-1,0-1.7,0.4-2.2,1.3c-0.4,0.7-0.7,1.6-0.7,2.6c0,1,0.2,1.9,0.7,2.6c0.5,0.9,1.3,1.3,2.2,1.3
		c0.9,0,1.7-0.4,2.2-1.3C212.8,25.6,213,24.8,213,23.8"/>
	<path class="st1" d="M228.7,29.3h-2.4V23c0-2-0.7-2.9-2.2-2.9c-0.7,0-1.3,0.3-1.8,0.8c-0.5,0.5-0.7,1.2-0.7,1.9v6.5h-2.5v-7.9
		c0-1,0-2-0.1-3.2h2.2l0.1,1.7h0.1c0.3-0.5,0.7-1,1.3-1.3c0.7-0.4,1.4-0.6,2.2-0.6c1,0,1.9,0.3,2.6,1c0.8,0.8,1.3,2,1.3,3.6V29.3z"
		/>
	<path class="st1" d="M244.7,20.1H242v5.4c0,1.4,0.5,2,1.4,2c0.4,0,0.8,0,1.1-0.1l0.1,1.9c-0.5,0.2-1.1,0.3-1.9,0.3
		c-1,0-1.7-0.3-2.3-0.9c-0.5-0.6-0.8-1.6-0.8-3v-5.6H238v-1.8h1.6v-2l2.4-0.7v2.7h2.7V20.1z"/>
	<path class="st1" d="M257.7,29.3h-2.4V23c0-2-0.7-3-2.2-3c-1.1,0-1.9,0.6-2.3,1.7c-0.1,0.2-0.1,0.5-0.1,0.9v6.6h-2.4V13.2h2.4v6.6
		h0c0.8-1.2,1.9-1.8,3.3-1.8c1,0,1.9,0.3,2.5,1c0.8,0.8,1.2,2.1,1.2,3.7V29.3z"/>
	<path class="st1" d="M270.3,23.3c0,0.4,0,0.8-0.1,1.1h-7.3c0,1.1,0.4,1.9,1.1,2.5c0.6,0.5,1.4,0.8,2.4,0.8c1.1,0,2.1-0.2,3-0.5
		l0.4,1.7c-1,0.5-2.3,0.7-3.7,0.7c-1.7,0-3-0.5-4-1.5c-1-1-1.5-2.4-1.5-4c0-1.7,0.5-3,1.4-4.1c1-1.2,2.2-1.8,3.8-1.8
		c1.6,0,2.8,0.6,3.6,1.8C269.9,20.7,270.3,21.9,270.3,23.3 M267.9,22.6c0-0.7-0.1-1.4-0.5-1.9c-0.4-0.7-1.1-1-2-1
		c-0.8,0-1.5,0.3-2,1c-0.4,0.5-0.6,1.2-0.7,1.9H267.9z"/>
</g>
</svg>
