<?xml version="1.0" encoding="utf-8"?>
<!-- Generator: Adobe Illustrator 17.0.2, SVG Export Plug-In . SVG Version: 6.00 Build 0)  -->
<!DOCTYPE svg PUBLIC "-//W3C//DTD SVG 1.1//EN" "http://www.w3.org/Graphics/SVG/1.1/DTD/svg11.dtd">
<svg version="1.1" id="Layer_1" xmlns="http://www.w3.org/2000/svg" xmlns:xlink="http://www.w3.org/1999/xlink" x="0px" y="0px"
	 width="331.651px" height="210.948px" viewBox="0 0 331.651 210.948" enable-background="new 0 0 331.651 210.948"
	 xml:space="preserve">
<circle fill="#E81E25" cx="265.539" cy="141.069" r="65"/>
<path fill="#010201" d="M320.989,207.75c-5.831,3.315-12.209,3.192-18.643,3.189c-93.149-0.042-186.298-0.041-279.446,0.009
	c-7.6,0.004-13.789-2.674-18.425-8.665c-2.979-3.85-4.475-8.286-4.474-13.205C0.013,133.422-0.01,77.766,0.039,22.11
	C0.05,9.466,9.767,0.073,22.803,0.035c21.412-0.064,42.825-0.02,64.238-0.02c73.403,0.002,146.805,0.017,220.208-0.01
	c8.388-0.003,15.265,2.834,20.058,9.948c2.481,3.683,3.708,7.774,3.712,12.214c0.013,14.164,0.007,28.328,0.02,42.492
	c0.001,0.91,0.094,1.82,0.143,2.731c-0.045,0.578-0.128,1.156-0.128,1.735c-0.001,21.66,0.005,43.32,0.011,64.98
	c-1.723,1.065-2.685,0.723-3.393-1.304c-0.55-1.574-0.664-3.254-1.1-4.868c-1.201-4.449-2.807-8.706-5.109-12.717
	c-1.023-1.783-2.21-3.568-2.166-5.782c-0.401-4.628-0.064-9.264-0.202-13.892c-0.033-1.118,0.3-2.352-0.728-3.257
	c-0.944-0.695-2.028-0.686-3.119-0.669c-6.243,0.092-12.486-0.106-18.732,0.118c-3.047,0.11-5.812-1.351-8.687-2.142
	c-9.685-2.664-19.278-2.195-28.797,0.693c-2.968,0.9-5.88,1.4-9.034,1.397c-78.038-0.083-156.076-0.064-234.114-0.069
	c-1.178,0-2.342-0.015-3.298,0.822c-0.726,0.856-0.562,1.895-0.562,2.876c-0.015,31.149,0.022,62.299-0.051,93.448
	c-0.012,4.884,4.446,10.739,10.339,10.148c0.33-0.033,0.666-0.001,0.999,0c94.943,0.075,189.886,0.32,284.829,0.324
	c6.951,0,11.502-5.533,11.214-11.248c-0.251-4.984-0.061-9.991-0.048-14.983c-0.137-1.754,0.645-3.228,1.5-4.656
	c3.405-5.691,5.746-11.757,6.635-18.358c0.143-1.064,0.312-2.154,0.937-3.07c0.919-1.347,1.847-1.266,2.905,0.216
	c0.008,14.23,0.143,28.46-0.053,42.686C331.122,197.526,327.607,203.602,320.989,207.75z"/>
<path fill="#DDD8DB" d="M331.056,146.686c0.154,0.051,0.309,0.099,0.465,0.144c0.008,15.07,0.363,30.152-0.13,45.205
	c-0.229,6.996-4.366,12.484-10.348,16.328c-0.018-0.205-0.035-0.409-0.053-0.614c3.568-2.985,6.867-6.171,8.476-10.719
	c0.975-2.756,1.597-5.543,1.591-8.495C331.024,174.586,331.05,160.636,331.056,146.686z"/>
<path fill="#DAE2E3" d="M165.57,36.941c-50.484,0-100.969-0.02-151.453,0.058c-2.517,0.004-3.344-0.568-3.183-3.158
	c0.242-3.901,0.026-7.828,0.094-11.742c0.113-6.499,4.724-11.106,11.252-11.12c20.577-0.044,41.154-0.026,61.731-0.026
	c74.394-0.003,148.788,0.009,223.181-0.034c4.626-0.003,8.535,1.104,11.121,5.233c1.079,1.723,1.747,3.554,1.732,5.633
	c-0.031,4.248-0.11,8.502,0.065,12.744c0.087,2.097-0.709,2.46-2.587,2.455c-20.327-0.058-40.654-0.035-60.981-0.035
	c-30.324,0-60.648,0-90.972,0C165.57,36.946,165.57,36.943,165.57,36.941z"/>
<path fill="#E4E1DB" d="M319.932,110.122c-0.695-0.176-1.122-0.701-1.507-1.236c-4.856-6.731-11.124-11.818-18.352-15.792
	c-0.506-0.278-1.004-0.575-1.484-0.895c-0.189-0.126-0.317-0.342-0.975-1.079c7.536,0,14.543,0,21.545,0
	c0.882,0.331,0.9,1.094,0.895,1.852C320.017,98.689,319.973,104.405,319.932,110.122z"/>
<path fill="#D9DCE0" d="M319.923,172.272c-0.127,0.189-0.255,0.376-0.382,0.563h0c-0.832-0.052-0.983,0.739-1.33,1.184
	c-9.386,12.036-21.567,19.144-36.744,21.171c-12.233,1.634-23.591-0.852-34.214-6.935c-21.614-12.378-32.797-39.236-24.315-64.1
	c4.336-12.71,12.243-22.441,23.629-29.482c1.365-0.844,3.243-1.087,3.985-2.841c-0.001,0-0.002,0-0.002,0
	c0.228-0.043,0.463-0.089,0.268-0.402c-0.034-0.054-0.151-0.075-0.231-0.077c-0.998-0.036-1.996-0.092-2.995-0.092
	c-77.548-0.003-155.096,0-232.644-0.005c-0.994,0-1.987-0.087-2.981-0.133C10.789,91.53,11,92.544,11,93.43
	c0.003,31.907,0.012,63.813,0.033,95.72c0.001,1.159,0.064,2.299,0.52,3.427c2.106,5.214,5.436,7.351,11.708,7.352
	c75.727,0.008,151.453,0.011,227.18,0.014c19.577,0,39.155-0.088,58.731,0.038c5.87,0.038,10.612-5.009,10.775-9.727
	C320.153,184.267,319.95,178.266,319.923,172.272z"/>
<path fill="#FFFFFF" d="M310.073,141.161c0.058,19.63-15.795,35.59-35.386,35.623c-19.333,0.032-35.541-16.038-35.586-35.284
	c-0.046-19.733,15.828-35.614,35.617-35.635C294.316,105.844,310.015,121.518,310.073,141.161z"/>
<path fill="#020202" d="M124.546,160.001c-27.913,0-55.826,0-83.738,0c-3.32,0-3.316-0.003-3.315-3.256
	c0.001-10.332,0.075-20.665-0.056-30.995c-0.032-2.526,0.717-3.269,3.248-3.266c55.992,0.066,111.984,0.066,167.976,0.017
	c2.372-0.002,3.161,0.666,3.131,3.124c-0.127,10.497-0.124,20.997,0.008,31.494c0.03,2.399-0.793,2.92-3.016,2.915
	c-28.079-0.062-56.159-0.041-84.238-0.041C124.546,159.996,124.546,159.998,124.546,160.001z"/>
<path fill="#D9DCE0" d="M120.859,167.766c0.127,1.029,0.488,2.266-0.774,2.319c-1.302,0.054-0.83-1.201-0.93-2.067
	c-0.221-1.909-1.481-1.815-2.884-1.252c-0.575,0.231-1.146,0.79-1.798,0.148c-0.263-0.26-0.325-0.585-0.127-0.892
	c0.49-0.76,1.263-0.661,2.002-0.582c0.642,0.068,1.228,0.526,1.919,0.277C120.402,164.949,121.269,165.682,120.859,167.766z"/>
<path fill="#2C2B2A" d="M274.428,151.694c-1.164,0.001-2.329,0.024-3.492-0.008c-0.71-0.02-1.577,0.225-1.909-0.737
	c-0.276-0.8,0.087-1.427,0.616-2.027c1.593-1.805,3.186-3.611,4.719-5.466c1.383-1.673,2.476-3.522,2.992-5.665
	c0.946-3.925-1.52-6.349-5.478-5.374c-0.926,0.228-2.168,0.966-2.501-0.448c-0.315-1.336,1.173-1.46,2.054-1.645
	c2.795-0.588,5.557-0.506,7.534,1.923c1.911,2.347,1.511,4.893,0.289,7.478c-1.338,2.829-3.435,5.052-5.495,7.318
	c-0.505,0.555-1.243,1.137-0.963,1.883c0.324,0.864,1.303,0.423,1.991,0.461c1.243,0.07,2.494,0.005,3.741,0.029
	c0.828,0.016,1.857-0.041,1.788,1.162c-0.064,1.108-1.034,1.117-1.894,1.115C277.089,151.691,275.758,151.693,274.428,151.694z"/>
<path fill="#1E1D1C" d="M291.369,152.004c-1.153-0.064-2.348,0.07-3.334-0.75c-0.376-0.313-0.935-0.563-0.759-1.149
	c0.208-0.693,0.864-0.794,1.44-0.616c1.141,0.355,2.301,0.356,3.458,0.296c2.094-0.11,3.878-1.76,4.005-3.71
	c0.142-2.181-0.771-3.678-2.974-4.244c-0.161-0.041-0.34-0.047-0.482-0.123c-0.756-0.412-2.132-0.212-2.148-1.322
	c-0.016-1.167,1.369-0.967,2.144-1.293c2.263-0.952,3.549-2.749,3.053-4.481c-0.534-1.866-2.983-2.839-5.406-2.296
	c-0.766,0.172-1.974,1.452-2.366-0.321c-0.316-1.429,1.119-1.486,1.984-1.712c4.671-1.218,8.553,1.577,8.232,5.791
	c-0.113,1.482-1.023,2.377-1.949,3.338c-0.362,0.376-1.319,0.763-0.248,1.448c2.608,1.669,3.396,3.997,2.308,6.873
	C297.328,150.373,294.545,152.023,291.369,152.004z"/>
<path fill="#1C1C1B" d="M258.206,140.034c0.003,2.327,0.061,4.657-0.017,6.981c-0.053,1.595,0.314,2.589,2.184,2.443
	c0.783-0.061,1.886-0.176,1.886,1.029c0.001,1.333-1.147,1.17-2.045,1.176c-2.161,0.016-4.322,0.008-6.483,0.009
	c-0.845,0-1.84,0.051-1.91-1.078c-0.076-1.225,0.985-1.207,1.787-1.125c1.87,0.193,2.466-0.56,2.407-2.417
	c-0.123-3.903-0.108-7.814-0.009-11.718c0.048-1.901-0.566-2.13-2.127-1.335c-0.522,0.266-1.255,1.299-1.818,0.178
	c-0.49-0.975,0.13-1.742,1.019-2.236c0.216-0.12,0.471-0.166,0.692-0.278c4.015-2.03,4.428-1.785,4.43,2.637
	C258.204,136.21,258.204,138.122,258.206,140.034z"/>
</svg>
