<?xml version="1.0" encoding="utf-8"?>
<!-- Generator: Adobe Illustrator 21.0.0, SVG Export Plug-In . SVG Version: 6.00 Build 0)  -->
<svg version="1.1" id="Layer_1" xmlns="http://www.w3.org/2000/svg" xmlns:xlink="http://www.w3.org/1999/xlink" x="0px" y="0px"
	 viewBox="0 0 24 24" style="enable-background:new 0 0 24 24;" xml:space="preserve">
<style type="text/css">
	.st0{fill:#5B5B5B;}
	.st1{display:none;}
	.st2{display:inline;}
	.st3{font-family:'MyriadPro-Regular';}
	.st4{font-size:12px;}
</style>
<g id="icons">
	<path class="st0" d="M0.1,4.7l0.9,1.6L0.1,8C0,8.1,0,8.2,0,8.3s0,0.2,0.1,0.2l0.9,1.6l-0.9,1.6c-0.1,0.1-0.1,0.3,0,0.5l0.9,1.6
		l-0.9,1.6C0,15.7,0,15.8,0.1,16l0.9,1.6l-0.9,1.6c-0.1,0.2-0.1,0.3,0,0.5C0.2,19.9,0.3,20,0.5,20h23c0.2,0,0.3-0.1,0.4-0.2
		c0.1-0.2,0.1-0.3,0-0.5l-0.9-1.6l0.9-1.6c0.1-0.1,0.1-0.3,0-0.5l-0.9-1.6l0.9-1.6c0.1-0.1,0.1-0.3,0-0.5l-0.9-1.6l0.9-1.6
		C24,8.3,24,8.2,23.9,8l-0.9-1.6l0.9-1.6c0.1-0.2,0.1-0.3,0-0.5C23.8,4.1,23.7,4,23.5,4h-23C0.3,4,0.2,4.1,0.1,4.2
		C0,4.4,0,4.6,0.1,4.7z M22.7,5l-0.6,1.1c-0.1,0.1-0.1,0.3,0,0.5l0.9,1.6l-0.9,1.6c-0.1,0.1-0.1,0.3,0,0.5l0.9,1.6l-0.9,1.6
		c-0.1,0.1-0.1,0.3,0,0.5l0.9,1.6l-0.9,1.6c-0.1,0.1-0.1,0.3,0,0.5l0.6,1.1H1.3l0.6-1.1c0.1-0.1,0.1-0.3,0-0.5l-0.9-1.6l0.9-1.6
		C2,14,2,13.8,1.9,13.6L1.1,12l0.9-1.6C2,10.2,2,10,1.9,9.9L1.1,8.3l0.9-1.6C2,6.5,2,6.5,2,6.4s0-0.2-0.1-0.2L1.3,5H22.7z"/>
	<path class="st0" d="M18,7.5v5c0,0.3,0.2,0.5,0.5,0.5c0.3,0,0.5-0.2,0.5-0.5v-5C19,7.2,18.8,7,18.5,7C18.2,7,18,7.2,18,7.5z"/>
	<path class="st0" d="M14,7.5v9c0,0.3,0.2,0.5,0.5,0.5s0.5-0.2,0.5-0.5v-9C15,7.2,14.8,7,14.5,7S14,7.2,14,7.5z"/>
	<path class="st0" d="M11,7.5v9c0,0.3,0.2,0.5,0.5,0.5s0.5-0.2,0.5-0.5v-9C12,7.2,11.8,7,11.5,7S11,7.2,11,7.5z"/>
	<path class="st0" d="M8,7.5v9C8,16.8,8.2,17,8.5,17S9,16.8,9,16.5v-9C9,7.2,8.8,7,8.5,7S8,7.2,8,7.5z"/>
	<path class="st0" d="M5,7.5v6C5,13.8,5.2,14,5.5,14S6,13.8,6,13.5v-6C6,7.2,5.8,7,5.5,7S5,7.2,5,7.5z"/>
	<path class="st0" d="M6,16.5v-1C6,15.2,5.8,15,5.5,15S5,15.2,5,15.5v1C5,16.8,5.2,17,5.5,17S6,16.8,6,16.5z"/>
</g>
<g id="nyt_x5F_exporter_x5F_info" class="st1">
	<text transform="matrix(1 0 0 1 -65 -43)" class="st2 st3 st4">&lt;</text>
	<text transform="matrix(1 0 0 1 -57.848 -43)" class="st2 st3 st4">n</text>
	<text transform="matrix(1 0 0 1 -51.344 -43)" class="st2 st3 st4">yt_p</text>
	<text transform="matrix(1 0 0 1 -28.893 -43)" class="st2 st3 st4">r</text>
	<text transform="matrix(1 0 0 1 -25.088 -43)" class="st2 st3 st4">e</text>
	<text transform="matrix(1 0 0 1 -19.076 -43)" class="st2 st3 st4">f</text>
	<text transform="matrix(1 0 0 1 -15.68 -43)" class="st2 st3 st4">s&gt;</text>
	<text transform="matrix(1 0 0 1 -65 -28.6)" class="st2 st3 st4">  &lt;</text>
	<text transform="matrix(1 0 0 1 -52.76 -28.6)" class="st2 st3 st4">n</text>
	<text transform="matrix(1 0 0 1 -46.256 -28.6)" class="st2 st3 st4">yt_p</text>
	<text transform="matrix(1 0 0 1 -23.805 -28.6)" class="st2 st3 st4">r</text>
	<text transform="matrix(1 0 0 1 -20 -28.6)" class="st2 st3 st4">efx&gt;&lt;/</text>
	<text transform="matrix(1 0 0 1 16.263 -28.6)" class="st2 st3 st4">n</text>
	<text transform="matrix(1 0 0 1 22.767 -28.6)" class="st2 st3 st4">yt_p</text>
	<text transform="matrix(1 0 0 1 45.219 -28.6)" class="st2 st3 st4">r</text>
	<text transform="matrix(1 0 0 1 49.022 -28.6)" class="st2 st3 st4">efx&gt;</text>
	<text transform="matrix(1 0 0 1 -65 -14.2)" class="st2 st3 st4">  &lt;</text>
	<text transform="matrix(1 0 0 1 -52.76 -14.2)" class="st2 st3 st4">n</text>
	<text transform="matrix(1 0 0 1 -46.256 -14.2)" class="st2 st3 st4">yt_sufx&gt;&lt;/</text>
	<text transform="matrix(1 0 0 1 14.487 -14.2)" class="st2 st3 st4">n</text>
	<text transform="matrix(1 0 0 1 20.991 -14.2)" class="st2 st3 st4">yt_sufx&gt;</text>
	<text transform="matrix(1 0 0 1 -65 0.2)" class="st2 st3 st4">  &lt;</text>
	<text transform="matrix(1 0 0 1 -52.76 0.2)" class="st2 st3 st4">n</text>
	<text transform="matrix(1 0 0 1 -46.256 0.2)" class="st2 st3 st4">yt_base_p</text>
	<text transform="matrix(1 0 0 1 5.571 0.2)" class="st2 st3 st4">a</text>
	<text transform="matrix(1 0 0 1 11.307 0.2)" class="st2 st3 st4">th&gt;~/</text>
	<text transform="matrix(1 0 0 1 40.358 0.2)" class="st2 st3 st4">D</text>
	<text transform="matrix(1 0 0 1 48.398 0.2)" class="st2 st3 st4">esk</text>
	<text transform="matrix(1 0 0 1 64.79 0.2)" class="st2 st3 st4">t</text>
	<text transform="matrix(1 0 0 1 68.69 0.2)" class="st2 st3 st4">op/01%20Slimi</text>
	<text transform="matrix(1 0 0 1 144.721 0.2)" class="st2 st3 st4">c</text>
	<text transform="matrix(1 0 0 1 150.024 0.2)" class="st2 st3 st4">ons/</text>
	<text transform="matrix(1 0 0 1 172.141 0.2)" class="st2 st3 st4">P</text>
	<text transform="matrix(1 0 0 1 178.332 0.2)" class="st2 st3 st4">ng/G</text>
	<text transform="matrix(1 0 0 1 203.568 0.2)" class="st2 st3 st4">r</text>
	<text transform="matrix(1 0 0 1 207.372 0.2)" class="st2 st3 st4">ey/384</text>
	<text transform="matrix(1 0 0 1 241.619 0.2)" class="st2 st3 st4">p</text>
	<text transform="matrix(1 0 0 1 248.279 0.2)" class="st2 st3 st4">x/</text>
	<text transform="matrix(1 0 0 1 257.951 0.2)" class="st2 st3 st4">E</text>
	<text transform="matrix(1 0 0 1 263.807 0.2)" class="st2 st3 st4">c</text>
	<text transform="matrix(1 0 0 1 269.11 0.2)" class="st2 st3 st4">omme</text>
	<text transform="matrix(1 0 0 1 301.727 0.2)" class="st2 st3 st4">r</text>
	<text transform="matrix(1 0 0 1 305.53 0.2)" class="st2 st3 st4">c</text>
	<text transform="matrix(1 0 0 1 310.835 0.2)" class="st2 st3 st4">e&lt;/</text>
	<text transform="matrix(1 0 0 1 328.114 0.2)" class="st2 st3 st4">n</text>
	<text transform="matrix(1 0 0 1 334.618 0.2)" class="st2 st3 st4">yt_base_p</text>
	<text transform="matrix(1 0 0 1 386.445 0.2)" class="st2 st3 st4">a</text>
	<text transform="matrix(1 0 0 1 392.182 0.2)" class="st2 st3 st4">th&gt;</text>
	<text transform="matrix(1 0 0 1 -65 14.6)" class="st2 st3 st4">  &lt;</text>
	<text transform="matrix(1 0 0 1 -52.76 14.6)" class="st2 st3 st4">n</text>
	<text transform="matrix(1 0 0 1 -46.256 14.6)" class="st2 st3 st4">yt_scaling&gt;1600&lt;/</text>
	<text transform="matrix(1 0 0 1 47.33 14.6)" class="st2 st3 st4">n</text>
	<text transform="matrix(1 0 0 1 53.834 14.6)" class="st2 st3 st4">yt_scaling&gt;</text>
	<text transform="matrix(1 0 0 1 -65 29)" class="st2 st3 st4">  &lt;</text>
	<text transform="matrix(1 0 0 1 -52.76 29)" class="st2 st3 st4">n</text>
	<text transform="matrix(1 0 0 1 -46.256 29)" class="st2 st3 st4">yt_t</text>
	<text transform="matrix(1 0 0 1 -26.661 29)" class="st2 st3 st4">r</text>
	<text transform="matrix(1 0 0 1 -22.796 29)" class="st2 st3 st4">anspa</text>
	<text transform="matrix(1 0 0 1 7.011 29)" class="st2 st3 st4">r</text>
	<text transform="matrix(1 0 0 1 10.815 29)" class="st2 st3 st4">en</text>
	<text transform="matrix(1 0 0 1 23.487 29)" class="st2 st3 st4">c</text>
	<text transform="matrix(1 0 0 1 29.079 29)" class="st2 st3 st4">y&gt;true&lt;/</text>
	<text transform="matrix(1 0 0 1 73.67 29)" class="st2 st3 st4">n</text>
	<text transform="matrix(1 0 0 1 80.174 29)" class="st2 st3 st4">yt_t</text>
	<text transform="matrix(1 0 0 1 99.77 29)" class="st2 st3 st4">r</text>
	<text transform="matrix(1 0 0 1 103.634 29)" class="st2 st3 st4">anspa</text>
	<text transform="matrix(1 0 0 1 133.441 29)" class="st2 st3 st4">r</text>
	<text transform="matrix(1 0 0 1 137.246 29)" class="st2 st3 st4">en</text>
	<text transform="matrix(1 0 0 1 149.918 29)" class="st2 st3 st4">c</text>
	<text transform="matrix(1 0 0 1 155.51 29)" class="st2 st3 st4">y&gt;</text>
	<text transform="matrix(1 0 0 1 -65 43.4)" class="st2 st3 st4">  &lt;</text>
	<text transform="matrix(1 0 0 1 -52.76 43.4)" class="st2 st3 st4">n</text>
	<text transform="matrix(1 0 0 1 -46.256 43.4)" class="st2 st3 st4">yt_embed</text>
	<text transform="matrix(1 0 0 1 4.995 43.4)" class="st2 st3 st4">I</text>
	<text transform="matrix(1 0 0 1 7.983 43.4)" class="st2 st3 st4">mage&gt;true&lt;/</text>
	<text transform="matrix(1 0 0 1 75.434 43.4)" class="st2 st3 st4">n</text>
	<text transform="matrix(1 0 0 1 81.938 43.4)" class="st2 st3 st4">yt_embed</text>
	<text transform="matrix(1 0 0 1 133.189 43.4)" class="st2 st3 st4">I</text>
	<text transform="matrix(1 0 0 1 136.178 43.4)" class="st2 st3 st4">mage&gt;</text>
	<text transform="matrix(1 0 0 1 -65 57.8)" class="st2 st3 st4">  &lt;</text>
	<text transform="matrix(1 0 0 1 -52.76 57.8)" class="st2 st3 st4">n</text>
	<text transform="matrix(1 0 0 1 -46.256 57.8)" class="st2 st3 st4">yt_embed</text>
	<text transform="matrix(1 0 0 1 4.995 57.8)" class="st2 st3 st4">F</text>
	<text transform="matrix(1 0 0 1 10.467 57.8)" class="st2 st3 st4">o</text>
	<text transform="matrix(1 0 0 1 17.055 57.8)" class="st2 st3 st4">n</text>
	<text transform="matrix(1 0 0 1 23.667 57.8)" class="st2 st3 st4">t&gt;true&lt;/</text>
	<text transform="matrix(1 0 0 1 66.579 57.8)" class="st2 st3 st4">n</text>
	<text transform="matrix(1 0 0 1 73.083 57.8)" class="st2 st3 st4">yt_embed</text>
	<text transform="matrix(1 0 0 1 124.334 57.8)" class="st2 st3 st4">F</text>
	<text transform="matrix(1 0 0 1 129.806 57.8)" class="st2 st3 st4">o</text>
	<text transform="matrix(1 0 0 1 136.395 57.8)" class="st2 st3 st4">n</text>
	<text transform="matrix(1 0 0 1 143.006 57.8)" class="st2 st3 st4">t&gt;</text>
	<text transform="matrix(1 0 0 1 -65 72.2)" class="st2 st3 st4">  &lt;</text>
	<text transform="matrix(1 0 0 1 -52.76 72.2)" class="st2 st3 st4">n</text>
	<text transform="matrix(1 0 0 1 -46.256 72.2)" class="st2 st3 st4">yt_t</text>
	<text transform="matrix(1 0 0 1 -26.661 72.2)" class="st2 st3 st4">r</text>
	<text transform="matrix(1 0 0 1 -22.688 72.2)" class="st2 st3 st4">im</text>
	<text transform="matrix(1 0 0 1 -9.873 72.2)" class="st2 st3 st4">E</text>
	<text transform="matrix(1 0 0 1 -4.017 72.2)" class="st2 st3 st4">dges&gt;false&lt;/</text>
	<text transform="matrix(1 0 0 1 61.526 72.2)" class="st2 st3 st4">n</text>
	<text transform="matrix(1 0 0 1 68.03 72.2)" class="st2 st3 st4">yt_t</text>
	<text transform="matrix(1 0 0 1 87.626 72.2)" class="st2 st3 st4">r</text>
	<text transform="matrix(1 0 0 1 91.598 72.2)" class="st2 st3 st4">im</text>
	<text transform="matrix(1 0 0 1 104.414 72.2)" class="st2 st3 st4">E</text>
	<text transform="matrix(1 0 0 1 110.27 72.2)" class="st2 st3 st4">dges&gt;</text>
	<text transform="matrix(1 0 0 1 -65 86.6)" class="st2 st3 st4">  &lt;</text>
	<text transform="matrix(1 0 0 1 -52.76 86.6)" class="st2 st3 st4">n</text>
	<text transform="matrix(1 0 0 1 -46.256 86.6)" class="st2 st3 st4">yt_inner</text>
	<text transform="matrix(1 0 0 1 -4.569 86.6)" class="st2 st3 st4">P</text>
	<text transform="matrix(1 0 0 1 1.503 86.6)" class="st2 st3 st4">adding&gt;false&lt;/</text>
	<text transform="matrix(1 0 0 1 78.302 86.6)" class="st2 st3 st4">n</text>
	<text transform="matrix(1 0 0 1 84.806 86.6)" class="st2 st3 st4">yt_inner</text>
	<text transform="matrix(1 0 0 1 126.494 86.6)" class="st2 st3 st4">P</text>
	<text transform="matrix(1 0 0 1 132.565 86.6)" class="st2 st3 st4">adding&gt;</text>
	<text transform="matrix(1 0 0 1 -65 101)" class="st2 st3 st4">  &lt;</text>
	<text transform="matrix(1 0 0 1 -52.76 101)" class="st2 st3 st4">n</text>
	<text transform="matrix(1 0 0 1 -46.256 101)" class="st2 st3 st4">yt_</text>
	<text transform="matrix(1 0 0 1 -30.632 101)" class="st2 st3 st4">f</text>
	<text transform="matrix(1 0 0 1 -27.284 101)" class="st2 st3 st4">o</text>
	<text transform="matrix(1 0 0 1 -20.696 101)" class="st2 st3 st4">r</text>
	<text transform="matrix(1 0 0 1 -16.725 101)" class="st2 st3 st4">m</text>
	<text transform="matrix(1 0 0 1 -6.716 101)" class="st2 st3 st4">a</text>
	<text transform="matrix(1 0 0 1 -0.98 101)" class="st2 st3 st4">t&gt;PNG 24&lt;/</text>
	<text transform="matrix(1 0 0 1 58.298 101)" class="st2 st3 st4">n</text>
	<text transform="matrix(1 0 0 1 64.803 101)" class="st2 st3 st4">yt_</text>
	<text transform="matrix(1 0 0 1 80.426 101)" class="st2 st3 st4">f</text>
	<text transform="matrix(1 0 0 1 83.774 101)" class="st2 st3 st4">o</text>
	<text transform="matrix(1 0 0 1 90.362 101)" class="st2 st3 st4">r</text>
	<text transform="matrix(1 0 0 1 94.334 101)" class="st2 st3 st4">m</text>
	<text transform="matrix(1 0 0 1 104.342 101)" class="st2 st3 st4">a</text>
	<text transform="matrix(1 0 0 1 110.078 101)" class="st2 st3 st4">t&gt;</text>
	<text transform="matrix(1 0 0 1 -65 115.4)" class="st2 st3 st4">  &lt;</text>
	<text transform="matrix(1 0 0 1 -52.76 115.4)" class="st2 st3 st4">n</text>
	<text transform="matrix(1 0 0 1 -46.256 115.4)" class="st2 st3 st4">yt_a</text>
	<text transform="matrix(1 0 0 1 -24.849 115.4)" class="st2 st3 st4">r</text>
	<text transform="matrix(1 0 0 1 -20.637 115.4)" class="st2 st3 st4">tboa</text>
	<text transform="matrix(1 0 0 1 2.535 115.4)" class="st2 st3 st4">r</text>
	<text transform="matrix(1 0 0 1 6.339 115.4)" class="st2 st3 st4">ds&gt;all&lt;/</text>
	<text transform="matrix(1 0 0 1 47.727 115.4)" class="st2 st3 st4">n</text>
	<text transform="matrix(1 0 0 1 54.23 115.4)" class="st2 st3 st4">yt_a</text>
	<text transform="matrix(1 0 0 1 75.638 115.4)" class="st2 st3 st4">r</text>
	<text transform="matrix(1 0 0 1 79.85 115.4)" class="st2 st3 st4">tboa</text>
	<text transform="matrix(1 0 0 1 103.021 115.4)" class="st2 st3 st4">r</text>
	<text transform="matrix(1 0 0 1 106.826 115.4)" class="st2 st3 st4">ds&gt;</text>
	<text transform="matrix(1 0 0 1 -65 129.8)" class="st2 st3 st4">  &lt;</text>
	<text transform="matrix(1 0 0 1 -52.76 129.8)" class="st2 st3 st4">n</text>
	<text transform="matrix(1 0 0 1 -46.256 129.8)" class="st2 st3 st4">yt_l</text>
	<text transform="matrix(1 0 0 1 -27.8 129.8)" class="st2 st3 st4">a</text>
	<text transform="matrix(1 0 0 1 -22.112 129.8)" class="st2 st3 st4">y</text>
	<text transform="matrix(1 0 0 1 -16.581 129.8)" class="st2 st3 st4">ers&gt;none&lt;/</text>
	<text transform="matrix(1 0 0 1 42.447 129.8)" class="st2 st3 st4">n</text>
	<text transform="matrix(1 0 0 1 48.951 129.8)" class="st2 st3 st4">yt_l</text>
	<text transform="matrix(1 0 0 1 67.406 129.8)" class="st2 st3 st4">a</text>
	<text transform="matrix(1 0 0 1 73.095 129.8)" class="st2 st3 st4">y</text>
	<text transform="matrix(1 0 0 1 78.626 129.8)" class="st2 st3 st4">ers&gt;</text>
	<text transform="matrix(1 0 0 1 -65 144.2)" class="st2 st3 st4">  &lt;</text>
	<text transform="matrix(1 0 0 1 -52.76 144.2)" class="st2 st3 st4">n</text>
	<text transform="matrix(1 0 0 1 -46.256 144.2)" class="st2 st3 st4">yt_</text>
	<text transform="matrix(1 0 0 1 -30.632 144.2)" class="st2 st3 st4">e</text>
	<text transform="matrix(1 0 0 1 -24.656 144.2)" class="st2 st3 st4">xpo</text>
	<text transform="matrix(1 0 0 1 -5.685 144.2)" class="st2 st3 st4">r</text>
	<text transform="matrix(1 0 0 1 -1.473 144.2)" class="st2 st3 st4">t</text>
	<text transform="matrix(1 0 0 1 2.499 144.2)" class="st2 st3 st4">A</text>
	<text transform="matrix(1 0 0 1 9.807 144.2)" class="st2 st3 st4">r</text>
	<text transform="matrix(1 0 0 1 14.019 144.2)" class="st2 st3 st4">tboa</text>
	<text transform="matrix(1 0 0 1 37.19 144.2)" class="st2 st3 st4">r</text>
	<text transform="matrix(1 0 0 1 40.995 144.2)" class="st2 st3 st4">ds&gt;true&lt;/</text>
	<text transform="matrix(1 0 0 1 91.454 144.2)" class="st2 st3 st4">n</text>
	<text transform="matrix(1 0 0 1 97.958 144.2)" class="st2 st3 st4">yt_</text>
	<text transform="matrix(1 0 0 1 113.582 144.2)" class="st2 st3 st4">e</text>
	<text transform="matrix(1 0 0 1 119.558 144.2)" class="st2 st3 st4">xpo</text>
	<text transform="matrix(1 0 0 1 138.529 144.2)" class="st2 st3 st4">r</text>
	<text transform="matrix(1 0 0 1 142.741 144.2)" class="st2 st3 st4">t</text>
	<text transform="matrix(1 0 0 1 146.713 144.2)" class="st2 st3 st4">A</text>
	<text transform="matrix(1 0 0 1 154.021 144.2)" class="st2 st3 st4">r</text>
	<text transform="matrix(1 0 0 1 158.233 144.2)" class="st2 st3 st4">tboa</text>
	<text transform="matrix(1 0 0 1 181.405 144.2)" class="st2 st3 st4">r</text>
	<text transform="matrix(1 0 0 1 185.209 144.2)" class="st2 st3 st4">ds&gt;</text>
	<text transform="matrix(1 0 0 1 -65 158.6)" class="st2 st3 st4">  &lt;</text>
	<text transform="matrix(1 0 0 1 -52.76 158.6)" class="st2 st3 st4">n</text>
	<text transform="matrix(1 0 0 1 -46.256 158.6)" class="st2 st3 st4">yt_i</text>
	<text transform="matrix(1 0 0 1 -27.824 158.6)" class="st2 st3 st4">g</text>
	<text transform="matrix(1 0 0 1 -21.188 158.6)" class="st2 st3 st4">no</text>
	<text transform="matrix(1 0 0 1 -7.94 158.6)" class="st2 st3 st4">r</text>
	<text transform="matrix(1 0 0 1 -4.137 158.6)" class="st2 st3 st4">e</text>
	<text transform="matrix(1 0 0 1 1.875 158.6)" class="st2 st3 st4">W</text>
	<text transform="matrix(1 0 0 1 11.631 158.6)" class="st2 st3 st4">a</text>
	<text transform="matrix(1 0 0 1 17.415 158.6)" class="st2 st3 st4">r</text>
	<text transform="matrix(1 0 0 1 21.387 158.6)" class="st2 st3 st4">nings&gt;true&lt;/</text>
	<text transform="matrix(1 0 0 1 87.914 158.6)" class="st2 st3 st4">n</text>
	<text transform="matrix(1 0 0 1 94.418 158.6)" class="st2 st3 st4">yt_i</text>
	<text transform="matrix(1 0 0 1 112.85 158.6)" class="st2 st3 st4">g</text>
	<text transform="matrix(1 0 0 1 119.486 158.6)" class="st2 st3 st4">no</text>
	<text transform="matrix(1 0 0 1 132.733 158.6)" class="st2 st3 st4">r</text>
	<text transform="matrix(1 0 0 1 136.538 158.6)" class="st2 st3 st4">e</text>
	<text transform="matrix(1 0 0 1 142.55 158.6)" class="st2 st3 st4">W</text>
	<text transform="matrix(1 0 0 1 152.306 158.6)" class="st2 st3 st4">a</text>
	<text transform="matrix(1 0 0 1 158.09 158.6)" class="st2 st3 st4">r</text>
	<text transform="matrix(1 0 0 1 162.062 158.6)" class="st2 st3 st4">nings&gt;</text>
	<text transform="matrix(1 0 0 1 -65 173)" class="st2 st3 st4">&lt;/</text>
	<text transform="matrix(1 0 0 1 -53.732 173)" class="st2 st3 st4">n</text>
	<text transform="matrix(1 0 0 1 -47.228 173)" class="st2 st3 st4">yt_p</text>
	<text transform="matrix(1 0 0 1 -24.776 173)" class="st2 st3 st4">r</text>
	<text transform="matrix(1 0 0 1 -20.973 173)" class="st2 st3 st4">e</text>
	<text transform="matrix(1 0 0 1 -14.96 173)" class="st2 st3 st4">f</text>
	<text transform="matrix(1 0 0 1 -11.564 173)" class="st2 st3 st4">s&gt;</text>
</g>
</svg>
