<?xml version="1.0" encoding="utf-8"?>
<!-- Generator: Adobe Illustrator 21.0.0, SVG Export Plug-In . SVG Version: 6.00 Build 0)  -->
<svg version="1.1" id="icons" xmlns="http://www.w3.org/2000/svg" xmlns:xlink="http://www.w3.org/1999/xlink" x="0px" y="0px"
	 viewBox="0 0 24 24" style="enable-background:new 0 0 24 24;" xml:space="preserve">
<style type="text/css">
	.st0{fill:#5c6ac4;}
	.st1{fill:#5c6ac4;}
</style>
<linearGradient id="SVGID_1_" gradientUnits="userSpaceOnUse" x1="5.0141" y1="17.4858" x2="11.9858" y2="10.5142" gradientTransform="matrix(1 0 0 -1 0 26)">
	<stop  offset="0" style="stop-color:#00A3E0"/>
	<stop  offset="1" style="stop-color:#84BD00"/>
</linearGradient>
<path class="st0" d="M11.2,12.3c-0.2-0.3-0.5-0.5-0.9-0.6c-0.3-0.1-0.7-0.2-1.1-0.2H9V7.9h0.3c0.2,0,0.4,0,0.7,0.1
	c0.2,0.1,0.4,0.2,0.5,0.4c0.2,0.2,0.3,0.4,0.4,0.6c0.1,0.3,0.4,0.4,0.7,0.3c0.3-0.1,0.4-0.4,0.3-0.7c-0.1-0.3-0.3-0.6-0.6-0.9
	c-0.2-0.3-0.5-0.5-0.9-0.6C10,7,9.7,6.9,9.3,6.9H9V6.5C9,6.2,8.8,6,8.5,6S8,6.2,8,6.5v0.4H7.7C7.3,6.9,7,7,6.6,7.1
	C6.3,7.3,6,7.5,5.8,7.7C5.5,8,5.3,8.3,5.2,8.6C5.1,9,5,9.3,5,9.7s0.1,0.7,0.2,1.1c0.1,0.3,0.3,0.6,0.6,0.9c0.2,0.3,0.5,0.5,0.9,0.6
	c0.3,0.1,0.7,0.2,1.1,0.2H8v3.6H7.7c-0.2,0-0.4,0-0.7-0.1c-0.2-0.1-0.4-0.2-0.5-0.4c-0.2-0.2-0.3-0.4-0.4-0.6
	c-0.1-0.3-0.4-0.4-0.7-0.3c-0.3,0.1-0.4,0.4-0.3,0.7c0.1,0.3,0.3,0.6,0.6,0.9c0.2,0.3,0.5,0.5,0.9,0.6C7,17,7.3,17.1,7.7,17.1H8v0.4
	C8,17.8,8.2,18,8.5,18S9,17.8,9,17.5v-0.4h0.3c0.4,0,0.7-0.1,1.1-0.2c0.3-0.1,0.6-0.3,0.9-0.6c0.2-0.3,0.4-0.6,0.6-0.9
	c0.1-0.3,0.2-0.7,0.2-1.1s-0.1-0.7-0.2-1.1C11.7,12.9,11.5,12.6,11.2,12.3z M8,11.5H7.7c-0.2,0-0.4,0-0.7-0.1
	c-0.2-0.1-0.4-0.2-0.5-0.4c-0.2-0.2-0.3-0.4-0.4-0.6C6,10.2,6,10,6,9.7S6,9.2,6.1,9c0.1-0.2,0.2-0.4,0.4-0.6C6.7,8.3,6.8,8.1,7,8.1
	C7.3,8,7.5,7.9,7.7,7.9H8V11.5z M10.9,15c-0.1,0.2-0.2,0.4-0.4,0.6s-0.3,0.3-0.5,0.4c-0.2,0.1-0.4,0.1-0.7,0.1H9v-3.6h0.3
	c0.2,0,0.4,0,0.7,0.1c0.2,0.1,0.4,0.2,0.5,0.4c0.2,0.2,0.3,0.4,0.4,0.6C11,13.8,11,14,11,14.3S11,14.8,10.9,15z"/>
<linearGradient id="SVGID_2_" gradientUnits="userSpaceOnUse" x1="4.1393" y1="21.8608" x2="19.8608" y2="6.1393" gradientTransform="matrix(1 0 0 -1 0 26)">
	<stop  offset="0" style="stop-color:#00A3E0"/>
	<stop  offset="1" style="stop-color:#84BD00"/>
</linearGradient>
<path class="st1" d="M15,3H9c-5,0-9,4-9,9s4,9,9,9h6c5,0,9-4,9-9S20,3,15,3z M1,12c0-4.4,3.6-8,8-8s8,3.6,8,8s-3.6,8-8,8
	S1,16.4,1,12z M13.3,19.9c2.8-1.5,4.7-4.5,4.7-7.9s-1.9-6.3-4.7-7.9C17.1,4.8,20,8,20,12S17.1,19.2,13.3,19.9z M16.3,19.9
	c2.8-1.5,4.7-4.5,4.7-7.9s-1.9-6.3-4.7-7.9C20.1,4.8,23,8,23,12S20.1,19.2,16.3,19.9z"/>
</svg>
