<?xml version="1.0" encoding="utf-8"?>
<!-- Generator: Adobe Illustrator 21.0.0, SVG Export Plug-In . SVG Version: 6.00 Build 0)  -->
<svg version="1.1" id="Proximo" xmlns="http://www.w3.org/2000/svg" xmlns:xlink="http://www.w3.org/1999/xlink" x="0px" y="0px"
	 viewBox="0 0 72 72" style="enable-background:new 0 0 72 72;" xml:space="preserve">
<style type="text/css">
	.st0{fill:#2E7EF2;}
</style>
<g>
	<g>
		<path class="st0" d="M71.6,45.4l-6-6c-0.6-0.6-1.5-0.6-2.1,0l-24,24c-0.3,0.3-0.4,0.7-0.4,1.1v6c0,0.8,0.7,1.5,1.5,1.5h6
			c0.4,0,0.8-0.2,1.1-0.4l18-18c0,0,0,0,0,0s0,0,0,0l6-6C72.1,47,72.1,46,71.6,45.4z M45.9,69H42v-3.9l16.5-16.5l3.9,3.9L45.9,69z
			 M64.5,50.4l-3.9-3.9l3.9-3.9l3.9,3.9L64.5,50.4z M33,63H3V21h16.5c0.8,0,1.5-0.7,1.5-1.5V3h30v40.5c0,0.8,0.7,1.5,1.5,1.5
			c0.8,0,1.5-0.7,1.5-1.5v-42C54,0.7,53.3,0,52.5,0h-33c-0.1,0-0.2,0-0.3,0c-0.1,0-0.1,0-0.1,0c0,0-0.1,0-0.1,0c0,0-0.1,0-0.1,0.1
			c-0.1,0.1-0.3,0.2-0.4,0.3l-18,18c-0.1,0.1-0.2,0.2-0.3,0.4c0,0,0,0.1-0.1,0.1c0,0,0,0.1,0,0.1c0,0.1,0,0.1,0,0.2
			c0,0.1,0,0.2,0,0.3v45C0,65.3,0.7,66,1.5,66H33c0.8,0,1.5-0.7,1.5-1.5C34.5,63.7,33.8,63,33,63z M18,5.1V18H5.1L18,5.1z M45,24.7
			c0-3.4-3.6-4.6-6-5v-4.6c1.7,0.3,2.9,1.2,3,2c0.1,0.8,0.8,1.4,1.6,1.3c0.8-0.1,1.4-0.8,1.3-1.6c-0.2-2.4-2.7-4.3-6-4.8v-1.6
			C39,9.7,38.3,9,37.5,9S36,9.7,36,10.5v1.6c-3.5,0.5-6,2.6-6,5.1c0,3.4,3.6,4.6,6,5v4.6c-1.7-0.3-2.9-1.2-3-2
			c-0.1-0.8-0.8-1.4-1.6-1.3c-0.8,0.1-1.4,0.8-1.3,1.6c0.2,2.4,2.7,4.3,6,4.8v1.6c0,0.8,0.7,1.5,1.5,1.5s1.5-0.7,1.5-1.5v-1.6
			C42.5,29.4,45,27.3,45,24.7z M36,19.2c-2.4-0.6-3-1.4-3-1.9c0-0.8,1.2-1.7,3-2.1V19.2z M39,26.8v-4c2.4,0.6,3,1.3,3,1.9
			C42,25.6,40.8,26.5,39,26.8z M7.5,33h15c0.8,0,1.5-0.7,1.5-1.5c0-0.8-0.7-1.5-1.5-1.5h-15C6.7,30,6,30.7,6,31.5
			C6,32.3,6.7,33,7.5,33z M42,43.5c0-0.8-0.7-1.5-1.5-1.5h-33C6.7,42,6,42.7,6,43.5S6.7,45,7.5,45h33C41.3,45,42,44.3,42,43.5z
			 M7.5,54C6.7,54,6,54.7,6,55.5C6,56.3,6.7,57,7.5,57h12c0.8,0,1.5-0.7,1.5-1.5c0-0.8-0.7-1.5-1.5-1.5H7.5z"/>
	</g>
</g>
</svg>
