<?xml version="1.0" encoding="utf-8"?>
<!-- Generator: Adobe Illustrator 21.0.0, SVG Export Plug-In . SVG Version: 6.00 Build 0)  -->
<svg version="1.1" id="Proximo" xmlns="http://www.w3.org/2000/svg" xmlns:xlink="http://www.w3.org/1999/xlink" x="0px" y="0px"
	 viewBox="0 0 72 72" style="enable-background:new 0 0 72 72;" xml:space="preserve">
<style type="text/css">
	.st0{fill:#2E7EF2;}
</style>
<g>
	<g>
		<path class="st0" d="M56.8,55.7c-1.9-0.8-4.1-1.8-6.6-2.9l-0.1-0.1L50,52.8c-0.8,0.8-1.8,1.6-2.7,2.3L47,55.2l0.3,0.1
			c3.1,1.4,5.8,2.6,8.1,3.6c8.5,3.7,9.6,4.4,9.6,6.4c0,1.4-1.4,3-3.1,3H10.1c-1.7,0-3.1-1.7-3.1-3c0-2,1.1-2.7,9.6-6.4
			c2.3-1,5-2.2,8.1-3.6l0.3-0.1L24.7,55c-1-0.7-1.9-1.5-2.7-2.3l-0.1-0.1l-0.1,0.1c-2.5,1.1-4.7,2.1-6.6,2.9
			c-8.6,3.7-11.8,5.1-11.8,9.7c0,3.5,3.2,6.6,6.7,6.6h51.9c3.5,0,6.7-3.2,6.7-6.6C68.6,60.8,65.4,59.4,56.8,55.7z M10.6,39.6h3.6
			c1.1,0,2-0.5,2.7-1.2c0.1,0.2,0.2,0.3,0.3,0.5c2.5,9.9,10,17,18.7,17c9,0,16.6-7.5,18.9-17.8c0.7,0.9,1.7,1.5,2.8,1.5h3.6
			c2,0,3.6-1.6,3.6-3.6V25.2c0-2-1.6-3.6-3.6-3.6h-3.6C57.7,9.7,48,0,36,0S14.3,9.7,14.3,21.6h-3.6c-2,0-3.6,1.6-3.6,3.6V36
			C7,38,8.6,39.6,10.6,39.6z M57.7,25.2h3.6V36h-3.6V25.2z M36,52.3c-5.9,0-11-4.1-13.8-10.2C26.5,44,32.1,45,36,45
			c1,0,1.8-0.8,1.8-1.8c0-1-0.8-1.8-1.8-1.8c-6.4,0-13.2-2.5-15.4-4.3c-0.4-1.8-0.6-3.6-0.6-5.5c0-11.5,7.2-20.8,16-20.8
			c8.8,0,16,9.3,16,20.8C52,43,44.8,52.3,36,52.3z M36,3.6c10,0,18.1,8.1,18.1,18c0,0.1,0,0.3,0,0.4c-3-8.7-10-14.8-18.1-14.8
			c-8.1,0-15.1,6.1-18.1,14.8c0-0.1,0-0.3,0-0.4C17.9,11.7,26,3.6,36,3.6z M10.6,25.2h3.6V36h-3.6V25.2z"/>
	</g>
</g>
</svg>
