<?xml version="1.0" encoding="utf-8"?>
<!-- Generator: Adobe Illustrator 21.0.0, SVG Export Plug-In . SVG Version: 6.00 Build 0)  -->
<svg version="1.1" id="Proximo" xmlns="http://www.w3.org/2000/svg" xmlns:xlink="http://www.w3.org/1999/xlink" x="0px" y="0px"
	 viewBox="0 0 72 72" style="enable-background:new 0 0 72 72;" xml:space="preserve">
<style type="text/css">
	.st0{fill:#2E7EF2;}
</style>
<g>
	<g>
		<path class="st0" d="M71.4,24.5l-9.8-7.1V1.4c0-0.6-0.3-1.1-0.9-1.3c-0.5-0.2-1.1-0.1-1.5,0.3l-3.8,3.8l-3.8-3.8
			c-0.3-0.3-0.6-0.4-1-0.4c-0.4,0-0.7,0.1-1,0.4l-3.8,3.8l-3.8-3.8c-0.3-0.3-0.6-0.4-1-0.4s-0.7,0.1-1,0.4L36,4.3l-3.8-3.8
			c-0.3-0.3-0.6-0.4-1-0.4c-0.4,0-0.7,0.1-1,0.4l-3.8,3.8l-3.8-3.8c-0.3-0.3-0.6-0.4-1-0.4c-0.4,0-0.7,0.1-1,0.4l-3.8,3.8l-3.8-3.8
			c-0.4-0.4-1-0.5-1.5-0.3c-0.5,0.2-0.9,0.7-0.9,1.3v15.9l-9.8,7.1C0.2,24.7,0,25.1,0,25.6V65c0,3.9,3.2,7,7,7H65c3.9,0,7-3.2,7-7
			V25.6C72,25.1,71.8,24.7,71.4,24.5z M61.6,20.8l6.8,4.9l-6.8,6.8V20.8z M13.2,4.8l2.4,2.4c0.3,0.3,0.6,0.4,1,0.4s0.7-0.1,1-0.4
			l3.8-3.8l3.8,3.8c0.3,0.3,0.6,0.4,1,0.4s0.7-0.1,1-0.4l3.8-3.8L35,7.2c0.3,0.3,0.6,0.4,1,0.4c0.4,0,0.7-0.1,1-0.4l3.8-3.8l3.8,3.8
			c0.3,0.3,0.6,0.4,1,0.4c0.4,0,0.7-0.1,1-0.4l3.8-3.8l3.8,3.8c0.3,0.3,0.6,0.4,1,0.4c0.4,0,0.7-0.1,1-0.4l2.4-2.4v30.6L46.2,48
			l-2-2c-4.5-4.5-11.8-4.5-16.3,0l-2,2L13.2,35.4V4.8z M10.4,20.8v11.8l-6.8-6.8L10.4,20.8z M5.2,68.6c0,0-0.1,0.1-0.1,0.1
			C3.7,68,2.8,66.6,2.8,65V29l21,21L5.2,68.6z M8.6,69.2l4.8-4.8h24.7c0.8,0,1.4-0.6,1.4-1.4c0-0.8-0.6-1.4-1.4-1.4H16.2l3.9-3.9
			h10.4c0.8,0,1.4-0.6,1.4-1.4c0-0.8-0.6-1.4-1.4-1.4h-7.6l6.9-6.9c3.4-3.4,8.9-3.4,12.3,0l3,3c0,0,0,0,0,0c0,0,0,0,0,0l18.2,18.2
			H8.6z M69.2,65c0,1.6-0.9,3.1-2.3,3.8c0,0-0.1-0.1-0.1-0.1l-1.5-1.5V52.1c0-0.8-0.6-1.4-1.4-1.4c-0.8,0-1.4,0.6-1.4,1.4v12.1
			L48.2,50l21-21V65z M47.4,37.4c0.4,0,0.7-0.2,1-0.4c0.3-0.3,0.4-0.6,0.4-1c0-0.4-0.2-0.7-0.4-1c-0.3-0.3-0.6-0.4-1-0.4
			c-0.4,0-0.7,0.2-1,0.4c-0.3,0.3-0.4,0.6-0.4,1c0,0.4,0.2,0.7,0.4,1C46.7,37.3,47,37.4,47.4,37.4z M43,36c0-0.8-0.6-1.4-1.4-1.4
			h-17c-0.8,0-1.4,0.6-1.4,1.4c0,0.8,0.6,1.4,1.4,1.4h17C42.4,37.4,43,36.8,43,36z M63.8,47.8c0.4,0,0.7-0.2,1-0.4
			c0.3-0.3,0.4-0.6,0.4-1c0-0.4-0.2-0.7-0.4-1c-0.3-0.3-0.6-0.4-1-0.4c-0.4,0-0.7,0.2-1,0.4c-0.3,0.3-0.4,0.6-0.4,1
			c0,0.4,0.2,0.7,0.4,1C63.1,47.6,63.5,47.8,63.8,47.8z M36,27.3c-1.4,0-2.5-1-2.5-2.2c0-0.8-0.6-1.4-1.4-1.4
			c-0.8,0-1.4,0.6-1.4,1.4c0,2.3,1.7,4.2,3.9,4.8v0.3c0,0.8,0.6,1.4,1.4,1.4c0.8,0,1.4-0.6,1.4-1.4v-0.3c2.3-0.6,3.9-2.5,3.9-4.8
			c0-2.7-2.4-5-5.3-5c-1.4,0-2.5-1-2.5-2.2c0-1.2,1.1-2.2,2.5-2.2c1.4,0,2.5,1,2.5,2.2c0,0.8,0.6,1.4,1.4,1.4s1.4-0.6,1.4-1.4
			c0-2.3-1.7-4.2-3.9-4.8v-0.4c0-0.8-0.6-1.4-1.4-1.4c-0.8,0-1.4,0.6-1.4,1.4v0.4c-2.3,0.6-3.9,2.5-3.9,4.8c0,2.7,2.4,5,5.3,5
			c1.4,0,2.5,1,2.5,2.2C38.5,26.3,37.4,27.3,36,27.3z"/>
	</g>
</g>
</svg>
