<?xml version="1.0" encoding="utf-8"?>
<!-- Generator: Adobe Illustrator 21.0.0, SVG Export Plug-In . SVG Version: 6.00 Build 0)  -->
<svg version="1.1" id="Proximo" xmlns="http://www.w3.org/2000/svg" xmlns:xlink="http://www.w3.org/1999/xlink" x="0px" y="0px"
	 viewBox="0 0 72 72" style="enable-background:new 0 0 72 72;" xml:space="preserve">
<style type="text/css">
	.st0{fill:#2E7EF2;}
</style>
<g>
	<g>
		<path class="st0" d="M58.6,19.9c-0.8-4.6-3-8.9-6.5-12.1C48.2,4.3,43.2,2.3,38,2.3c-4,0-8,1.2-11.3,3.4c-2.8,1.8-5.1,4.3-6.8,7.2
			c-0.7-0.1-1.5-0.2-2.2-0.2c-6.3,0-11.4,5.2-11.4,11.6c0,0.8,0.1,1.6,0.2,2.4c-4.1,3-6.5,7.8-6.5,13c0,4.2,1.5,8.2,4.3,11.4
			c2.9,3.3,6.6,5.2,10.7,5.4h12.9c1.1,0,2-0.9,2-2c0-1.1-0.9-2-2-2H15.1C9.1,52,4,46.2,4,39.6c0-4.2,2.3-8.2,5.9-10.3
			c0.8-0.5,1.2-1.5,0.9-2.5c-0.3-0.8-0.4-1.7-0.4-2.6c0-4.1,3.3-7.5,7.4-7.5c0.9,0,1.7,0.1,2.5,0.4c1,0.4,2.1-0.1,2.5-1
			c2.8-5.9,8.8-9.8,15.2-9.8c8.7,0,15.9,6.6,16.8,15.4c0.1,0.9,0.8,1.6,1.7,1.8C63,24.7,68,30.8,68,37.9c0,7.4-5.8,13.9-12.9,14.5
			H44.2c-1.1,0-2,0.9-2,2c0,1.1,0.9,2,2,2h11.1c4.5-0.3,8.7-2.4,11.9-5.9C70.3,47,72,42.5,72,37.9C72,29.5,66.3,22,58.6,19.9z
			 M48,41.5c0.8-0.8,0.8-2.1,0-2.9L37.4,27.9c-0.4-0.4-0.9-0.6-1.4-0.6c-0.5,0-1,0.2-1.4,0.6L24,38.7c-0.8,0.8-0.8,2.1,0,2.9
			c0.4,0.4,0.9,0.6,1.4,0.6s1-0.2,1.4-0.6l7.2-7.3v33.4c0,1.1,0.9,2,2,2s2-0.9,2-2V34.3l7.2,7.3C46,42.3,47.2,42.3,48,41.5z"/>
	</g>
</g>
</svg>
