<?xml version="1.0" encoding="utf-8"?>
<!-- Generator: Adobe Illustrator 21.0.0, SVG Export Plug-In . SVG Version: 6.00 Build 0)  -->
<svg version="1.1" id="Proximo" xmlns="http://www.w3.org/2000/svg" xmlns:xlink="http://www.w3.org/1999/xlink" x="0px" y="0px"
	 viewBox="0 0 72 72" style="enable-background:new 0 0 72 72;" xml:space="preserve">
<style type="text/css">
	.st0{fill:#2E7EF2;}
</style>
<g>
	<g>
		<path class="st0" d="M50.6,21.8c4,3.6,6.6,8.1,7.6,13.6c0.1,0.7,0.7,1.2,1.4,1.2c0.1,0,0.2,0,0.3,0c0.8-0.1,1.3-0.9,1.1-1.6
			c-1.4-7.6-5.4-12.4-8.5-15.2c-1.1-1-2.5-2.1-4.1-3c-1.2-0.6-2.5-1-3.8-1.2c1.2-4.7,2.3-8.7,3.8-10.4c0.3-0.3,0.4-0.7,0.4-1.1
			c0-0.4-0.2-0.7-0.5-1l-3.5-2.8c-0.5-0.4-1.2-0.4-1.8,0l-2.6,2.1l-2.7-2.1c-0.5-0.4-1.2-0.4-1.8,0l-2.7,2.1l-2.7-2.1
			c-0.5-0.4-1.2-0.4-1.8,0l-2.7,2.1l-2.7-2.1c-0.5-0.4-1.2-0.4-1.8,0l-3.5,2.8c-0.3,0.3-0.5,0.7-0.5,1.1c0,3.8,0.8,9.1,4.9,13.1
			c0,0,0.1,0,0.1,0.1c-0.4,0.7-0.7,1.5-0.7,2.3c0,0.4,0.1,0.8,0.2,1.2c-1.6,0.8-3.1,1.8-4.4,3c-4.6,4.1-7.1,9.9-7.1,16.9v24.2
			c-0.1,3.7,3,6.8,7,7.1c0,0,0,0,0.1,0h31.1c0,0,0,0,0.1,0c4-0.2,7.1-3.4,7-7.1V40.8c0-6.9-2.5-12.8-7.1-16.9
			c-1.3-1.2-2.8-2.2-4.4-3c0.1-0.4,0.2-0.8,0.2-1.2c0-0.5-0.1-0.9-0.2-1.3c1,0.1,1.9,0.4,2.8,0.9C48.1,19.8,49.2,20.5,50.6,21.8z
			 M13.4,45.1h4.3c0,0.5-0.1,0.9-0.1,1.4c0,0.5,0,0.9,0.1,1.4h-4.3V45.1z M48.7,69.2h-31c-2.4-0.1-4.4-2-4.3-4.2c0,0,0,0,0,0V50.8
			h4.8c1.8,6.5,7.9,11.3,15,11.3c7.1,0,13.1-4.8,15-11.3H53V65c0,0,0,0,0,0C53,67.1,51.1,69,48.7,69.2z M20.5,46.5
			c0-7,5.7-12.7,12.7-12.7s12.7,5.7,12.7,12.7c0,7-5.7,12.7-12.7,12.7S20.5,53.5,20.5,46.5z M48.7,45.1H53v2.8h-4.3
			c0-0.5,0.1-0.9,0.1-1.4C48.7,46.1,48.7,45.6,48.7,45.1z M53,40.8v1.6h-4.8c-1.8-6.5-7.9-11.3-15-11.3c-7.1,0-13.1,4.8-15,11.3
			h-4.8v-1.6c0-9,4.5-14.7,10.4-17.6c0.7,0.4,1.5,0.7,2.3,0.7h14.1c0.9,0,1.7-0.3,2.3-0.7C48.4,26,53,31.8,53,40.8z M24.7,19.7
			c0-0.8,0.6-1.4,1.4-1.4h14.1c0.8,0,1.4,0.6,1.4,1.4c0,0.8-0.6,1.4-1.4,1.4H26.1C25.3,21.1,24.7,20.4,24.7,19.7z M41.7,15l-0.1,0.5
			c-0.1,0-0.1,0.1-0.2,0.1c-0.4-0.1-0.8-0.2-1.2-0.2h-5.7V9.8c0-0.8-0.6-1.4-1.4-1.4c-0.8,0-1.4,0.6-1.4,1.4v5.6h-5.7
			c-0.4,0-0.8,0.1-1.2,0.2c-0.2-0.1-0.3-0.2-0.5-0.4c-3.1-3.1-3.9-7.2-4-10.3l2.1-1.7l2.2,1.7c0,2.4,0.2,4.6,0.6,6.5
			c0.1,0.7,0.7,1.1,1.4,1.1c0.1,0,0.2,0,0.3,0c0.8-0.1,1.3-0.9,1.1-1.6c-0.4-2.2-0.5-4.4-0.6-6.1l2.1-1.6l2.7,2.1
			c0.5,0.4,1.2,0.4,1.8,0l2.7-2.1l1.8,1.4c-0.2,0.6-0.3,1.2-0.5,2c-0.2,1.1-0.5,2.4-0.7,4.2c-0.1,0.4,0,0.7,0.3,1
			c0.2,0.3,0.6,0.5,0.9,0.5c0.1,0,0.1,0,0.2,0c0.3,0,0.7-0.1,0.9-0.3c0.3-0.2,0.4-0.5,0.5-0.9c0.2-1.7,0.5-3,0.7-4
			c0.2-0.9,0.4-1.6,0.6-2.1l2.4-1.9l1.6,1.3C43.9,6.8,42.9,10.5,41.7,15z M60,39.3L60,39.3c-0.4,0-0.7,0.1-1,0.4
			c-0.3,0.3-0.4,0.6-0.4,1c0,0.8,0.6,1.4,1.4,1.4h0c0.8,0,1.4-0.6,1.4-1.4C61.4,39.9,60.8,39.3,60,39.3z M33.2,47.9
			c0.4,0,0.7,0.1,1,0.4c0.3,0.3,0.4,0.6,0.4,1c0,0.8-0.6,1.4-1.4,1.4c-0.4,0-0.7-0.1-1-0.4c-0.6-0.5-1.4-0.5-2,0
			c-0.6,0.5-0.6,1.4,0,2c0.5,0.5,1,0.8,1.6,1V55c0,0.8,0.6,1.4,1.4,1.4c0.8,0,1.4-0.6,1.4-1.4v-1.6c1.6-0.6,2.8-2.1,2.8-4
			c0-1.1-0.4-2.2-1.2-3c-0.8-0.8-1.9-1.2-3-1.2c-0.4,0-0.7-0.1-1-0.4c-0.3-0.3-0.4-0.6-0.4-1c0-0.8,0.6-1.4,1.4-1.4
			c0.4,0,0.7,0.1,1,0.4c0.6,0.5,1.4,0.5,2,0c0.6-0.5,0.6-1.4,0-2c-0.5-0.5-1-0.8-1.6-1v-1.6c0-0.8-0.6-1.4-1.4-1.4
			c-0.8,0-1.4,0.6-1.4,1.4v1.6c-1.6,0.6-2.8,2.1-2.8,4c0,1.1,0.4,2.2,1.2,3C31,47.5,32,47.9,33.2,47.9z M40.2,46.5
			c0,1-0.2,2-0.6,2.9c-0.3,0.7,0,1.5,0.7,1.9c0.2,0.1,0.4,0.1,0.6,0.1c0.5,0,1-0.3,1.3-0.8c0.6-1.3,0.9-2.7,0.9-4.1
			s-0.3-2.8-0.9-4.1c-0.3-0.7-1.2-1-1.9-0.7c-0.7,0.3-1,1.2-0.7,1.9C40,44.5,40.2,45.5,40.2,46.5z M25.5,51.5c0.2,0,0.4,0,0.6-0.1
			c0.7-0.3,1-1.2,0.7-1.9c-0.4-0.9-0.6-1.9-0.6-2.9c0-1,0.2-2,0.6-2.9c0.3-0.7,0-1.5-0.7-1.9c-0.7-0.3-1.5,0-1.9,0.7
			c-0.6,1.3-0.9,2.7-0.9,4.1c0,1.4,0.3,2.8,0.9,4.1C24.4,51.2,24.9,51.5,25.5,51.5z"/>
	</g>
</g>
</svg>
