<?xml version="1.0" encoding="utf-8"?>
<!-- Generator: Adobe Illustrator 21.0.0, SVG Export Plug-In . SVG Version: 6.00 Build 0)  -->
<svg version="1.1" id="Proximo" xmlns="http://www.w3.org/2000/svg" xmlns:xlink="http://www.w3.org/1999/xlink" x="0px" y="0px"
	 viewBox="0 0 72 72" style="enable-background:new 0 0 72 72;" xml:space="preserve">
<style type="text/css">
	.st0{fill:#2E7EF2;}
</style>
<g>
	<g>
		<path class="st0" d="M66.3,18.5c0-1.9-0.1-3.8-0.1-5.6c0-1.4-1.1-2.5-2.5-2.5c-10.8,0-19.1-3.1-26-9.7c-1-1-2.5-1-3.5,0
			c-6.9,6.7-15.1,9.7-26,9.7c-1.4,0-2.5,1.1-2.5,2.5c0,1.8,0,3.6-0.1,5.6C5.3,36.6,4.8,61.4,35.2,71.9C35.4,72,35.7,72,36,72
			c0.3,0,0.6,0,0.8-0.1C67.2,61.4,66.7,36.6,66.3,18.5z M36,66.8c-26-9.4-25.6-30-25.3-48.2c0-1.1,0-2.1,0.1-3.2
			C20.9,15,29.1,12,36,5.9c6.9,6,15.1,9.1,25.2,9.5c0,1,0,2.1,0.1,3.2C61.6,36.8,62,57.4,36,66.8z M44.7,27.2L32.5,39.4l-5.2-5.2
			c-1-1-2.6-1-3.6,0c-1,1-1,2.6,0,3.6l7,7c0.5,0.5,1.1,0.7,1.8,0.7c0.6,0,1.3-0.2,1.8-0.7l14-13.9c1-1,1-2.6,0-3.6
			C47.3,26.3,45.7,26.3,44.7,27.2z"/>
	</g>
</g>
</svg>
