<?xml version="1.0" encoding="utf-8"?>
<!-- Generator: Adobe Illustrator 21.0.0, SVG Export Plug-In . SVG Version: 6.00 Build 0)  -->
<svg version="1.1" id="Proximo" xmlns="http://www.w3.org/2000/svg" xmlns:xlink="http://www.w3.org/1999/xlink" x="0px" y="0px"
	 viewBox="0 0 72 72" style="enable-background:new 0 0 72 72;" xml:space="preserve">
<style type="text/css">
	.st0{fill:#2E7EF2;}
</style>
<path class="st0" d="M69.7,42.8h-2.2V11.3C67.5,5,62.5,0,56.3,0h-45C5,0,0,5,0,11.3v49.5C0,67,5,72,11.3,72h45
	c6.2,0,11.3-5,11.3-11.2v-4.5h2.2c1.2,0,2.3-1,2.3-2.2v-9C72,43.8,71,42.8,69.7,42.8z M4.5,11.3c0-3.7,3-6.8,6.8-6.8h45
	c3.7,0,6.7,3,6.7,6.8v18.1c-1.3-1-2.9-1.7-4.5-2.1c0-0.1,0-0.1,0-0.2V11.3c0-1.2-1-2.2-2.3-2.2H13.5c-3.7,0-6.9,1.8-9,4.6V11.3z
	 M13.5,18c-2.9,0-5.4,1.9-6.3,4.5c-0.3-0.7-0.4-1.5-0.4-2.2c0-3.7,3-6.8,6.8-6.8H54V18H13.5z M54,22.5V27H13.5c-1.2,0-2.3-1-2.3-2.2
	c0-1.2,1-2.3,2.3-2.3H54z M63,60.8c0,3.7-3,6.7-6.7,6.7h-45c-3.7,0-6.8-3-6.8-6.7V29.2c1.9,1.4,4.2,2.3,6.8,2.3h45
	c3.7,0,6.7,3,6.7,6.7v4.5H51.7c-3.7,0-6.7,3-6.7,6.8c0,3.7,3,6.8,6.7,6.8H63V60.8z M67.5,51.7H51.7c-1.2,0-2.2-1-2.2-2.2
	c0-1.2,1-2.2,2.2-2.2h15.8V51.7z"/>
</svg>
