<?xml version="1.0" encoding="utf-8"?>
<!-- Generator: Adobe Illustrator 21.0.0, SVG Export Plug-In . SVG Version: 6.00 Build 0)  -->
<svg version="1.1" id="icons" xmlns="http://www.w3.org/2000/svg" xmlns:xlink="http://www.w3.org/1999/xlink" x="0px" y="0px"
	 viewBox="0 0 24 24" style="enable-background:new 0 0 24 24;" xml:space="preserve">
<style type="text/css">
	.st0{fill:#006DF0;}
</style>
<path class="st0" d="M3,23.5C3,23.8,3.2,24,3.5,24h17c0.3,0,0.5-0.2,0.5-0.5v-22C21,1.2,20.8,1,20.5,1H16V0.5C16,0.2,15.8,0,15.5,0
	h-7C8.2,0,8,0.2,8,0.5V1H3.5C3.2,1,3,1.2,3,1.5V23.5z M9,1h6v1H9V1z M4,2h4v0.5C8,2.8,8.2,3,8.5,3h7C15.8,3,16,2.8,16,2.5V2h4v21H4
	V2z"/>
<path class="st0" d="M17.5,6h-11C6.2,6,6,6.2,6,6.5S6.2,7,6.5,7h11C17.8,7,18,6.8,18,6.5S17.8,6,17.5,6z"/>
<path class="st0" d="M17.5,9h-11C6.2,9,6,9.2,6,9.5S6.2,10,6.5,10h11c0.3,0,0.5-0.2,0.5-0.5S17.8,9,17.5,9z"/>
<path class="st0" d="M17.5,12h-11C6.2,12,6,12.2,6,12.5S6.2,13,6.5,13h11c0.3,0,0.5-0.2,0.5-0.5S17.8,12,17.5,12z"/>
<path class="st0" d="M17.5,15h-11C6.2,15,6,15.2,6,15.5S6.2,16,6.5,16h11c0.3,0,0.5-0.2,0.5-0.5S17.8,15,17.5,15z"/>
<path class="st0" d="M17.5,18c-0.6,0-0.9,0.5-1,0.7c-0.1,0.1-0.2,0.2-0.2,0.3c0,0-0.1-0.2-0.2-0.3c-0.2-0.3-0.5-0.7-1-0.7
	s-0.9,0.5-1,0.7c-0.1,0.1-0.2,0.2-0.2,0.3c0,0-0.1-0.2-0.2-0.3c-0.2-0.3-0.5-0.7-1-0.7c-0.3,0-0.5,0.2-0.5,0.5
	c0,0.3,0.2,0.5,0.5,0.5c0,0,0.1,0.2,0.2,0.3c0.2,0.3,0.5,0.7,1,0.7s0.9-0.5,1-0.7c0.1-0.1,0.2-0.2,0.2-0.3c0,0,0.1,0.2,0.2,0.3
	c0.2,0.3,0.5,0.7,1,0.7c0.6,0,0.9-0.5,1-0.7c0.1-0.1,0.2-0.2,0.2-0.3c0.3,0,0.5-0.2,0.5-0.5S17.8,18,17.5,18z"/>
</svg>
