<?xml version="1.0" encoding="utf-8"?>
<!-- Generator: Adobe Illustrator 21.0.0, SVG Export Plug-In . SVG Version: 6.00 Build 0)  -->
<svg version="1.1" id="Layer_1" xmlns="http://www.w3.org/2000/svg" xmlns:xlink="http://www.w3.org/1999/xlink" x="0px" y="0px"
	 viewBox="0 0 512 512" style="enable-background:new 0 0 512 512;" xml:space="preserve">
<style type="text/css">
	.st0{fill:#FFFFFF;}
</style>
<g>
	<path class="st0" d="M425.7,345.2l-52.8-104.3c-1.8-3.6-5.5-5.8-9.3-5.8c-4,0-7.6,2.2-9.3,5.8l-53.6,106.7
		c-2.6,5.1-0.5,11.4,4.6,14.1c1.5,0.7,3.1,1.2,4.7,1.2c3.9,0,7.6-2.1,9.3-5.8l18.5-36.7h51.8l17.4,34.4c2.6,5.1,8.9,7.2,14.1,4.6
		C426.2,356.7,428.3,350.4,425.7,345.2L425.7,345.2z M348.3,299.3l15.3-30.4l15.4,30.4H348.3z"/>
	<path class="st0" d="M510.2,286c-5-32.8-21.1-63.3-45.2-85.9c-45.6-42.6-112.2-52-167.2-25c-8.3-74.5-71.4-132.8-148-132.8
		c-40,0-77.5,15.4-105.8,43.6C15.6,114.1,0,151.7,0,191.8c0,40,15.6,77.6,44,105.8c28.2,28.1,65.9,43.6,105.8,43.6
		c23.2,0,45.2-5.4,64.8-14.9c6.7,61,50.5,112.6,110.9,128.6h0.1c12.1,2.9,24.1,4.4,36.1,4.4c53.8,0,104.9-29.1,131.7-77.8
		C509.4,352.6,515.3,318.7,510.2,286z M149.8,320.1c-70.9,0-128.7-57.5-128.7-128.4c0-70.7,57.8-128.4,128.7-128.4
		c70.6,0,128,57.6,128,128.4S220.4,320.1,149.8,320.1z M475.1,371.4c-28.1,51.2-87.4,77.1-144.2,63.1c-55.1-14.6-94-63.6-96-120.1
		c36.9-25.8,61.6-67.9,63.8-115.8c48.8-28.5,110.6-21.9,152.1,17C493.6,255.5,503.5,319.5,475.1,371.4z"/>
	<path class="st0" d="M202.7,446.8v-0.1c-0.1-0.4-0.2-0.8-0.3-1.2c0,0,0,0,0-0.1c-0.1-0.3-0.2-0.7-0.4-1c0-0.1-0.1-0.2-0.2-0.3
		c-0.1-0.2-0.3-0.5-0.4-0.7c-0.1-0.1-0.1-0.2-0.2-0.3c-0.2-0.3-0.4-0.6-0.6-0.9c-0.2-0.3-0.5-0.6-0.8-0.9c-0.1-0.1-0.1-0.1-0.2-0.2
		c-0.2-0.2-0.5-0.4-0.7-0.6c-0.1-0.1-0.2-0.1-0.3-0.2c-0.2-0.2-0.5-0.3-0.7-0.5c-0.1-0.1-0.2-0.1-0.3-0.2c-0.3-0.2-0.7-0.4-1-0.5
		l-53.6-21.6c-5.3-2.2-11.4,0.4-13.6,5.8c-2.2,5.4,0.4,11.4,5.8,13.6l35.9,14.5c-19.7,10.6-43.5,11.4-64.2,1.6h-0.1
		c-26.1-12.1-42.6-38.7-42-68.1c0.1-5.8-4.4-10.6-10.3-10.7c-5.8-0.1-10.6,4.4-10.7,10.3c-0.9,37.7,20.4,72,54,87.6
		c12.6,6,26,8.9,39.4,8.9c11.4,0,22.9-2.2,33.7-6.4l-9.5,23.3c-2.2,5.4,0.4,11.5,5.8,13.6c1.3,0.5,2.6,0.7,4,0.7
		c4.1,0,8.1-2.4,9.8-6.5l21.6-53c0-0.1,0.1-0.2,0.1-0.3c-0.1-0.1-0.1-0.2,0-0.3c0.1-0.3,0.2-0.6,0.2-0.8c0-0.1,0-0.2,0.1-0.3
		c0.1-0.4,0.1-0.8,0.2-1.3c0-0.4,0-0.7,0-1.2c0-0.1,0-0.2,0-0.3c0-0.3-0.1-0.6-0.1-0.9C202.7,446.9,202.7,446.9,202.7,446.8z"/>
	<path class="st0" d="M310,65.3v0.1c0.1,0.4,0.2,0.8,0.3,1.2c0,0,0,0,0,0.1c0.1,0.3,0.2,0.7,0.4,1c0,0.1,0.1,0.2,0.2,0.3
		c0.1,0.2,0.3,0.5,0.4,0.7c0.1,0.1,0.1,0.2,0.2,0.3c0.2,0.3,0.4,0.6,0.6,0.9c0.2,0.3,0.5,0.6,0.8,0.9c0.1,0.1,0.1,0.1,0.2,0.2
		c0.2,0.2,0.5,0.4,0.7,0.6c0.1,0.1,0.2,0.1,0.3,0.2c0.2,0.2,0.5,0.3,0.7,0.5c0.1,0.1,0.2,0.1,0.3,0.2c0.3,0.2,0.7,0.4,1,0.5
		L370,94.9c5.3,2.2,11.4-0.4,13.6-5.8s-0.4-11.4-5.8-13.6L342,61c19.7-10.6,43.5-11.4,64.2-1.6h0.1c26.1,12.1,42.6,38.7,42,68.1
		c-0.1,5.8,4.4,10.6,10.3,10.7c0.1,0,0.2,0,0.2,0c5.7,0,10.4-4.5,10.5-10.3c0.8-37.8-20.4-72.2-54.1-87.7l0,0
		c-23.4-11.1-49.7-11.7-73-2.5l9.5-23.3c2.2-5.4-0.4-11.5-5.8-13.6c-5.3-2.2-11.5,0.4-13.6,5.8l-21.6,53c0,0.1-0.1,0.2-0.1,0.3
		s-0.1,0.3-0.1,0.4c-0.1,0.3-0.2,0.6-0.2,0.8c0,0.1,0,0.2-0.1,0.3c-0.1,0.4-0.1,0.8-0.2,1.3c0,0.4,0,0.7,0,1.2c0,0.1,0,0.2,0,0.3
		c0,0.3,0.1,0.6,0.1,0.9C310,65.2,310,65.2,310,65.3z"/>
	<path class="st0" d="M224.2,218.3c-0.9-0.6-1.9-1-3-1H178c-4.2-1.6-7.7-5.2-10.7-11c-2.9-5.7-4.4-12.4-4.4-20v-2.6
		c0-10.6,3-18.3,9.1-22.9c6.1-4.7,14.5-7,25.1-7c3.7,0,7,0.1,9.9,0.2c2.9,0.1,6.1,0.4,9.7,0.6c1.1,0.1,2.2,0,3.2-0.5
		c1-0.5,1.5-1.5,1.5-3.1v-8.6c0-1.4-0.4-2.4-1.3-2.9c-0.9-0.5-2.1-0.9-3.7-1.2c-4.7-0.7-8.8-1.1-12.2-1.3c-3.4-0.1-6.5-0.2-9.4-0.2
		c-7.2,0-13.8,0.9-19.9,2.7c-6.1,1.8-11.4,4.6-15.9,8.3c-4.5,3.7-8,8.4-10.5,14.1c-2.5,5.7-3.8,12.3-3.8,19.9v2.4
		c0,7.7,0.8,14.4,2.5,20c1.6,5.6,3.9,10,6.8,13.1h-25.8H127H80.7c-2,0-3.7,0.3-5.2,0.8c-1.4,0.5-2.2,1.2-2.2,2v12.7
		c0,1,0.7,1.8,2.2,2.3c1.4,0.5,3.2,0.8,5.2,0.8H127h1.3h93c1.1,0,2.2-0.3,3-0.9c0.9-0.6,1.3-1.4,1.3-2.6V221
		C225.5,219.8,225.1,218.9,224.2,218.3z"/>
</g>
</svg>
