<?xml version="1.0" encoding="utf-8"?>
<!-- Generator: Adobe Illustrator 21.0.0, SVG Export Plug-In . SVG Version: 6.00 Build 0)  -->
<svg version="1.1" id="Capa_1" xmlns="http://www.w3.org/2000/svg" xmlns:xlink="http://www.w3.org/1999/xlink" x="0px" y="0px"
	 viewBox="0 0 512 512" style="enable-background:new 0 0 512 512;" xml:space="preserve">
<style type="text/css">
	.st0{fill:#006DF0;}
	.st1{fill:#006DF0;stroke:#006DF0;stroke-width:3;stroke-miterlimit:10;}
</style>
<path class="st0" d="M446.2,377.9c-1.5,1.6-2.5,3.8-2.5,6.1c0,2.2,0.9,4.4,2.5,6.1c1.6,1.5,3.8,2.5,6.1,2.5s4.4-0.9,6.1-2.5
	c1.5-1.6,2.5-3.8,2.5-6.1c0-2.2-0.9-4.4-2.5-6.1C455.2,374.9,449.5,374.8,446.2,377.9z"/>
<path class="st0" d="M155.1,265.2l-15.2-7.8v-1.6c6.8-3.7,11.6-9.9,14.3-18.3c4.1-2.1,6.7-6.3,6.7-11v-4.2c0-3.9-1.8-7.5-4.8-9.8
	c-2.6-15.8-13.7-23.9-32.9-23.9c-0.9,0-1.8,0-2.7,0.1c-3.6,0.3-8.9,0-13.5-3.1c-1.7-1.2-3-2.3-3.8-3.3c-1.4-1.8-3.8-2.4-5.9-1.5
	c-2.1,0.9-3.3,3-3.1,5.2c0.2,1.6,0.4,3.4,0.8,5.4c0.8,4.1,0.8,4.1-0.3,6.5c-0.4,0.9-1,2.1-1.6,3.6c-1.4,3.4-2.4,7.1-2.9,11.1
	c-3,2.4-4.8,5.9-4.8,9.8v4.2c0,4.7,2.6,8.9,6.7,11c2.7,8.4,7.5,14.6,14.3,18.3v1.6l-15.8,7.8c-5.8,3.1-9.3,9.2-9.3,15.7v5.5
	c0,3.4,0,11.2,41.9,11.2s41.9-7.9,41.9-11.2v-5.2C165,274.4,161.2,268.3,155.1,265.2z M156.6,285.5c-2.6,1.6-13.2,3.8-33.5,3.8
	s-30.9-2.2-33.5-3.8v-4.6c0-3.5,1.9-6.7,4.8-8.3l16.2-8c2.5-1.2,4.2-3.8,4.2-6.7v-7.6l-2.5-1.1c-6.4-2.7-10.5-8-12.6-16l-0.6-2.2
	l-2.2-0.7c-1.8-0.5-3-2.2-3-4v-4.2c0-1.5,0.9-2.9,2.3-3.7l2-1l0.2-2.2c0.4-3.9,1.3-7.6,2.6-10.8c0.6-1.4,1-2.4,1.4-3.2
	c1.4-3.1,1.9-4.6,1.6-7.9c4.9,2.8,10.8,4,17.3,3.5c0.6-0.1,1.3-0.1,2-0.1c15.7,0,23.3,5.7,24.8,18.4l0.3,2.2l2,1
	c1.4,0.7,2.3,2.1,2.3,3.7v4.2c0,1.8-1.2,3.4-3,4l-2.2,0.7l-0.6,2.2c-2.1,8-6.3,13.2-12.6,16l-2.5,1.1v7.6c0,2.8,1.5,5.3,4,6.6
	l15.8,8.1l0,0c3.3,1.6,5.3,4.9,5.3,8.6V285.5z"/>
<path class="st0" d="M264.5,247.6h85.3c4.7,0,8.5-3.8,8.5-8.5s-3.8-8.5-8.5-8.5h-85.3c-4.7,0-8.5,3.8-8.5,8.5
	S259.8,247.6,264.5,247.6z"/>
<path class="st0" d="M273.1,375.6h-8.5c-4.7,0-8.5,3.8-8.5,8.5c0,4.7,3.8,8.5,8.5,8.5h8.5c4.7,0,8.5-3.8,8.5-8.5
	C281.6,379.4,277.8,375.6,273.1,375.6z"/>
<path class="st0" d="M324.3,375.6h-17.1c-4.7,0-8.5,3.8-8.5,8.5c0,4.7,3.8,8.5,8.5,8.5h17.1c4.7,0,8.5-3.8,8.5-8.5
	C332.8,379.4,329,375.6,324.3,375.6z"/>
<path class="st0" d="M366.9,375.6h-8.5c-4.7,0-8.5,3.8-8.5,8.5c0,4.7,3.8,8.5,8.5,8.5h8.5c4.7,0,8.5-3.8,8.5-8.5
	C375.5,379.4,371.7,375.6,366.9,375.6z"/>
<path class="st0" d="M418.1,375.6h-17.1c-4.7,0-8.5,3.8-8.5,8.5c0,4.7,3.8,8.5,8.5,8.5h17.1c4.7,0,8.5-3.8,8.5-8.5
	C426.7,379.4,422.9,375.6,418.1,375.6z"/>
<path class="st0" d="M452.3,281.8H264.5c-4.7,0-8.5,3.8-8.5,8.5c0,4.7,3.8,8.5,8.5,8.5h187.7c4.7,0,8.5-3.8,8.5-8.5
	C460.8,285.6,457,281.8,452.3,281.8z"/>
<path class="st0" d="M452.3,333H264.5c-4.7,0-8.5,3.8-8.5,8.5c0,4.7,3.8,8.5,8.5,8.5h187.7c4.7,0,8.5-3.8,8.5-8.5
	C460.8,336.8,457,333,452.3,333z"/>
<path class="st0" d="M472.1,119.5H315.7V53.9c0-10.9-8.8-19.7-19.7-19.7h-80c-10.9,0-19.7,8.8-19.7,19.7v65.6H39.9
	c-22,0-39.9,17.9-39.9,39.9V438c0,22,17.9,39.9,39.9,39.9h432.2c22,0,39.9-17.9,39.9-39.9V159.4C512,137.4,494.1,119.5,472.1,119.5z
	 M213.3,53.9c0-1.5,1.2-2.7,2.7-2.7h80c1.5,0,2.7,1.2,2.7,2.7v65.6V168c0,1.5-1.2,2.7-2.7,2.7h-80c-1.5,0-2.7-1.2-2.7-2.7v-48.5
	V53.9z M494.9,437.9c0,12.6-10.2,22.9-22.9,22.9H39.9c-12.6,0-22.9-10.2-22.9-22.9V159.4c0-12.6,10.2-22.9,22.9-22.9h156.3V168
	c0,10.9,8.8,19.7,19.7,19.7h80c10.9,0,19.7-8.8,19.7-19.7v-31.5h156.3c12.6,0,22.9,10.2,22.9,22.9V437.9z"/>
<path class="st0" d="M256,128c18.8,0,34.1-15.3,34.1-34.1S274.8,59.7,256,59.7S221.9,75,221.9,93.9S237.2,128,256,128z M256,76.8
	c9.4,0,17.1,7.7,17.1,17.1s-7.7,17.1-17.1,17.1c-9.4,0-17.1-7.7-17.1-17.1S246.6,76.8,256,76.8z"/>
<path class="st1" d="M163.5,360.6v-25.4c0-8.7-7.1-15.8-15.8-15.8H98.4c-8.7,0-15.8,7.1-15.8,15.8v25.4c-7.8,2-13.7,9-13.7,17.4
	c0,8.4,5.8,15.4,13.5,17.4v2.9c0,6.2,5.1,11.3,11.3,11.3s11.3-5.1,11.3-11.3V396h36.1v2.3c0,6.2,5.1,11.3,11.3,11.3
	c6.2,0,11.3-5.1,11.3-11.3v-2.9c7.8-2,13.5-9,13.5-17.4C177.2,369.6,171.4,362.5,163.5,360.6z M98.4,323.9h49.3
	c6.2,0,11.3,5.1,11.3,11.3V360H87.2v-24.8C87.2,329,92.2,323.9,98.4,323.9z M100.6,398.3c0,3.7-3,6.8-6.8,6.8c-3.7,0-6.8-3-6.8-6.8
	V396h13.5V398.3z M159.2,398.3c0,3.7-3,6.8-6.8,6.8c-3.7,0-6.8-3-6.8-6.8V396h13.5V398.3z M159.2,391.5H87
	c-7.5,0-13.5-6.1-13.5-13.5s6.1-13.5,13.5-13.5h72.1c7.5,0,13.5,6.1,13.5,13.5C172.7,385.5,166.6,391.5,159.2,391.5z"/>
<path class="st0" d="M154.7,369c-5,0-9,4-9,9s4,9,9,9c5,0,9-4,9-9S159.6,369,154.7,369z M154.7,382.5c-2.5,0-4.5-2-4.5-4.5
	s2-4.5,4.5-4.5s4.5,2,4.5,4.5S157.1,382.5,154.7,382.5z"/>
<path class="st0" d="M91.5,369c-5,0-9,4-9,9s4,9,9,9c5,0,9-4,9-9S96.5,369,91.5,369z M91.5,382.5c-2.5,0-4.5-2-4.5-4.5
	s2-4.5,4.5-4.5s4.5,2,4.5,4.5S94,382.5,91.5,382.5z"/>
</svg>
