<?xml version="1.0" encoding="utf-8"?>
<!-- Generator: Adobe Illustrator 21.0.0, SVG Export Plug-In . SVG Version: 6.00 Build 0)  -->
<svg version="1.1" id="Proximo" xmlns="http://www.w3.org/2000/svg" xmlns:xlink="http://www.w3.org/1999/xlink" x="0px" y="0px"
	 viewBox="0 0 44.5 60" style="enable-background:new 0 0 44.5 60;" xml:space="preserve">
<style type="text/css">
	.st0{fill:#FFFFFF;}
</style>
<g>
	<g>
		<path class="st0" d="M6.2,59.7h-6V28.1h21.6c2.7,0,4.9-2.2,4.9-4.9s-2.2-4.9-4.9-4.9H0v-6h21.8c6,0,10.9,4.9,10.9,10.9
			s-4.9,10.9-10.9,10.9H6.2V59.7z"/>
	</g>
	<g>
		<path class="st0" d="M18.2,59.7h-6V39.8h9.5c9.2,0,16.7-7.5,16.7-16.7S31,6.4,21.8,6.4H0v-6h21.8c12.5,0,22.7,10.2,22.7,22.7
			S34.3,45.8,21.8,45.8h-3.5V59.7z"/>
	</g>
</g>
</svg>
