<?xml version="1.0" encoding="utf-8"?>
<!-- Generator: Adobe Illustrator 21.0.0, SVG Export Plug-In . SVG Version: 6.00 Build 0)  -->
<svg version="1.1" id="Layer_1" xmlns="http://www.w3.org/2000/svg" xmlns:xlink="http://www.w3.org/1999/xlink" x="0px" y="0px"
	 viewBox="0 0 960 36" style="enable-background:new 0 0 960 36;" xml:space="preserve">
<style type="text/css">
	.st0{fill:url(#SVGID_1_);}
	.st1{fill:url(#SVGID_2_);}
	.st2{fill:#E6E7E8;}
	.st3{fill:url(#SVGID_3_);}
</style>
<linearGradient id="SVGID_1_" gradientUnits="userSpaceOnUse" x1="479.9098" y1="24.6842" x2="479.9098" y2="5.1601">
	<stop  offset="0" style="stop-color:#E6E6E6"/>
	<stop  offset="0.1672" style="stop-color:#D1D1D1"/>
	<stop  offset="0.3634" style="stop-color:#C0C0C0"/>
	<stop  offset="0.5786" style="stop-color:#B6B6B6"/>
	<stop  offset="0.8466" style="stop-color:#B3B3B3"/>
	<stop  offset="1" style="stop-color:#D0D2D3"/>
</linearGradient>
<path class="st0" d="M134.9,24.7h693.6c14,0,131.3-8.7,131.3-19.5H0C0,15.9,121,24.7,134.9,24.7z"/>
<linearGradient id="SVGID_2_" gradientUnits="userSpaceOnUse" x1="0" y1="3.7708" x2="960" y2="3.7708">
	<stop  offset="0" style="stop-color:#58595B"/>
	<stop  offset="1.643607e-02" style="stop-color:#BABBBD"/>
	<stop  offset="2.453990e-02" style="stop-color:#E6E7E8"/>
	<stop  offset="0.1104" style="stop-color:#BBBDBF"/>
	<stop  offset="0.5276" style="stop-color:#E6E7E8"/>
	<stop  offset="0.8896" style="stop-color:#BBBDBF"/>
	<stop  offset="0.9755" style="stop-color:#E6E7E8"/>
	<stop  offset="1" style="stop-color:#6E7072"/>
</linearGradient>
<rect y="1.3" class="st1" width="960" height="4.9"/>
<path class="st2" d="M559.1,9c0,2.3-3.2,4.2-7.2,4.2h-144c-4,0-7.2-1.9-7.2-4.2l0,0c0-2.3,4.2-1.8,8.2-1.8l142.3,0
	C555.2,7.2,559.1,6.7,559.1,9L559.1,9z"/>
<linearGradient id="SVGID_3_" gradientUnits="userSpaceOnUse" x1="400.7133" y1="9.3128" x2="559.1121" y2="9.3128">
	<stop  offset="0" style="stop-color:#404041"/>
	<stop  offset="7.982136e-03" style="stop-color:#585859"/>
	<stop  offset="2.234023e-02" style="stop-color:#7C7D7E"/>
	<stop  offset="3.738835e-02" style="stop-color:#9B9C9D"/>
	<stop  offset="5.307568e-02" style="stop-color:#B2B4B5"/>
	<stop  offset="6.968859e-02" style="stop-color:#C3C5C6"/>
	<stop  offset="8.783544e-02" style="stop-color:#CDCFD0"/>
	<stop  offset="0.1104" style="stop-color:#D0D2D3"/>
	<stop  offset="0.5031" style="stop-color:#E6E7E8"/>
	<stop  offset="0.8957" style="stop-color:#D0D2D3"/>
	<stop  offset="1" style="stop-color:#404041"/>
</linearGradient>
<path class="st3" d="M559.1,8.2c0,2.3-3.2,4.2-7.2,4.2h-144c-4,0-7.2-1.9-7.2-4.2l0,0c0-2.3,4.2-1.8,8.2-1.8l142.3,0
	C555.2,6.3,559.1,5.9,559.1,8.2L559.1,8.2z"/>
</svg>
