<?xml version="1.0" encoding="utf-8"?>
<!-- Generator: Adobe Illustrator 21.0.0, SVG Export Plug-In . SVG Version: 6.00 Build 0)  -->
<svg version="1.1" id="Proximo" xmlns="http://www.w3.org/2000/svg" xmlns:xlink="http://www.w3.org/1999/xlink" x="0px" y="0px"
	 viewBox="0 0 410.3 65" style="enable-background:new 0 0 410.3 65;" xml:space="preserve">
<style type="text/css">
	.st0{fill:#FFFFFF;}
</style>
<g>
	<path class="st0" d="M20.9,0H0v65h12.1V38.6h8.7c10.6,0,19.3-8.6,19.3-19.3C40.1,8.7,31.5,0,20.9,0z M20.9,26.5h-8.7V12.1h8.7
		c3.9,0,7.1,3.3,7.1,7.2C28,23.3,24.8,26.5,20.9,26.5z"/>
	<polygon class="st0" points="73.7,0 40.6,65 54.2,65 75,24.2 94.2,65 107.6,65 76.9,0 	"/>
	<polygon class="st0" points="133.9,25.5 120,0 106.6,0 127.8,41.2 127.8,65 139.9,65 139.9,41.2 161.1,0 147.7,0 	"/>
	<polygon class="st0" points="173.2,11.3 204.3,11.3 167.2,62 167.2,65 224.2,65 224.2,53.9 189.1,53.9 226.2,3.2 226.2,0 173.2,0 	
		"/>
	<polygon class="st0" points="265.5,0 232.4,65 246,65 266.8,24.2 286,65 299.4,65 268.7,0 	"/>
	<polygon class="st0" points="296.6,12.1 315,12.1 315,65 327.1,65 327.1,12.1 345.4,12.1 345.4,0 296.6,0 	"/>
	<polygon class="st0" points="396.9,0 383.1,25.5 369.2,0 355.8,0 377,41.2 377,65 389.1,65 389.1,41.2 410.3,0 	"/>
</g>
</svg>
