<?xml version="1.0" encoding="utf-8"?>
<!-- Generator: Adobe Illustrator 22.0.0, SVG Export Plug-In . SVG Version: 6.00 Build 0)  -->
<svg version="1.1" id="icons" xmlns="http://www.w3.org/2000/svg" xmlns:xlink="http://www.w3.org/1999/xlink" x="0px" y="0px"
	 viewBox="0 0 24 24" style="enable-background:new 0 0 24 24;" xml:space="preserve">
<style type="text/css">
	.st0{fill:#5c6ac4;}
	.st1{fill:#5c6ac4;}
</style>
<linearGradient id="SVGID_1_" gradientUnits="userSpaceOnUse" x1="0" y1="12.5" x2="12.5" y2="12.5">
	<stop  offset="0" style="stop-color:#00A3E0"/>
	<stop  offset="1" style="stop-color:#84BD00"/>
</linearGradient>
<path class="st0" d="M7.5,10C7.8,10,8,9.8,8,9.5v-7c0-0.1,0-0.1,0-0.2c0,0,0,0,0,0c0,0,0,0,0,0c0,0,0-0.1,0-0.1c0,0-0.1-0.2-0.1-0.2
	h0C7.7,2,7.6,2,7.5,2h-7C0.2,2,0,2.2,0,2.5S0.2,3,0.5,3h5.2C2.8,5,1,8.4,1,12c0,6.1,4.9,11,11,11c0.3,0,0.5-0.2,0.5-0.5
	S12.3,22,12,22C6.5,22,2,17.5,2,12c0-3.6,1.9-6.9,5-8.6v6.1C7,9.8,7.2,10,7.5,10z"/>
<linearGradient id="SVGID_2_" gradientUnits="userSpaceOnUse" x1="11.5" y1="11.5" x2="24" y2="11.5">
	<stop  offset="0" style="stop-color:#00A3E0"/>
	<stop  offset="1" style="stop-color:#84BD00"/>
</linearGradient>
<path class="st1" d="M23.5,21h-5.2c2.9-2,4.7-5.4,4.7-9c0-6.1-4.9-11-11-11c-0.3,0-0.5,0.2-0.5,0.5S11.7,2,12,2c5.5,0,10,4.5,10,10
	c0,3.6-1.9,6.8-5,8.6v-6.1c0-0.3-0.2-0.5-0.5-0.5S16,14.2,16,14.5v7c0,0.3,0.2,0.5,0.5,0.5h7c0.3,0,0.5-0.2,0.5-0.5S23.8,21,23.5,21
	z"/>
</svg>
