<?xml version="1.0" encoding="utf-8"?>
<!-- Generator: Adobe Illustrator 21.0.0, SVG Export Plug-In . SVG Version: 6.00 Build 0)  -->
<svg version="1.1" id="Layer_1" xmlns="http://www.w3.org/2000/svg" xmlns:xlink="http://www.w3.org/1999/xlink" x="0px" y="0px"
	 viewBox="0 0 100 100" style="enable-background:new 0 0 100 100;" xml:space="preserve">
<style type="text/css">
	.st0{fill:#FFFFFF;}
</style>
<path class="st0" d="M24.8,6.9C32.5,2.3,40.9,0,50,0c9.1,0,17.6,2.3,25.4,6.9c7.5,4.3,13.5,10.3,17.8,17.8
	c4.6,7.8,6.9,16.2,6.9,25.4s-2.3,17.6-6.9,25.4c-4.3,7.5-10.3,13.5-17.8,17.8C67.6,97.7,59.1,100,50,100s-17.6-2.3-25.4-6.9
	c-7.5-4.4-13.5-10.4-17.8-17.9C2.3,67.5,0,59.1,0,50c0-9.1,2.3-17.5,6.9-25.2C11.3,17.2,17.2,11.3,24.8,6.9L24.8,6.9z M39.9,72.5
	L70,50l-30-22.6V72.5z"/>
</svg>
