<?xml version="1.0" encoding="utf-8"?>
<!-- Generator: Adobe Illustrator 21.0.0, SVG Export Plug-In . SVG Version: 6.00 Build 0)  -->
<svg version="1.1" id="icons" xmlns="http://www.w3.org/2000/svg" xmlns:xlink="http://www.w3.org/1999/xlink" x="0px" y="0px"
	 viewBox="0 0 24 24" style="enable-background:new 0 0 24 24;" xml:space="preserve">
<style type="text/css">
	.st0{fill:#5c6ac4;}
	.st1{fill:#5c6ac4;}
	.st2{fill:#5c6ac4;}
	.st3{fill:#5c6ac4;}
	.st4{fill:#5c6ac4;}
	.st5{fill:#5c6ac4;}
	 
</style>
<g>
	
		<linearGradient id="SVGID_1_" gradientUnits="userSpaceOnUse" x1="-1.2571" y1="14.1095" x2="30.3679" y2="14.7345" gradientTransform="matrix(1 0 0 -1 0 26)">
		<stop  offset="0" style="stop-color:#00A3E0"/>
		<stop  offset="1" style="stop-color:#84BD00"/>
	</linearGradient>
	<path class="st0" d="M21.5,11h-6c-0.3,0-0.5,0.2-0.5,0.5s0.2,0.5,0.5,0.5h6c0.3,0,0.5-0.2,0.5-0.5S21.8,11,21.5,11z"/>
	
		<linearGradient id="SVGID_2_" gradientUnits="userSpaceOnUse" x1="-1.1978" y1="11.1107" x2="30.4272" y2="11.7357" gradientTransform="matrix(1 0 0 -1 0 26)">
		<stop  offset="0" style="stop-color:#00A3E0"/>
		<stop  offset="1" style="stop-color:#84BD00"/>
	</linearGradient>
	<path class="st1" d="M21.5,14h-6c-0.3,0-0.5,0.2-0.5,0.5s0.2,0.5,0.5,0.5h6c0.3,0,0.5-0.2,0.5-0.5S21.8,14,21.5,14z"/>
	
		<linearGradient id="SVGID_3_" gradientUnits="userSpaceOnUse" x1="-1.1411" y1="8.2403" x2="30.4839" y2="8.8653" gradientTransform="matrix(1 0 0 -1 0 26)">
		<stop  offset="0" style="stop-color:#00A3E0"/>
		<stop  offset="1" style="stop-color:#84BD00"/>
	</linearGradient>
	<path class="st2" d="M22,17.5c0-0.3-0.2-0.5-0.5-0.5h-19C2.2,17,2,17.2,2,17.5S2.2,18,2.5,18h19C21.8,18,22,17.8,22,17.5z"/>
	
		<linearGradient id="SVGID_4_" gradientUnits="userSpaceOnUse" x1="-1.0822" y1="5.2612" x2="30.5428" y2="5.8862" gradientTransform="matrix(1 0 0 -1 0 26)">
		<stop  offset="0" style="stop-color:#00A3E0"/>
		<stop  offset="1" style="stop-color:#84BD00"/>
	</linearGradient>
	<path class="st3" d="M2.5,20C2.2,20,2,20.2,2,20.5S2.2,21,2.5,21h17c0.3,0,0.5-0.2,0.5-0.5S19.8,20,19.5,20H2.5z"/>
	
		<linearGradient id="SVGID_5_" gradientUnits="userSpaceOnUse" x1="-1.1716" y1="9.7846" x2="30.4534" y2="10.4096" gradientTransform="matrix(1 0 0 -1 0 26)">
		<stop  offset="0" style="stop-color:#00A3E0"/>
		<stop  offset="1" style="stop-color:#84BD00"/>
	</linearGradient>
	<path class="st4" d="M23.5,8h-7.8c-0.3,0-0.5,0.2-0.5,0.5S15.4,9,15.7,9H23v9.9c0,2.3-1.8,4.1-4.1,4.1H1V9h4.3
		c0.3,0,0.5-0.2,0.5-0.5S5.6,8,5.3,8H0.5C0.2,8,0,8.2,0,8.5v15C0,23.8,0.2,24,0.5,24h18.4c2.8,0,5.1-2.3,5.1-5.1V8.5
		C24,8.2,23.8,8,23.5,8z"/>
	
		<linearGradient id="SVGID_6_" gradientUnits="userSpaceOnUse" x1="-1.3293" y1="17.7625" x2="30.2957" y2="18.3875" gradientTransform="matrix(1 0 0 -1 0 26)">
		<stop  offset="0" style="stop-color:#00A3E0"/>
		<stop  offset="1" style="stop-color:#84BD00"/>
	</linearGradient>
	<path class="st5" d="M18,3.2c0-0.6-0.2-1.1-0.6-1.5c-0.8-0.8-2.2-0.8-3.1,0l-9,9c-0.1,0.1-0.1,0.1-0.1,0.2L4,14.3
		c-0.1,0.2,0,0.4,0.1,0.5C4.2,14.9,4.4,15,4.5,15c0.1,0,0.1,0,0.2,0l3.5-1.2c0.1,0,0.1-0.1,0.2-0.1l9-9C17.8,4.3,18,3.7,18,3.2z
		 M16.7,4l-8.9,8.9l-2.5,0.8l0.8-2.5L15,2.3c0.4-0.4,1.2-0.4,1.6,0C16.9,2.6,17,2.8,17,3.2S16.9,3.8,16.7,4z"/>
</g>
</svg>
