<?xml version="1.0" encoding="utf-8"?>
<!-- Generator: Adobe Illustrator 21.0.0, SVG Export Plug-In . SVG Version: 6.00 Build 0)  -->
<svg version="1.1"
	 id="svg3409" inkscape:version="0.91 r13725" sodipodi:docname="MasterCard 2016.svg" xmlns:cc="http://creativecommons.org/ns#" xmlns:dc="http://purl.org/dc/elements/1.1/" xmlns:inkscape="http://www.inkscape.org/namespaces/inkscape" xmlns:rdf="http://www.w3.org/1999/02/22-rdf-syntax-ns#" xmlns:sodipodi="http://sodipodi.sourceforge.net/DTD/sodipodi-0.dtd" xmlns:svg="http://www.w3.org/2000/svg"
	 xmlns="http://www.w3.org/2000/svg" xmlns:xlink="http://www.w3.org/1999/xlink" x="0px" y="0px" viewBox="0 0 1911 607.9"
	 style="enable-background:new 0 0 1911 607.9;" xml:space="preserve">
<style type="text/css">
	.st0{fill:#1A1F71;}
</style>
<sodipodi:namedview  bordercolor="#666666" borderopacity="1" gridtolerance="10" guidetolerance="10" id="namedview4178" inkscape:current-layer="svg3409" inkscape:cx="400.80964" inkscape:cy="270.06961" inkscape:pageopacity="0" inkscape:pageshadow="2" inkscape:window-height="705" inkscape:window-maximized="1" inkscape:window-width="1366" inkscape:window-x="-8" inkscape:window-y="-8" inkscape:zoom="0.35355339" objecttolerance="10" pagecolor="#ffffff" showgrid="false">
	</sodipodi:namedview>
<g>
	<path class="st0" d="M563.4,6.3L402.6,412.6l-65-345.4C330,28.6,299.8,6.4,266.4,6.4H3.6L0,23.6c53.9,11.8,115.2,30.7,152.3,50.8
		c22.7,12.3,29.2,23.1,36.7,52.4l123.1,476.4h163.2L725.6,6.3H563.4z"/>
	<polygon class="st0" points="791.8,6.3 664.1,603.3 818.5,603.3 946.2,6.3 	"/>
	<path class="st0" d="M1786.4,6.2h-131.8c-29.7,0-54.7,17.2-65.7,43.8l-231.7,553.2h162.1l32.2-89.2h198.1l18.7,89.2H1911
		L1786.4,6.2z M1595.9,391.6l81.3-224.1l46.8,224.1H1595.9z"/>
	<path class="st0" d="M988.3,192.7c-1,86,76.7,133.9,135.2,162.5c60.1,29.3,80.3,48,80.1,74.2c-0.5,40.1-48,57.7-92.4,58.4
		c-77.6,1.2-122.7-21-158.6-37.7l-28,130.8c36,16.6,102.7,31,171.7,31.7c162.2,0,268.3-80.1,268.8-204.3
		c0.7-157.5-217.8-166.2-216.3-236.6c0.5-21.4,20.9-44.2,65.5-50c22.1-2.9,83.1-5.1,152.2,26.7l27.1-126.6
		c-37.1-13.4-84.9-26.4-144.4-26.4C1096.6-4.6,989.2,76.5,988.3,192.7"/>
</g>
</svg>
