<?xml version="1.0" encoding="utf-8"?>
<!-- Generator: Adobe Illustrator 21.0.0, SVG Export Plug-In . SVG Version: 6.00 Build 0)  -->
<svg version="1.1"
	 id="svg3409" inkscape:version="0.91 r13725" sodipodi:docname="MasterCard 2016.svg" xmlns:cc="http://creativecommons.org/ns#" xmlns:dc="http://purl.org/dc/elements/1.1/" xmlns:inkscape="http://www.inkscape.org/namespaces/inkscape" xmlns:rdf="http://www.w3.org/1999/02/22-rdf-syntax-ns#" xmlns:sodipodi="http://sodipodi.sourceforge.net/DTD/sodipodi-0.dtd" xmlns:svg="http://www.w3.org/2000/svg"
	 xmlns="http://www.w3.org/2000/svg" xmlns:xlink="http://www.w3.org/1999/xlink" x="0px" y="0px" viewBox="0 0 1911 607.9"
	 style="enable-background:new 0 0 1911 607.9;" xml:space="preserve">
<style type="text/css">
	.st0{clip-path:url(#SVGID_2_);fill:url(#XMLID_8_);}
</style>
<sodipodi:namedview  bordercolor="#666666" borderopacity="1" gridtolerance="10" guidetolerance="10" id="namedview4178" inkscape:current-layer="svg3409" inkscape:cx="400.80964" inkscape:cy="270.06961" inkscape:pageopacity="0" inkscape:pageshadow="2" inkscape:window-height="705" inkscape:window-maximized="1" inkscape:window-width="1366" inkscape:window-x="-8" inkscape:window-y="-8" inkscape:zoom="0.35355339" objecttolerance="10" pagecolor="#ffffff" showgrid="false">
	</sodipodi:namedview>
<g>
	<defs>
		<path id="SVGID_1_" d="M563.4,10.9L402.6,417.2l-65-345.4c-7.6-38.6-37.8-60.8-71.2-60.8H3.6L0,28.2C53.9,40,115.2,58.9,152.3,79
			c22.7,12.3,29.2,23.1,36.7,52.4l123.1,476.4h163.2L725.6,10.9H563.4z M791.8,10.9L664.1,607.9h154.4L946.2,10.9H791.8z
			 M1677.2,172.2l46.8,224.1h-128.1L1677.2,172.2z M1654.6,10.9c-29.7,0-54.7,17.2-65.7,43.8l-231.7,553.2h162.1l32.2-89.2h198.1
			l18.7,89.2H1911L1786.4,10.9H1654.6z M988.3,197.3c-1,86,76.7,133.9,135.2,162.5c60.1,29.3,80.3,48,80.1,74.2
			c-0.5,40.1-48,57.7-92.4,58.4c-77.6,1.2-122.7-21-158.6-37.7l-28,130.8c36,16.6,102.7,31,171.7,31.7
			c162.2,0,268.3-80.1,268.8-204.3c0.7-157.5-217.8-166.2-216.3-236.6c0.5-21.4,20.9-44.2,65.5-50c22.1-2.9,83.1-5.1,152.2,26.7
			l27.1-126.6C1356.5,13,1308.7,0,1249.2,0C1096.6,0,989.2,81.1,988.3,197.3"/>
	</defs>
	<clipPath id="SVGID_2_">
		<use xlink:href="#SVGID_1_"  style="overflow:visible;"/>
	</clipPath>
	
		<linearGradient id="XMLID_8_" gradientUnits="userSpaceOnUse" x1="2387.4683" y1="783.8502" x2="2402.5698" y2="783.8502" gradientTransform="matrix(126.5456 0 0 -126.5456 -302123.5 99501.3516)">
		<stop  offset="0" style="stop-color:#241F5D"/>
		<stop  offset="1" style="stop-color:#034EA1"/>
	</linearGradient>
	<rect id="XMLID_6_" y="0" class="st0" width="1911" height="617.2"/>
</g>
</svg>
