<?xml version="1.0" encoding="utf-8"?>
<!-- Generator: Adobe Illustrator 21.0.0, SVG Export Plug-In . SVG Version: 6.00 Build 0)  -->
<svg version="1.1"
	 id="svg3409" inkscape:version="0.91 r13725" sodipodi:docname="MasterCard 2016.svg" xmlns:cc="http://creativecommons.org/ns#" xmlns:dc="http://purl.org/dc/elements/1.1/" xmlns:inkscape="http://www.inkscape.org/namespaces/inkscape" xmlns:rdf="http://www.w3.org/1999/02/22-rdf-syntax-ns#" xmlns:sodipodi="http://sodipodi.sourceforge.net/DTD/sodipodi-0.dtd" xmlns:svg="http://www.w3.org/2000/svg"
	 xmlns="http://www.w3.org/2000/svg" xmlns:xlink="http://www.w3.org/1999/xlink" x="0px" y="0px" viewBox="0 0 3216.1 776"
	 style="enable-background:new 0 0 3216.1 776;" xml:space="preserve">
<style type="text/css">
	.st0{fill:#FF5F00;}
	.st1{fill:#EB001B;}
	.st2{fill:#F79E1B;}
	.st3{clip-path:url(#SVGID_2_);fill:url(#XMLID_8_);}
</style>
<sodipodi:namedview  bordercolor="#666666" borderopacity="1" gridtolerance="10" guidetolerance="10" id="namedview4178" inkscape:current-layer="svg3409" inkscape:cx="400.80964" inkscape:cy="270.06961" inkscape:pageopacity="0" inkscape:pageshadow="2" inkscape:window-height="705" inkscape:window-maximized="1" inkscape:window-width="1366" inkscape:window-x="-8" inkscape:window-y="-8" inkscape:zoom="0.35355339" objecttolerance="10" pagecolor="#ffffff" showgrid="false">
	</sodipodi:namedview>
<g id="g15" transform="translate(-502.86126,-41.013507)">
	<path id="XMLID_1775_" inkscape:connector-curvature="0" d="M2900.9,815.3v-51.5c0-19.7-12-32.6-32.6-32.6
		c-10.3,0-21.5,3.4-29.2,14.6c-6-9.4-14.6-14.6-27.5-14.6c-8.6,0-17.2,2.6-24,12v-10.3h-18v82.4h18v-45.5c0-14.6,7.7-21.5,19.7-21.5
		c12,0,18,7.7,18,21.5v45.5h18v-45.5c0-14.6,8.6-21.5,19.7-21.5c12,0,18,7.7,18,21.5v45.5H2900.9z M3167.8,732.9h-29.2V708h-18v24.9
		h-16.3v16.3h16.3v37.8c0,18.9,7.7,30,28.3,30c7.7,0,16.3-2.6,22.3-6l-5.2-15.5c-5.2,3.4-11.2,4.3-15.5,4.3c-8.6,0-12-5.2-12-13.7
		v-36.9h29.2V732.9z M3320.6,731.1c-10.3,0-17.2,5.2-21.5,12v-10.3h-18v82.4h18v-46.4c0-13.7,6-21.5,17.2-21.5
		c3.4,0,7.7,0.9,11.2,1.7l5.2-17.2C3329.2,731.1,3324.1,731.1,3320.6,731.1L3320.6,731.1z M3089.7,739.7c-8.6-6-20.6-8.6-33.5-8.6
		c-20.6,0-34.3,10.3-34.3,26.6c0,13.7,10.3,21.5,28.3,24l8.6,0.9c9.4,1.7,14.6,4.3,14.6,8.6c0,6-6.9,10.3-18.9,10.3
		c-12,0-21.5-4.3-27.5-8.6l-8.6,13.7c9.4,6.9,22.3,10.3,35.2,10.3c24,0,37.8-11.2,37.8-26.6c0-14.6-11.2-22.3-28.3-24.9l-8.6-0.9
		c-7.7-0.9-13.7-2.6-13.7-7.7c0-6,6-9.4,15.5-9.4c10.3,0,20.6,4.3,25.8,6.9L3089.7,739.7L3089.7,739.7z M3568.7,731.1
		c-10.3,0-17.2,5.2-21.5,12v-10.3h-18v82.4h18v-46.4c0-13.7,6-21.5,17.2-21.5c3.4,0,7.7,0.9,11.2,1.7l5.2-17.2
		C3577.3,731.1,3572.1,731.1,3568.7,731.1L3568.7,731.1z M3338.7,774.1c0,24.9,17.2,42.9,43.8,42.9c12,0,20.6-2.6,29.2-9.4L3403,793
		c-6.9,5.2-13.7,7.7-21.5,7.7c-14.6,0-24.9-10.3-24.9-26.6c0-15.5,10.3-25.8,24.9-26.6c7.7,0,14.6,2.6,21.5,7.7l8.6-14.6
		c-8.6-6.9-17.2-9.4-29.2-9.4C3355.8,731.1,3338.7,749.2,3338.7,774.1L3338.7,774.1L3338.7,774.1z M3505.2,774.1v-41.2h-18v10.3
		c-6-7.7-14.6-12-25.8-12c-23.2,0-41.2,18-41.2,42.9c0,24.9,18,42.9,41.2,42.9c12,0,20.6-4.3,25.8-12v10.3h18V774.1L3505.2,774.1z
		 M3439.1,774.1c0-14.6,9.4-26.6,24.9-26.6c14.6,0,24.9,11.2,24.9,26.6c0,14.6-10.3,26.6-24.9,26.6
		C3448.5,799.8,3439.1,788.7,3439.1,774.1L3439.1,774.1z M3223.6,731.1c-24,0-41.2,17.2-41.2,42.9s17.2,42.9,42.1,42.9
		c12,0,24-3.4,33.5-11.2l-8.6-12.9c-6.9,5.2-15.5,8.6-24,8.6c-11.2,0-22.3-5.2-24.9-19.7h60.9c0-2.6,0-4.3,0-6.9
		C3262.3,748.3,3246.8,731.1,3223.6,731.1L3223.6,731.1L3223.6,731.1z M3223.6,746.6c11.2,0,18.9,6.9,20.6,19.7h-42.9
		C3203,755.2,3210.8,746.6,3223.6,746.6L3223.6,746.6z M3670.8,774.1v-73.8h-18v42.9c-6-7.7-14.6-12-25.8-12
		c-23.2,0-41.2,18-41.2,42.9c0,24.9,18,42.9,41.2,42.9c12,0,20.6-4.3,25.8-12v10.3h18V774.1L3670.8,774.1z M3604.7,774.1
		c0-14.6,9.4-26.6,24.9-26.6c14.6,0,24.9,11.2,24.9,26.6c0,14.6-10.3,26.6-24.9,26.6C3614.2,799.8,3604.7,788.7,3604.7,774.1
		L3604.7,774.1z M3002.2,774.1v-41.2h-18v10.3c-6-7.7-14.6-12-25.8-12c-23.2,0-41.2,18-41.2,42.9c0,24.9,18,42.9,41.2,42.9
		c12,0,20.6-4.3,25.8-12v10.3h18V774.1L3002.2,774.1z M2935.2,774.1c0-14.6,9.4-26.6,24.9-26.6c14.6,0,24.9,11.2,24.9,26.6
		c0,14.6-10.3,26.6-24.9,26.6C2944.7,799.8,2935.2,788.7,2935.2,774.1z"/>
</g>
<g id="XMLID_328_" transform="translate(-502.86126,-41.013507)">
	<rect id="rect19" x="3083.7" y="107.1" class="st0" width="270.4" height="485.8"/>
	<path id="XMLID_330_" inkscape:connector-curvature="0" class="st1" d="M3100.9,350c0-98.7,46.4-186.3,117.6-242.9
		C3166.1,65.9,3100,41,3027.9,41c-170.8,0-309,138.2-309,309s138.2,309,309,309c72.1,0,138.2-24.9,190.6-66.1
		C3147.2,537.2,3100.9,448.7,3100.9,350z"/>
	<path id="path22" inkscape:connector-curvature="0" class="st2" d="M3718.9,350c0,170.8-138.2,309-309,309
		c-72.1,0-138.2-24.9-190.6-66.1c72.1-56.7,117.6-144.2,117.6-242.9s-46.4-186.3-117.6-242.9c52.4-41.2,118.5-66.1,190.6-66.1
		C3580.7,41,3718.9,180.1,3718.9,350z"/>
</g>
<g>
	<defs>
		<path id="SVGID_1_" d="M563.4,10.9L402.6,417.2l-65-345.4c-7.6-38.6-37.8-60.8-71.2-60.8H3.6L0,28.2C53.9,40,115.2,58.9,152.3,79
			c22.7,12.3,29.2,23.1,36.7,52.4l123.1,476.4h163.2L725.6,10.9H563.4z M791.8,10.9L664.1,607.9h154.4L946.2,10.9H791.8z
			 M1677.2,172.2l46.8,224.1h-128.1L1677.2,172.2z M1654.6,10.9c-29.7,0-54.7,17.2-65.7,43.8l-231.7,553.2h162.1l32.2-89.2h198.1
			l18.7,89.2H1911L1786.4,10.9H1654.6z M988.3,197.3c-1,86,76.7,133.9,135.2,162.5c60.1,29.3,80.3,48,80.1,74.2
			c-0.5,40.1-48,57.7-92.4,58.4c-77.6,1.2-122.7-21-158.6-37.7l-28,130.8c36,16.6,102.7,31,171.7,31.7
			c162.2,0,268.3-80.1,268.8-204.3c0.7-157.5-217.8-166.2-216.3-236.6c0.5-21.4,20.9-44.2,65.5-50c22.1-2.9,83.1-5.1,152.2,26.7
			l27.1-126.6C1356.5,13,1308.7,0,1249.2,0C1096.6,0,989.2,81.1,988.3,197.3"/>
	</defs>
	<clipPath id="SVGID_2_">
		<use xlink:href="#SVGID_1_"  style="overflow:visible;"/>
	</clipPath>
	
		<linearGradient id="XMLID_8_" gradientUnits="userSpaceOnUse" x1="2387.4683" y1="783.8502" x2="2402.5698" y2="783.8502" gradientTransform="matrix(126.5456 0 0 -126.5456 -302123.5 99501.3516)">
		<stop  offset="0" style="stop-color:#241F5D"/>
		<stop  offset="1" style="stop-color:#034EA1"/>
	</linearGradient>
	<rect id="XMLID_6_" y="0" class="st3" width="1911" height="617.2"/>
</g>
</svg>
